<?xml version="1.0" encoding="utf-8"?>
<!-- Generator: Adobe Illustrator 16.0.1, SVG Export Plug-In . SVG Version: 6.00 Build 0)  -->
<!DOCTYPE svg PUBLIC "-//W3C//DTD SVG 1.1//EN" "http://www.w3.org/Graphics/SVG/1.1/DTD/svg11.dtd">
<svg version="1.1" id="Layer_1" xmlns="http://www.w3.org/2000/svg" xmlns:xlink="http://www.w3.org/1999/xlink" x="0px" y="0px"
	 width="239px" height="51.67px" viewBox="-89 0 239 51.67" style="enable-background:new -89 0 239 51.67;" xml:space="preserve">
<style type="text/css">
<![CDATA[
	.st0{fill:#7AA9D0;}
	.st1{display:inline;fill:#FFFFFF;}
	.st2{display:none;enable-background:new    ;}
]]>
</style>
<polygon class="st0" points="148.04,50.56 -89,50.56 -89,1 148.04,1 137.71,25.78 "/>
<g class="st2">
	<path class="st1" d="M18.19,32.81c0.51-1.47,0.93-2.72,1.62-4.76l2.94-9.02c0.34-1.01,0.71-1.32,1.69-1.32h1.35l3.21,9.8
		c0.88,2.65,1.35,4.07,1.84,5.3h1.15c0.07,0.24,0.12,0.44,0.12,0.69c0,0.37-0.17,0.59-0.64,0.59h-4.19
		c-0.1-0.25-0.15-0.44-0.15-0.69c0-0.37,0.2-0.59,0.64-0.59h0.54c-0.22-1.01-0.59-2.28-1.01-3.7h-6c-0.39,1.45-0.76,2.72-1.01,3.7
		h1.2c0.07,0.24,0.12,0.44,0.12,0.69c0,0.37-0.17,0.59-0.64,0.59h-4c-0.1-0.25-0.15-0.44-0.15-0.69c0-0.37,0.17-0.59,0.64-0.59
		H18.19z M26.85,27.61c-0.81-2.62-1.77-5.49-2.53-7.7c-0.81,2.21-1.74,5.08-2.57,7.7H26.85z"/>
	<path class="st1" d="M35.79,34.28c-0.44,0-1.2-0.05-1.67-0.22c0.15-1.57,0.22-3.87,0.22-5.37v-9.05c0-1.08-0.22-1.28-0.98-1.28
		H33.1c-0.1-0.27-0.15-0.51-0.15-0.76c0-0.37,0.2-0.59,0.69-0.59h2.77l-0.1,6.5c0.71-0.74,1.77-1.28,3.14-1.28
		c2.84,0,4.54,1.84,4.54,5.54c0,4.56-2.23,6.55-5.2,6.55c-1.15,0-2.11-0.29-2.72-0.66L35.79,34.28z M36.33,32.17
		c0.54,0.39,1.4,0.69,2.53,0.69c1.72,0,2.97-1.1,2.97-4.46c0-3.63-1.23-4.63-3.04-4.63c-1.67,0-2.45,1.23-2.45,3.29L36.33,32.17
		L36.33,32.17z"/>
	<path class="st1" d="M45.89,28.56c0-4.32,2.23-6.33,5.3-6.33c3.31,0,4.95,1.94,4.95,5.76c0,4.32-2.23,6.33-5.3,6.33
		C47.54,34.33,45.89,32.39,45.89,28.56z M54.01,28.56c0-3.58-1.01-4.85-3.06-4.85c-1.57,0-2.92,1.03-2.92,4.29
		c0,3.58,1.01,4.86,3.06,4.86C52.69,32.85,54.01,31.83,54.01,28.56z"/>
	<path class="st1" d="M59.06,25.11c0-1.08-0.17-1.28-0.91-1.28h-0.27c-0.07-0.27-0.12-0.51-0.12-0.76c0-0.37,0.17-0.59,0.66-0.59
		h2.67c0,1.2-0.05,3.26-0.05,4.59v2.43c0,2.4,0.74,3.26,2.35,3.26c1.74,0,2.57-1.01,2.57-3.14v-4.51c0-1.08-0.17-1.28-0.91-1.28
		H64.8c-0.07-0.27-0.12-0.51-0.12-0.76c0-0.37,0.22-0.59,0.71-0.59h2.62c0,1.2-0.05,3.26-0.05,4.59v4.68c0,0.88,0.2,1.05,0.81,1.05
		h0.42c0.1,0.24,0.15,0.46,0.15,0.69c0,0.37-0.2,0.59-0.69,0.59h-2.16c-0.15-0.32-0.25-0.83-0.27-1.25c-1.01,1.03-2.23,1.5-3.58,1.5
		c-2.3,0-3.58-1.18-3.58-3.85V25.11z"/>
	<path class="st1" d="M72.15,23.93h-1.72c-0.1-0.27-0.17-0.49-0.17-0.79c0-0.42,0.2-0.66,0.71-0.66h1.18l0.61-2.67l0.54,0.05
		c0.64,0.05,0.83,0.25,0.83,1.05v1.57h3.88c0.1,0.27,0.17,0.49,0.17,0.79c0,0.44-0.22,0.66-0.71,0.66h-3.33v6.33
		c0,2.11,0.54,2.53,1.54,2.53c0.59,0,1.18-0.24,1.67-0.76c0.42,0.12,0.81,0.47,0.81,0.93c0,0.64-1.1,1.37-2.79,1.37
		c-2.18,0-3.21-1.05-3.21-3.63v-6.77H72.15z"/>
	<path class="st1" d="M86.32,23.07c0-1.23,0-2.72-0.05-4.09h-1.25c-0.1-0.25-0.15-0.44-0.15-0.69c0-0.37,0.2-0.59,0.64-0.59h4.24
		c0.1,0.25,0.15,0.44,0.15,0.69c0,0.37-0.2,0.59-0.64,0.59h-0.74c-0.02,1.35-0.05,2.87-0.05,4.09v4.56c0,3.9,1.37,5.05,3.9,5.05
		c2.33,0,3.75-1.23,3.75-4.66v-4.95c0-1.23,0-2.77-0.05-4.09h-1.15c-0.07-0.25-0.12-0.44-0.12-0.69c0-0.37,0.17-0.59,0.64-0.59h3.87
		c0.1,0.25,0.15,0.44,0.15,0.69c0,0.37-0.2,0.59-0.64,0.59h-0.71c-0.02,1.3-0.02,2.87-0.02,4.09v4.44c0,4.98-2.33,6.79-6.03,6.82
		c-3.88,0.03-5.74-1.79-5.74-6.15V23.07z"/>
	<path class="st1" d="M103.98,28.91c-2.18-0.64-3.07-1.69-3.07-3.31c0-1.84,1.57-3.36,4.34-3.36c2.43,0,3.68,0.93,3.68,1.84
		c0,0.47-0.47,0.83-1.05,1.01l-0.34,0.1l-0.15-0.22c-0.66-0.88-1.42-1.25-2.6-1.25s-1.89,0.61-1.89,1.54c0,0.88,0.49,1.42,1.86,1.81
		l1.13,0.34c2.28,0.69,3.21,1.57,3.21,3.33c0,2.04-1.69,3.58-4.58,3.58c-2.58,0-3.83-0.98-3.83-1.79c0-0.49,0.49-0.93,0.98-1.18
		c0.78,0.86,1.77,1.5,3.24,1.5c1.3,0,2.18-0.64,2.18-1.72c0-0.98-0.59-1.47-1.96-1.89L103.98,28.91L103.98,28.91z"/>
</g>
</svg>
