<?xml version="1.0" encoding="utf-8"?>
<!-- Generator: Adobe Illustrator 16.0.1, SVG Export Plug-In . SVG Version: 6.00 Build 0)  -->
<!DOCTYPE svg PUBLIC "-//W3C//DTD SVG 1.1//EN" "http://www.w3.org/Graphics/SVG/1.1/DTD/svg11.dtd">
<svg version="1.1" id="Layer_1" xmlns="http://www.w3.org/2000/svg" xmlns:xlink="http://www.w3.org/1999/xlink" x="0px" y="0px"
	 width="819px" height="92px" viewBox="0 0 819 92" enable-background="new 0 0 819 92" xml:space="preserve">
<path fill="#FFFFFF" d="M125.58,64.779V31.95h8.41c9.71,0,17.74,5.68,17.74,16.44c0,10.279-7.29,16.389-18.08,16.389H125.58
	L125.58,64.779z M133.65,61.09c7.76,0,13.66-3.859,13.66-12.84c0-8.11-5.81-12.58-13.18-12.58h-4.38v25.41h3.9V61.09z"/>
<path fill="#FFFFFF" d="M174.93,65.43c-9.89,0-17.65-7.63-17.65-17.039c0-9.451,7.76-17.091,17.65-17.091
	c9.71,0,17.52,7.29,17.52,17.22C192.45,57.891,184.42,65.43,174.93,65.43z M174.93,35.08c-7.37,0-13.27,5.64-13.27,13.141
	c0,7.109,5.77,13.489,12.97,13.489c7.55,0,13.4-5.771,13.4-13.229C188.02,40.71,182.04,35.08,174.93,35.08L174.93,35.08z"/>
<path fill="#FFFFFF" d="M231.21,64.779l-2.08-19.509c-0.04-0.39-0.04-1.3-0.04-1.65c-0.09,0.26-0.48,0.95-0.74,1.47L216.9,66.04
	l-11.49-20.9c-0.3-0.56-0.56-1.13-0.74-1.56c0.09,0.43,0.09,1.08,0.04,1.69l-1.99,19.509h-4.42l3.9-33.739l14.18,25.41
	c0.13,0.17,0.52,1.04,0.56,1.39c0.09-0.35,0.48-1.21,0.56-1.39l14.14-25.37l3.95,33.699H231.21L231.21,64.779z"/>
<path fill="#FFFFFF" d="M243.44,64.779V31.95h4.16v32.829H243.44z"/>
<path fill="#FFFFFF" d="M261.13,41.19l0.04,23.589h-4.16l0.04-33.699l24.81,24.98l-0.04-24.11h4.16l-0.04,34L261.13,41.19z"/>
<path fill="#FFFFFF" d="M295.39,64.779V31.95h4.16v32.829H295.39z"/>
<path fill="#FFFFFF" d="M324.62,65.43c-9.89,0-17.65-7.63-17.65-17.039c0-9.451,7.762-17.091,17.65-17.091
	c9.71,0,17.52,7.29,17.52,17.22C342.14,57.891,334.11,65.43,324.62,65.43z M324.62,35.08c-7.37,0-13.271,5.64-13.271,13.141
	c0,7.109,5.771,13.489,12.972,13.489c7.55,0,13.398-5.771,13.398-13.229C337.71,40.71,331.73,35.08,324.62,35.08z"/>
<path fill="#FFFFFF" d="M353.62,41.19l0.04,23.589h-4.16l0.04-33.699l24.81,24.98l-0.04-24.11h4.16l-0.04,34L353.62,41.19z"/>
<path fill="#FFFFFF" d="M426.61,61.23c-2.99,2.729-6.762,4.209-11.32,4.209c-10.19,0-17.74-7.719-17.74-17.041
	c0-9.37,7.29-17.089,17.432-17.089c5.68,0,9.63,2.56,11.488,4.42l-2.3,2.91c-2.08-2.08-5.07-3.56-9.54-3.56
	c-7.24,0-12.66,5.59-12.66,13.53c0,7.371,6.07,13.1,13.36,13.1c4.47,0,7.63-1.602,9.37-3.21L426.61,61.23L426.61,61.23z"/>
<path fill="#FFFFFF" d="M433.63,64.779V31.95h4.16v32.829H433.63z"/>
<path fill="#FFFFFF" d="M453.53,64.779V35.68h-9.58V32h23.33v3.69h-9.58v29.1h-4.17V64.779z"/>
<path fill="#FFFFFF" d="M480.29,64.779v-14.09L468.93,31.96h4.682l8.59,14.75c0.13,0.261,0.22,0.479,0.26,1.08
	c0.04-0.61,0.17-0.819,0.3-1.08l8.67-14.75h4.602l-11.58,18.729v14.09H480.29L480.29,64.779z"/>
<path fill="#FFFFFF" d="M512.5,64.779V31.95h7.07c6.33,0,11.358,1.74,11.358,8.41c0,3.08-2.729,5.9-5.159,6.72
	c3.25,0.561,7.891,3.3,7.891,8.24c0,5.85-4.16,9.449-12.271,9.449h-8.89L512.5,64.779L512.5,64.779z M519.31,46.09
	c4.472,0,7.24-2,7.24-5.59c0-3.56-2.648-4.81-6.2-4.81h-3.688V46.1h2.648V46.09L519.31,46.09z M522,61.09
	c4.94,0,7.24-2.34,7.24-5.72c0-3.3-2.86-5.55-7.2-5.55h-5.38v11.27H522z"/>
<path fill="#FFFFFF" d="M559.55,64.779l-13.01-12.92h-1.26v12.92h-4.16V31.95h6.55c5.64,0,12.92,1.69,12.92,9.71
	c0,5.29-3.729,9.189-9.45,9.97l14.271,13.14h-5.86L559.55,64.779L559.55,64.779z M547.63,48.17c5.64,0,8.63-2.73,8.63-6.46
	c0-4.12-2.91-6.03-7.76-6.03h-3.21v12.49H547.63z"/>
<path fill="#FFFFFF" d="M569.4,64.74V32h17.908v3.69h-13.75v9.71h11.062v3.73H573.56V61.1l15.132-0.039v3.689H569.4V64.74z"/>
<path fill="#FFFFFF" d="M613.97,41.49L603.61,66.16L591.47,31.94h4.55l7.852,22.51c0.17,0.479,0.22,0.95,0.26,1.6
	c0.04-0.649,0.13-1.13,0.3-1.6l9.5-23.37l9.8,23.37c0.172,0.43,0.262,0.95,0.302,1.6c0.04-0.649,0.09-1.17,0.26-1.6l7.63-22.51h4.47
	L624.51,66.2L613.97,41.49L613.97,41.49z"/>
<path fill="#FFFFFF" d="M641.77,64.779V31.95h4.16v32.829H641.77z"/>
<path fill="#FFFFFF" d="M659.46,41.19l0.04,23.589h-4.16l0.04-33.699l24.812,24.98l-0.04-24.11h4.158l-0.04,34L659.46,41.19z"/>
<path fill="#FFFFFF" d="M711.67,52.2V48.43h13.14c-0.09,11.881-7.72,17-15.648,17c-9.67,0-17.48-7.59-17.48-16.959
	c0-9.58,7.46-17.17,17.521-17.17c7.76,0,12.14,4.25,12.358,4.51l-2.17,3.08c-0.22-0.26-4.158-3.82-10.278-3.82
	c-8.07,0-13.011,5.9-13.011,13.49c0,6.76,5.46,13.141,13.359,13.141c5.641,0,10.45-3.561,10.97-9.5L711.67,52.2L711.67,52.2z"/>
<path fill="#FFFFFF" d="M770.3,61.23c-2.99,2.729-6.76,4.209-11.319,4.209c-10.189,0-17.739-7.719-17.739-17.041
	c0-9.37,7.29-17.089,17.43-17.089c5.68,0,9.63,2.56,11.49,4.42l-2.3,2.91c-2.08-2.08-5.07-3.56-9.54-3.56
	c-7.24,0-12.66,5.59-12.66,13.53c0,7.371,6.07,13.1,13.358,13.1c4.472,0,7.632-1.602,9.37-3.21L770.3,61.23z"/>
<path fill="#FFFFFF" d="M791.67,65.43c-9.89,0-17.65-7.63-17.65-17.039c0-9.451,7.762-17.091,17.65-17.091
	c9.71,0,17.521,7.29,17.521,17.22C809.19,57.891,801.17,65.43,791.67,65.43z M791.67,35.08c-7.37,0-13.27,5.64-13.27,13.141
	c0,7.109,5.77,13.489,12.97,13.489c7.54,0,13.398-5.771,13.398-13.229C804.77,40.71,798.79,35.08,791.67,35.08z"/>
<path fill="#FFFFFF" d="M816.39,65.3c-1.47,0-2.688-1.3-2.688-2.649c0-1.521,1.21-2.729,2.688-2.729c1.521,0,2.69,1.21,2.69,2.729
	C819.08,64,817.91,65.3,816.39,65.3z"/>
<g>
	<circle fill="#7AA9D1" cx="46.084" cy="45.587" r="45.083"/>
	<path fill="#B21E28" d="M82.332,40.567c-0.09,0.007-0.177,0.027-0.266,0.046c-0.865,0.191-1.729,0.386-2.594,0.574
		c-0.64,0.14-1.283,0.268-1.868,0.583c-0.041,0.021-0.089,0.028-0.136,0.044c0.405-0.499,0.801-0.986,1.199-1.473
		c0.042-0.055,0.096-0.104,0.077-0.199c0,0-0.001-0.001-0.002-0.001c0,0-0.001-0.001-0.001-0.002
		c-0.011-0.008-0.025-0.013-0.039-0.018c-0.06,0.008-0.122,0.015-0.18,0.034c-0.146,0.048-0.288,0.11-0.433,0.16
		c-0.34,0.117-0.685,0.219-1.02,0.346c-0.595,0.225-1.187,0.457-1.772,0.702c-0.248,0.103-0.479,0.245-0.718,0.369
		c-0.036,0.02-0.075,0.039-0.14,0.071c0.042-0.084,0.067-0.142,0.1-0.197c0.316-0.551,0.675-1.074,1.074-1.569
		c0.049-0.06,0.094-0.125,0.124-0.193c0.034-0.078-0.003-0.134-0.087-0.121c-0.1,0.015-0.202,0.04-0.293,0.082
		c-0.379,0.173-0.768,0.333-1.128,0.54c-0.573,0.329-1.132,0.681-1.684,1.043c-0.663,0.437-1.312,0.897-1.966,1.349
		c-0.353,0.244-0.705,0.49-1.056,0.738c-0.113,0.081-0.218,0.168-0.328,0.253c-0.012-0.005-0.023-0.01-0.036-0.016
		c0.018-0.077,0.034-0.155,0.055-0.232c0.044-0.167,0.091-0.333,0.135-0.501c0.167-0.62,0.336-1.238,0.501-1.858
		c0.051-0.192,0.091-0.386,0.13-0.582c0.009-0.04,0.005-0.083,0.003-0.143c-0.001-0.001-0.003-0.001-0.003-0.003
		c-0.001,0-0.001-0.001-0.001-0.003c-0.001,0-0.001-0.001-0.002-0.002c-0.004-0.003-0.01-0.006-0.015-0.01
		c-0.005-0.001-0.011-0.001-0.016-0.001c-0.008,0-0.012,0-0.001,0v0c-0.004,0-0.011-0.001-0.014-0.001
		c-0.074,0.02-0.14,0.035-0.201,0.057c-0.312,0.117-0.622,0.241-0.936,0.353c-0.111,0.04-0.231,0.049-0.373,0.078
		c0.024-0.1,0.037-0.168,0.057-0.234c0.161-0.507,0.321-1.015,0.485-1.521c0.09-0.274,0.167-0.553,0.325-0.801
		c0.035-0.056,0.072-0.124,0.013-0.173c-0.037-0.028-0.11-0.031-0.161-0.016c-0.322,0.087-0.643,0.176-0.962,0.275
		c-0.367,0.111-0.732,0.231-1.11,0.353c0-0.054-0.005-0.092,0.001-0.13c0.122-0.811,0.056-1.627,0.051-2.441
		c-0.001-0.072,0-0.148-0.082-0.191c-0.005,0.001-0.011,0.002-0.011,0.002c-0.003,0.001-0.005,0.001-0.011,0.002
		c-0.025,0.022-0.049,0.043-0.071,0.067c-0.281,0.303-0.59,0.573-0.933,0.802c-0.524,0.35-1.009,0.749-1.447,1.202
		c-0.286,0.296-0.549,0.612-0.822,0.919c-0.04,0.046-0.082,0.092-0.152,0.171c-0.131-0.648-0.205-1.261-0.211-1.92v-0.001
		c-0.007-0.005-0.013-0.01-0.018-0.016c-0.005-0.001-0.009-0.001-0.014-0.002c-0.077,0.045-0.132,0.071-0.176,0.109
		c-0.062,0.054-0.116,0.121-0.172,0.181c-0.275,0.285-0.44,0.646-0.661,0.969c-0.174,0.253-0.326,0.521-0.43,0.814
		c-0.14,0.39-0.4,0.71-0.608,1.087c-0.034-0.059-0.058-0.094-0.078-0.132c-0.083-0.152-0.154-0.31-0.247-0.457
		c-0.08-0.13-0.172-0.255-0.273-0.369c-0.097-0.109-0.165-0.087-0.195,0.05c-0.02,0.093-0.034,0.189-0.048,0.284
		c-0.073,0.482-0.146,0.963-0.216,1.446c-0.043,0.292-0.106,0.584-0.117,0.876c-0.021,0.539-0.011,1.078-0.014,1.617
		c0,0.049-0.005,0.096-0.011,0.183c-0.075-0.065-0.121-0.105-0.167-0.147c-0.34-0.313-0.679-0.627-1.02-0.938
		c-0.04-0.037-0.087-0.067-0.146-0.107l-0.027,0.001h-0.001c-0.008,0.006-0.017,0.012-0.024,0.019
		c-0.025,0.086-0.047,0.154-0.057,0.221c-0.019,0.14-0.03,0.281-0.039,0.421c-0.041,0.604,0.011,1.207,0.065,1.808
		c0.006,0.07,0.025,0.138,0.042,0.237c-0.104-0.029-0.164-0.045-0.224-0.062c-0.292-0.091-0.584-0.189-0.882-0.272
		c-0.223-0.063-0.271-0.015-0.236,0.209c0.015,0.089,0.029,0.178,0.047,0.266c0.108,0.468,0.215,0.938,0.331,1.404
		c0.081,0.324,0.176,0.643,0.266,0.964c0.042,0.154,0.087,0.305,0.136,0.475c-0.373,0.081-0.725,0.156-1.076,0.229
		c-0.246,0.05-0.491,0.092-0.737,0.145c-0.17,0.035-0.202,0.107-0.112,0.259c0.048,0.082,0.111,0.156,0.175,0.229
		c0.387,0.444,0.775,0.889,1.168,1.329c0.278,0.311,0.549,0.629,0.849,0.918c0.529,0.506,1.071,0.996,1.615,1.486
		c0.392,0.354,0.792,0.7,1.224,1.005l-0.041,0.037c-0.164,0.082-0.332,0.168-0.495,0.266c-1.232,0.745-2.531,1.537-3.97,2.419
		c-0.912,0.56-1.884,1.155-2.84,1.759c-0.257,0.163-0.511,0.337-0.758,0.505c-0.225,0.155-0.459,0.315-0.693,0.465
		c-1.321,0.843-2.484,1.696-3.557,2.608c-0.936,0.795-1.75,1.541-2.236,2.601l-0.003-0.062c-0.006-0.104-0.012-0.208-0.012-0.313
		c0-0.67,0-1.341-0.001-2.012c-0.001-1.688-0.003-3.436,0.007-5.153c0.008-1.34,0.029-2.704,0.051-4.022
		c0.01-0.63,0.02-1.258,0.028-1.886l0.004-0.296c0.005-0.364,0.01-0.741,0.004-1.11c-0.01-0.644-0.022-1.284-0.036-1.928
		c-0.014-0.697-0.028-1.394-0.039-2.092c-0.01-0.725-0.02-1.562-0.028-2.415l-0.007-0.626l-0.007-0.014l0.194,0.032
		c0.465,0.184,0.948,0.326,1.43,0.463c0.732,0.209,1.468,0.417,2.205,0.602c0.42,0.105,0.852,0.169,1.28,0.242
		c0.606,0.105,1.212,0.202,1.818,0.299c0.1,0.016,0.2,0.03,0.3,0.028c0.182-0.004,0.228-0.073,0.165-0.243
		c-0.09-0.244-0.188-0.485-0.28-0.729c-0.129-0.351-0.257-0.702-0.393-1.076c0.178-0.052,0.335-0.096,0.493-0.144
		c0.333-0.099,0.669-0.19,0.998-0.298c0.477-0.156,0.949-0.322,1.424-0.485c0.089-0.031,0.175-0.068,0.259-0.104
		c0.218-0.093,0.235-0.163,0.055-0.325c-0.238-0.215-0.485-0.419-0.729-0.628c-0.049-0.042-0.096-0.086-0.178-0.163
		c0.096-0.038,0.167-0.061,0.232-0.094c0.562-0.283,1.12-0.571,1.631-0.94c0.119-0.086,0.237-0.174,0.351-0.269
		c0.054-0.046,0.102-0.103,0.164-0.172c0-0.01,0.001-0.02,0.002-0.032l-0.001-0.001l-0.013-0.024
		c-0.069-0.031-0.122-0.056-0.176-0.071c-0.463-0.13-0.927-0.255-1.392-0.383c-0.063-0.016-0.124-0.036-0.221-0.065
		c0.072-0.051,0.111-0.084,0.154-0.11c0.474-0.301,0.957-0.59,1.42-0.906c0.251-0.172,0.475-0.388,0.708-0.588
		c0.386-0.329,0.771-0.66,1.156-0.99c0.077-0.066,0.152-0.13,0.225-0.201c0.104-0.102,0.087-0.174-0.062-0.199
		c-0.157-0.027-0.319-0.039-0.479-0.038c-0.181,0-0.36,0.023-0.538,0.035c-0.045,0.002-0.088,0.002-0.161,0.004
		c0.219-0.393,0.356-0.8,0.625-1.138c0.201-0.253,0.352-0.537,0.48-0.831c0.163-0.373,0.39-0.718,0.49-1.118
		c0.022-0.084,0.051-0.167,0.064-0.252c0.008-0.06,0.002-0.123-0.001-0.215c-0.003-0.003-0.006-0.006-0.01-0.01
		c-0.008-0.002-0.017-0.005-0.025-0.008c0,0,0,0-0.001,0c-0.583,0.361-1.167,0.634-1.812,0.876c0.032-0.106,0.049-0.167,0.067-0.229
		c0.122-0.412,0.254-0.819,0.358-1.233c0.158-0.635,0.241-1.286,0.261-1.942c0.012-0.429,0.081-0.851,0.193-1.266
		c0.008-0.032,0.013-0.066,0.018-0.101c-0.001-0.004-0.002-0.007-0.003-0.012c0,0-0.002-0.006-0.004-0.011
		c-0.084-0.049-0.15-0.004-0.215,0.035c-0.705,0.437-1.442,0.823-2.083,1.36l-0.175,0.035c-0.096-0.375-0.186-0.74-0.283-1.103
		c-0.091-0.335-0.189-0.668-0.291-1.001c-0.017-0.052-0.059-0.117-0.104-0.132c-0.075-0.026-0.114,0.045-0.146,0.108
		c-0.13,0.276-0.335,0.497-0.527,0.728c-0.356,0.425-0.715,0.848-1.074,1.27c-0.047,0.055-0.101,0.104-0.176,0.179
		c-0.052-0.14-0.111-0.252-0.137-0.373c-0.077-0.338-0.137-0.68-0.207-1.021c-0.015-0.065-0.036-0.13-0.062-0.208
		c-0.002-0.004-0.005-0.007-0.009-0.011l0,0c0.007,0.009,0.004,0.006,0-0.001c-0.002-0.004-0.007-0.009-0.01-0.014
		c-0.007-0.002-0.012-0.003-0.017-0.007c-0.001,0-0.002,0-0.004,0c-0.001,0-0.001,0-0.004,0c-0.001,0-0.002,0-0.003,0
		c-0.054,0.032-0.094,0.052-0.125,0.081c-0.148,0.143-0.298,0.286-0.44,0.438c-0.457,0.487-0.909,0.979-1.363,1.468
		c-0.122,0.133-0.245,0.266-0.367,0.397c-0.057,0.061-0.117,0.118-0.175,0.177c-0.012-0.008-0.022-0.015-0.035-0.023
		c0.015-0.143,0.036-0.286,0.043-0.429c0.026-0.447,0.048-0.894,0.068-1.341c0.038-0.828,0.083-1.654,0.103-2.482
		c0.016-0.687,0.016-1.375-0.009-2.062c-0.017-0.433-0.091-0.864-0.146-1.293c-0.013-0.105-0.048-0.209-0.091-0.306
		c-0.034-0.08-0.105-0.083-0.155-0.01c-0.043,0.066-0.076,0.141-0.102,0.216c-0.216,0.627-0.479,1.232-0.791,1.817
		c-0.03,0.057-0.068,0.112-0.12,0.194c-0.006-0.073-0.011-0.118-0.014-0.163c-0.021-0.279-0.024-0.561-0.07-0.837
		c-0.108-0.653-0.233-1.302-0.361-1.951c-0.074-0.367-0.175-0.728-0.26-1.092c-0.037-0.156-0.061-0.314-0.099-0.47
		c-0.015-0.061-0.043-0.12-0.068-0.178c-0.013-0.01-0.026-0.019-0.037-0.025c-0.002,0-0.003,0-0.004,0h-0.001
		c-0.094,0.036-0.11,0.108-0.133,0.178c-0.21,0.62-0.421,1.239-0.636,1.873c-0.014-0.05-0.034-0.097-0.037-0.145
		c-0.046-0.69-0.288-1.328-0.52-1.971c-0.311-0.867-0.617-1.738-0.927-2.607c-0.032-0.087-0.062-0.177-0.106-0.259
		c-0.019-0.035-0.068-0.078-0.1-0.076c-0.033,0.002-0.075,0.053-0.088,0.09c-0.079,0.227-0.144,0.459-0.226,0.686
		c-0.2,0.566-0.413,1.129-0.615,1.696c-0.142,0.396-0.266,0.799-0.416,1.192c-0.132,0.348-0.292,0.685-0.452,1.055
		c-0.055-0.056-0.088-0.083-0.111-0.118c-0.307-0.456-0.583-0.927-0.72-1.468c-0.021-0.085-0.027-0.208-0.143-0.22
		c-0.126-0.013-0.162,0.115-0.191,0.2c-0.118,0.327-0.252,0.653-0.32,0.991c-0.122,0.608-0.224,1.22-0.222,1.846
		c0.003,0.454-0.037,0.908-0.061,1.362c-0.001,0.038-0.015,0.075-0.026,0.127c-0.309-0.204-0.603-0.396-0.896-0.592
		c-0.166-0.112-0.327-0.23-0.492-0.344c-0.121-0.082-0.189-0.064-0.21,0.081c-0.028,0.217-0.042,0.439-0.04,0.659
		c0.007,0.466,0.013,0.935,0.046,1.4c0.029,0.399,0.099,0.795,0.15,1.192c0.063,0.49,0.138,0.979,0.191,1.47
		c0.071,0.637,0.126,1.276,0.186,1.915c0.001,0.018-0.007,0.036-0.018,0.082c-0.257-0.269-0.511-0.513-0.737-0.782
		c-0.344-0.409-0.661-0.84-0.997-1.254c-0.187-0.228-0.391-0.44-0.591-0.655c-0.032-0.035-0.077-0.061-0.132-0.095l-0.001-0.001
		c-0.008-0.001-0.017-0.002-0.025-0.003c-0.003,0-0.008,0-0.013,0l-0.002,0.001c-0.006,0.005-0.013,0.01-0.02,0.014
		c-0.059,0.29-0.056,0.556-0.082,0.819c-0.028,0.269-0.063,0.537-0.097,0.836c-0.124-0.102-0.217-0.188-0.319-0.263
		c-0.724-0.542-1.37-1.17-2.042-1.772c-0.034-0.031-0.068-0.062-0.104-0.091c-0.11-0.087-0.21-0.059-0.231,0.078
		c-0.021,0.138-0.032,0.28-0.022,0.419c0.04,0.539,0.089,1.077,0.134,1.616c0.013,0.169,0.018,0.34,0.03,0.544
		c-0.316-0.177-0.6-0.323-0.874-0.488c-0.645-0.39-1.286-0.79-1.93-1.184c-0.078-0.047-0.16-0.135-0.251-0.073
		c-0.014,0.009-0.022,0.019-0.028,0.028c-0.005,0.014-0.007,0.029-0.011,0.044c0.001,0.006,0.002,0.014,0.001,0.022
		c0,0.004,0,0.008,0,0.011c0,0.002,0.001,0.003,0.001,0.005c-0.001,0.035,0.001,0.069,0.005,0.103
		c0.005,0.016,0.008,0.031,0.01,0.048c0.07,0.415,0.122,0.833,0.219,1.242c0.139,0.591,0.315,1.173,0.47,1.761
		c0.111,0.42,0.215,0.842,0.321,1.264c0.008,0.029,0.006,0.064,0.008,0.106c-0.075-0.022-0.139-0.037-0.199-0.06
		c-0.645-0.25-1.314-0.356-2.001-0.354c-0.178,0.001-0.23,0.082-0.117,0.222c0.18,0.223,0.368,0.442,0.577,0.637
		c0.34,0.316,0.637,0.667,0.911,1.04c0.259,0.355,0.521,0.711,0.783,1.068c0.034,0.046,0.062,0.097,0.113,0.175
		c-0.193,0.002-0.347-0.003-0.501,0.007c-0.353,0.024-0.704,0.055-1.058,0.085c-0.038,0.003-0.079,0.013-0.116,0.027
		c-0.083,0.031-0.101,0.108-0.042,0.174c0.041,0.043,0.093,0.076,0.143,0.108c0.376,0.243,0.761,0.472,1.127,0.729
		c0.707,0.493,1.433,0.955,2.174,1.396c0.165,0.099,0.333,0.196,0.52,0.307c-0.072,0.058-0.125,0.107-0.183,0.146
		c-0.304,0.209-0.608,0.415-0.911,0.622c-0.273,0.187-0.271,0.222-0.006,0.42c0.411,0.309,0.864,0.531,1.34,0.718
		c0.141,0.054,0.275,0.124,0.421,0.192c-0.285,0.391-0.687,0.638-0.923,1.031c-0.007,0.014-0.001,0.037-0.001,0.078l0,0
		c0.001,0.002,0.001,0.005,0.002,0.007c0.095,0.042,0.191,0.098,0.295,0.131c0.332,0.105,0.665,0.201,0.999,0.301
		c0.634,0.19,1.268,0.38,1.902,0.572c0.03,0.008,0.06,0.023,0.1,0.039c0.001,0.148-0.055,0.275-0.109,0.403
		c-0.157,0.384-0.314,0.767-0.465,1.152c-0.057,0.147-0.013,0.197,0.144,0.187c0.033-0.001,0.066-0.006,0.099-0.011
		c0.781-0.107,1.562-0.211,2.341-0.321c0.443-0.063,0.884-0.135,1.326-0.2c0.386-0.058,0.758-0.166,1.124-0.289
		c0.261-0.086,0.526-0.157,0.79-0.23c0.085-0.024,0.171-0.046,0.257-0.07l0.006,0.064c0.009,0.309,0.016,0.601,0.02,0.853
		c0.025,2.156,0.051,4.665,0.048,7.168c-0.002,1.646-0.016,3.32-0.029,4.939c-0.009,1.227-0.02,2.454-0.025,3.681
		c-0.004,1.033-0.001,2.083,0.004,3.099c0.002,0.591,0.004,1.181,0.005,1.771c-0.001,0-0.001,0-0.001,0l-0.012-0.02
		c-0.052-0.082-0.102-0.164-0.15-0.246c-0.417-0.736-0.772-1.305-1.553-1.932l-0.093-0.075c-1.27-1.018-2.581-2.07-3.979-2.975
		c-1.476-0.955-2.952-1.964-4.379-2.938c-0.735-0.503-1.47-1.005-2.208-1.502c-0.481-0.324-0.893-0.587-1.328-0.811
		c-0.006-0.005-0.013-0.007-0.019-0.011l-0.07-0.035c0.284-0.228,0.558-0.466,0.828-0.709c0.544-0.49,1.086-0.98,1.614-1.486
		c0.301-0.289,0.571-0.607,0.849-0.918c0.394-0.44,0.782-0.885,1.17-1.329c0.064-0.072,0.128-0.146,0.176-0.229
		c0.088-0.151,0.056-0.224-0.115-0.259c-0.243-0.053-0.491-0.095-0.736-0.145c-0.351-0.072-0.701-0.147-1.074-0.229
		c0.048-0.17,0.091-0.32,0.133-0.475c0.09-0.321,0.186-0.64,0.267-0.964c0.116-0.467,0.222-0.936,0.33-1.404
		c0.02-0.087,0.034-0.177,0.048-0.266c0.035-0.224-0.013-0.272-0.237-0.209c-0.295,0.083-0.588,0.181-0.882,0.272
		c-0.059,0.018-0.119,0.033-0.225,0.062c0.019-0.099,0.038-0.167,0.044-0.237c0.054-0.601,0.106-1.203,0.066-1.808
		c-0.011-0.141-0.021-0.281-0.04-0.421c-0.01-0.067-0.032-0.134-0.058-0.221c-0.007-0.007-0.015-0.013-0.023-0.019h-0.001
		l-0.027-0.001c-0.06,0.04-0.107,0.07-0.146,0.107c-0.341,0.311-0.681,0.625-1.021,0.938c-0.045,0.042-0.092,0.082-0.166,0.147
		c-0.006-0.086-0.012-0.134-0.012-0.183c-0.002-0.539,0.007-1.078-0.013-1.617c-0.011-0.292-0.074-0.584-0.117-0.876
		c-0.071-0.482-0.144-0.963-0.217-1.446c-0.014-0.095-0.027-0.191-0.047-0.284c-0.031-0.138-0.1-0.16-0.195-0.05
		c-0.102,0.114-0.194,0.239-0.275,0.369c-0.091,0.147-0.165,0.305-0.248,0.457c-0.018,0.038-0.042,0.073-0.076,0.132
		c-0.209-0.377-0.47-0.697-0.607-1.087c-0.105-0.293-0.258-0.561-0.432-0.814c-0.221-0.323-0.385-0.684-0.66-0.969
		c-0.058-0.061-0.11-0.127-0.172-0.181c-0.044-0.038-0.1-0.064-0.176-0.109c-0.004,0.001-0.01,0.001-0.013,0.002
		c-0.007,0.006-0.013,0.011-0.02,0.016v0.001c-0.006,0.659-0.079,1.272-0.211,1.92c-0.071-0.079-0.11-0.125-0.151-0.171
		c-0.273-0.307-0.537-0.623-0.821-0.919c-0.438-0.453-0.923-0.852-1.448-1.202c-0.342-0.229-0.652-0.499-0.933-0.802
		c-0.022-0.024-0.047-0.044-0.072-0.067c-0.003-0.001-0.007-0.001-0.01-0.002c0,0-0.006-0.001-0.012-0.002
		c-0.082,0.042-0.08,0.119-0.08,0.191c-0.005,0.814-0.071,1.63,0.05,2.441c0.006,0.038,0,0.076,0,0.13
		c-0.376-0.121-0.742-0.242-1.109-0.353c-0.318-0.099-0.64-0.188-0.962-0.275c-0.051-0.015-0.124-0.012-0.16,0.016
		c-0.061,0.049-0.022,0.118,0.013,0.173c0.158,0.248,0.235,0.527,0.324,0.801c0.164,0.507,0.325,1.014,0.485,1.521
		c0.021,0.066,0.034,0.134,0.058,0.234c-0.142-0.029-0.263-0.039-0.374-0.078c-0.314-0.112-0.625-0.236-0.936-0.353
		c-0.061-0.022-0.125-0.037-0.2-0.057c-0.004,0-0.01,0.001-0.014,0.001v0c0.011,0,0.007,0-0.001,0c-0.005,0-0.012,0-0.016,0.001
		c-0.006,0.004-0.01,0.007-0.015,0.01c-0.001,0-0.002,0.001-0.003,0.002c0,0.002,0,0.002,0,0.002
		c-0.001,0.003-0.002,0.003-0.002,0.004c-0.002,0.061-0.006,0.104,0.002,0.143c0.04,0.195,0.08,0.39,0.131,0.582
		c0.164,0.62,0.333,1.238,0.5,1.858c0.045,0.167,0.091,0.334,0.134,0.501c0.021,0.078,0.037,0.155,0.056,0.232
		c-0.013,0.005-0.023,0.011-0.035,0.016c-0.109-0.085-0.216-0.173-0.329-0.253c-0.351-0.249-0.702-0.495-1.055-0.738
		c-0.656-0.452-1.305-0.912-1.969-1.349c-0.55-0.362-1.109-0.714-1.682-1.043c-0.36-0.208-0.748-0.367-1.127-0.54
		c-0.091-0.042-0.195-0.067-0.294-0.082c-0.084-0.013-0.122,0.043-0.087,0.121c0.031,0.068,0.076,0.133,0.124,0.193
		c0.399,0.495,0.758,1.018,1.076,1.569c0.03,0.055,0.055,0.113,0.097,0.197c-0.064-0.032-0.103-0.051-0.14-0.071
		c-0.239-0.124-0.469-0.266-0.717-0.369c-0.585-0.245-1.177-0.477-1.771-0.702c-0.336-0.127-0.68-0.229-1.021-0.346
		c-0.146-0.05-0.287-0.111-0.434-0.16c-0.058-0.019-0.119-0.025-0.179-0.034c-0.014,0.004-0.028,0.01-0.039,0.018
		c0,0.001-0.001,0.001-0.003,0.002v0.001c-0.02,0.094,0.031,0.144,0.077,0.199c0.396,0.487,0.793,0.975,1.198,1.473
		c-0.048-0.016-0.096-0.022-0.136-0.044c-0.585-0.314-1.228-0.443-1.868-0.583c-0.866-0.188-1.729-0.383-2.595-0.574
		c-0.087-0.02-0.175-0.04-0.265-0.046c-0.039-0.003-0.098,0.017-0.113,0.045c-0.015,0.026,0.004,0.086,0.029,0.116
		c0.145,0.18,0.3,0.351,0.443,0.533c0.358,0.453,0.71,0.911,1.067,1.365c0.25,0.317,0.515,0.623,0.758,0.945
		c0.213,0.286,0.408,0.588,0.628,0.906c-0.073,0.015-0.113,0.029-0.152,0.031c-0.529,0.019-1.052,0.002-1.561-0.163
		c-0.08-0.026-0.184-0.083-0.252,0.004c-0.074,0.096,0.012,0.189,0.065,0.259c0.205,0.262,0.402,0.537,0.644,0.765
		c0.432,0.409,0.877,0.805,1.389,1.121c0.37,0.229,0.719,0.494,1.077,0.743c0.03,0.021,0.052,0.051,0.089,0.086
		c-0.323,0.147-0.629,0.29-0.937,0.428c-0.175,0.079-0.355,0.149-0.53,0.226c-0.129,0.057-0.15,0.12-0.042,0.211
		c0.162,0.135,0.335,0.259,0.516,0.368c0.382,0.234,0.766,0.468,1.163,0.678c0.339,0.179,0.697,0.325,1.045,0.485
		c0.432,0.197,0.868,0.388,1.294,0.593c0.555,0.268,1.104,0.549,1.654,0.825c0.014,0.007,0.025,0.024,0.057,0.056
		c-0.35,0.07-0.678,0.154-1.011,0.2c-0.509,0.07-1.021,0.109-1.53,0.174c-0.28,0.034-0.557,0.092-0.833,0.146
		c-0.045,0.008-0.089,0.032-0.146,0.058c0,0.001,0,0.003-0.001,0.003c-0.004,0.006-0.011,0.01-0.015,0.018
		c-0.002,0.003-0.005,0.007-0.007,0.011c0,0.001,0,0.001,0,0.001c0.001,0.008,0.001,0.017,0.001,0.023
		c0.205,0.196,0.424,0.329,0.623,0.484c0.206,0.159,0.406,0.325,0.633,0.505c-0.146,0.048-0.263,0.082-0.376,0.126
		c-0.809,0.312-1.65,0.518-2.481,0.758c-0.044,0.013-0.087,0.025-0.13,0.039c-0.125,0.045-0.154,0.141-0.053,0.228
		c0.1,0.088,0.211,0.17,0.328,0.233c0.459,0.242,0.923,0.474,1.385,0.714c0.144,0.076,0.286,0.158,0.457,0.254
		c-0.304,0.166-0.568,0.322-0.841,0.461c-0.646,0.326-1.298,0.646-1.946,0.968c-0.078,0.039-0.193,0.062-0.189,0.168
		c0.001,0.014,0.003,0.025,0.009,0.037c0.01,0.01,0.02,0.02,0.03,0.029c0.007,0.002,0.013,0.007,0.021,0.012
		c0.002,0.001,0.005,0.003,0.008,0.005c0.001,0,0.003,0,0.005,0.002c0.027,0.019,0.056,0.033,0.085,0.047
		c0.016,0.006,0.029,0.012,0.044,0.017c0.373,0.154,0.74,0.326,1.122,0.456c0.552,0.188,1.117,0.342,1.673,0.515
		c0.399,0.124,0.794,0.254,1.191,0.382c0.03,0.01,0.055,0.03,0.093,0.049c-0.058,0.051-0.102,0.095-0.151,0.133
		c-0.531,0.396-0.96,0.887-1.31,1.447c-0.089,0.145-0.049,0.229,0.122,0.208c0.273-0.031,0.549-0.075,0.813-0.146
		c0.431-0.115,0.866-0.178,1.309-0.209c0.422-0.032,0.845-0.064,1.268-0.095c0.055-0.003,0.111-0.002,0.201-0.002
		c-0.097,0.158-0.18,0.28-0.248,0.411c-0.161,0.299-0.315,0.6-0.47,0.903c-0.017,0.032-0.03,0.072-0.039,0.108
		c-0.016,0.083,0.037,0.138,0.122,0.123c0.056-0.012,0.108-0.037,0.16-0.062c0.389-0.182,0.772-0.377,1.167-0.545
		c0.762-0.324,1.508-0.68,2.245-1.057c0.165-0.084,0.328-0.17,0.515-0.267c0.01,0.088,0.023,0.155,0.026,0.225
		c0.015,0.352,0.027,0.703,0.041,1.058c0.013,0.316,0.044,0.33,0.34,0.219c0.461-0.178,0.873-0.433,1.266-0.727
		c0.116-0.085,0.242-0.158,0.372-0.242c0.173,0.431,0.168,0.883,0.369,1.274c0.007,0.014,0.028,0.021,0.06,0.042h0.001
		c0.003,0,0.004,0.002,0.007,0.002c0.082-0.054,0.177-0.106,0.257-0.173c0.254-0.217,0.503-0.44,0.754-0.66
		c0.477-0.419,0.956-0.838,1.434-1.257c0.023-0.02,0.049-0.036,0.083-0.062c0.121,0.075,0.195,0.187,0.272,0.295
		c0.232,0.321,0.465,0.645,0.701,0.966c0.09,0.12,0.153,0.111,0.226-0.022c0.015-0.028,0.028-0.056,0.042-0.086
		c0.311-0.69,0.622-1.378,0.931-2.069c0.175-0.392,0.341-0.789,0.514-1.181c0.15-0.343,0.251-0.7,0.338-1.062
		c0.063-0.256,0.14-0.506,0.215-0.758c0.071-0.241,0.142-0.48,0.217-0.719c0.006-0.02,0.02-0.035,0.03-0.055l0.105,0.051
		c0.578,0.384,1.158,0.762,1.739,1.141c0.43,0.281,0.861,0.562,1.29,0.845c0.567,0.373,1.134,0.75,1.699,1.125
		c1.096,0.729,2.23,1.481,3.357,2.202c1.109,0.712,2.22,1.523,3.392,2.479c2.062,1.684,3.018,3.721,2.923,6.232
		c-0.021,0.547-0.017,1.104-0.012,1.642c0.002,0.31,0.005,0.618,0.003,0.928c-0.001,0.206-0.009,0.416-0.018,0.618
		c-0.006,0.132-0.012,0.265-0.014,0.396c-0.003,0.125-0.009,0.249-0.013,0.374c-0.013,0.322-0.025,0.656-0.01,0.983
		c0.019,0.428,0.329,0.715,0.771,0.715c0.118,0,0.236-0.021,0.354-0.062c0.159-0.057,0.338-0.121,0.496-0.223
		c0.336-0.216,0.393-0.44,0.196-0.773c-0.195-0.333-0.379-0.685-0.408-0.997c-0.019-0.193-0.031-0.387-0.043-0.579
		c-0.01-0.146-0.019-0.29-0.031-0.434l-0.006-0.077c-0.084-1.053-0.136-1.689,0.24-2.719c0.015-0.038,0.003-0.08-0.146-0.438
		c-0.043-0.104-0.098-0.232-0.103-0.251c0.009-0.813,0.248-1.62,0.751-2.537c0.277-0.504,0.585-0.934,0.943-1.312
		c1.053-1.117,2.305-2.032,3.41-2.839c2.039-1.487,4.238-2.799,6.365-4.067l0.492-0.293c0.313-0.188,0.628-0.374,0.942-0.56
		c0.58-0.343,1.178-0.697,1.764-1.053c0.083-0.052,0.147-0.096,0.196-0.136l0.04-0.037c0.044,0.143,0.087,0.287,0.13,0.43
		c0.074,0.252,0.152,0.502,0.215,0.758c0.086,0.362,0.189,0.72,0.338,1.062c0.172,0.392,0.338,0.789,0.513,1.181
		c0.308,0.691,0.621,1.379,0.932,2.069c0.014,0.03,0.027,0.058,0.041,0.086c0.074,0.134,0.137,0.143,0.226,0.022
		c0.238-0.321,0.47-0.645,0.701-0.966c0.078-0.108,0.151-0.22,0.273-0.295c0.033,0.025,0.06,0.042,0.084,0.062
		c0.478,0.419,0.955,0.838,1.433,1.257c0.251,0.22,0.499,0.443,0.754,0.66c0.081,0.066,0.175,0.119,0.256,0.173
		c0.004,0,0.006-0.002,0.009-0.002l0,0c0.033-0.021,0.054-0.028,0.062-0.042c0.201-0.392,0.197-0.844,0.368-1.274
		c0.131,0.084,0.256,0.157,0.373,0.242c0.392,0.294,0.806,0.549,1.266,0.727c0.296,0.111,0.327,0.098,0.338-0.219
		c0.016-0.354,0.027-0.706,0.042-1.058c0.003-0.069,0.017-0.137,0.027-0.225c0.186,0.097,0.349,0.183,0.515,0.267
		c0.737,0.377,1.481,0.732,2.245,1.057c0.396,0.168,0.779,0.363,1.167,0.545c0.053,0.024,0.105,0.05,0.162,0.062
		c0.083,0.015,0.137-0.04,0.122-0.123c-0.009-0.036-0.021-0.076-0.039-0.108c-0.155-0.304-0.311-0.604-0.469-0.903
		c-0.07-0.131-0.152-0.253-0.249-0.411c0.088,0,0.144-0.001,0.201,0.002c0.422,0.03,0.845,0.062,1.268,0.095
		c0.441,0.031,0.878,0.094,1.309,0.209c0.266,0.07,0.54,0.114,0.812,0.146c0.171,0.021,0.213-0.063,0.122-0.208
		c-0.349-0.561-0.776-1.052-1.309-1.447c-0.049-0.038-0.093-0.082-0.15-0.133c0.036-0.019,0.063-0.039,0.091-0.049
		c0.396-0.128,0.793-0.258,1.191-0.382c0.557-0.173,1.122-0.326,1.673-0.515c0.381-0.13,0.75-0.302,1.123-0.456
		c0.014-0.005,0.029-0.011,0.044-0.017c0.028-0.014,0.058-0.028,0.085-0.047c0-0.002,0.002-0.002,0.003-0.002
		c0.003-0.002,0.007-0.004,0.009-0.005c0.008-0.005,0.013-0.01,0.02-0.012c0.01-0.01,0.02-0.02,0.029-0.029
		c0.005-0.012,0.009-0.023,0.01-0.037c0.003-0.105-0.111-0.129-0.189-0.168c-0.648-0.322-1.3-0.642-1.947-0.968
		c-0.272-0.139-0.536-0.295-0.842-0.461c0.173-0.096,0.313-0.178,0.458-0.254c0.46-0.24,0.924-0.472,1.383-0.714
		c0.119-0.063,0.229-0.146,0.33-0.233c0.101-0.087,0.072-0.183-0.053-0.228c-0.042-0.014-0.086-0.026-0.13-0.039
		c-0.832-0.24-1.673-0.445-2.482-0.758c-0.113-0.044-0.23-0.078-0.376-0.126c0.225-0.18,0.428-0.346,0.633-0.505
		c0.2-0.155,0.417-0.288,0.625-0.484c-0.001-0.007-0.001-0.016,0-0.023c0,0,0,0,0-0.001c-0.003-0.004-0.005-0.008-0.007-0.011
		c-0.006-0.008-0.011-0.012-0.016-0.018c-0.001,0-0.001-0.002-0.002-0.003c-0.056-0.025-0.1-0.05-0.144-0.058
		c-0.277-0.054-0.554-0.111-0.833-0.146c-0.509-0.064-1.021-0.104-1.531-0.174c-0.333-0.046-0.661-0.13-1.01-0.2
		c0.031-0.031,0.042-0.049,0.058-0.056c0.549-0.276,1.098-0.558,1.651-0.825c0.427-0.205,0.863-0.396,1.295-0.593
		c0.348-0.16,0.706-0.307,1.044-0.485c0.396-0.21,0.779-0.443,1.163-0.678c0.179-0.109,0.353-0.233,0.516-0.368
		c0.108-0.091,0.087-0.154-0.042-0.211c-0.176-0.076-0.355-0.146-0.53-0.226c-0.308-0.138-0.614-0.28-0.939-0.428
		c0.037-0.035,0.061-0.065,0.09-0.086c0.357-0.249,0.707-0.514,1.077-0.743c0.511-0.316,0.957-0.712,1.39-1.121
		c0.24-0.228,0.437-0.503,0.642-0.765c0.055-0.07,0.141-0.164,0.065-0.259c-0.067-0.088-0.171-0.031-0.25-0.004
		c-0.51,0.165-1.034,0.182-1.562,0.163c-0.041-0.001-0.08-0.016-0.152-0.031c0.22-0.318,0.413-0.62,0.626-0.906
		c0.245-0.322,0.509-0.628,0.759-0.945c0.358-0.454,0.709-0.912,1.067-1.365c0.143-0.182,0.297-0.354,0.442-0.533
		c0.024-0.03,0.042-0.09,0.03-0.116C82.429,40.583,82.369,40.564,82.332,40.567z"/>
	<g>
		<path fill="#FFFFFF" d="M56.452,34.046c-0.002-0.006-0.006-0.01-0.012-0.013c-0.005-0.002-0.01-0.002-0.016,0l-0.039,0.015
			c-0.787,0.299-1.589,0.445-2.456,0.445c-0.371,0-0.758-0.028-1.151-0.083l0.191-0.156c0.361-0.292,0.733-0.593,1.131-0.849
			c0.43-0.276,0.81-0.625,1.177-0.962l0.255-0.233c0.129-0.118,0.262-0.239,0.387-0.365c0.091-0.09,0.178-0.188,0.254-0.275
			l0.107-0.119c0.003-0.004,0.006-0.011,0.006-0.017l-0.006-0.063c0-0.002-0.001-0.006-0.002-0.008l-0.013-0.024
			c-0.002-0.004-0.004-0.007-0.009-0.01l-0.045-0.022c-0.003-0.002-0.008-0.004-0.011-0.002l-0.025,0.003
			c-0.032,0-0.074,0-0.107,0.025c-0.059,0.042-0.114,0.092-0.167,0.139l-0.444,0.393c-0.303,0.267-0.616,0.544-0.928,0.812
			c-0.068,0.058-0.145,0.108-0.223,0.158c-0.055,0.035-0.114,0.073-0.168,0.115l-1.369,1.031c-0.069,0.05-0.139,0.1-0.213,0.152
			l-0.084,0.058c-0.009-0.022-0.018-0.042-0.021-0.059c-0.018-0.096-0.027-0.181-0.032-0.26c-0.036-0.545-0.061-1.131-0.009-1.72
			c0.013-0.137,0.018-0.273,0.022-0.387c0-0.032-0.007-0.061-0.022-0.116c-0.001-0.004-0.003-0.009-0.008-0.012l-0.045-0.033
			c-0.003-0.001-0.006-0.003-0.011-0.004l-0.026-0.004c-0.006-0.003-0.013,0-0.018,0.005l-0.05,0.045
			c-0.002,0.002-0.005,0.005-0.006,0.009l-0.011,0.03c-0.016,0.042-0.031,0.083-0.04,0.129c-0.067,0.437-0.126,0.865-0.102,1.314
			c0.01,0.181,0.004,0.367-0.001,0.546c-0.003,0.102-0.004,0.191-0.005,0.324c-0.001,0.088-0.002,0.179,0.009,0.268
			c0.012,0.089-0.017,0.138-0.119,0.206c-0.729,0.476-1.481,0.968-2.261,1.385c-0.075,0.04-0.147,0.083-0.233,0.132l-0.033,0.02
			c0.001-0.042,0.003-0.076,0.012-0.106l0.02-0.078c0.085-0.329,0.163-0.625,0.25-0.924c0.084-0.284,0.174-0.566,0.261-0.839
			l0.113-0.358c0.017-0.057,0.036-0.122,0.016-0.211c-0.001-0.003-0.003-0.008-0.007-0.011l-0.042-0.04
			c-0.009-0.009-0.022-0.008-0.031,0l-0.049,0.052c-0.018,0.019-0.042,0.044-0.058,0.075c-0.262,0.543-0.477,1.146-0.675,1.894
			c-0.055,0.212-0.109,0.433-0.161,0.676c-0.013,0.061-0.039,0.098-0.087,0.128l-0.25,0.161c-0.098,0.063-0.2,0.129-0.301,0.191
			c-0.601,0.368-1.235,0.668-1.722,0.888l-0.136,0.065c0.002-0.049,0.084-1.574,0.104-1.977c0.005-0.095,0.044-0.165,0.136-0.246
			c0.483-0.419,1.038-0.916,1.507-1.498c0.1-0.125,0.106-0.139,0.136-0.307c0-0.006-0.001-0.013-0.005-0.018l-0.038-0.045
			c-0.006-0.006-0.015-0.008-0.022-0.007l-0.06,0.016c-0.033,0.009-0.068,0.018-0.094,0.045l-0.381,0.382l-0.015,0.016
			c-0.195,0.196-0.396,0.399-0.598,0.594c-0.134,0.13-0.28,0.253-0.411,0.364l-0.125,0.131l0.016-0.645l0.004-0.166
			c0.007-0.335,0.013-0.67,0.022-1.004c0.002-0.067,0.018-0.129,0.04-0.166c0.147-0.224,0.305-0.45,0.444-0.649
			c0,0,0.234-0.332,0.309-0.434l0.01-0.015c0.147-0.202,0.298-0.411,0.433-0.626c0.228-0.365,0.455-0.765,0.696-1.224
			c0.284-0.536,0.454-1.124,0.592-1.679l0.026-0.098c0.013-0.049,0.026-0.1,0.035-0.15c0.006-0.038,0.002-0.074-0.006-0.151
			c-0.001-0.005-0.004-0.011-0.008-0.014l-0.047-0.041c-0.002-0.001-0.004-0.002-0.007-0.003l-0.025-0.008
			c-0.004-0.002-0.01-0.002-0.015,0l-0.052,0.023c-0.002,0.001-0.006,0.003-0.008,0.005L49.179,28
			c-0.023,0.026-0.051,0.056-0.065,0.095c-0.051,0.143-0.097,0.293-0.137,0.425c-0.146,0.487-0.356,1.121-0.703,1.707
			c-0.09,0.15-0.177,0.303-0.261,0.452l-0.024,0.043c-0.148,0.258-0.3,0.526-0.463,0.78c-0.153,0.239-0.331,0.47-0.504,0.696
			l-0.198,0.261c-0.02,0.026-0.042,0.048-0.071,0.076v-0.037c-0.003-0.082-0.005-0.153-0.005-0.225l0.001-0.486
			c0.002-0.314,0.004-0.639-0.007-0.958c-0.018-0.541-0.05-1.088-0.1-1.672c-0.015-0.195,0.026-0.364,0.135-0.547
			c0.261-0.442,0.481-0.906,0.658-1.379c0.158-0.416,0.333-0.91,0.43-1.428c0.02-0.105,0.038-0.212,0.055-0.315l0.004-0.029
			l-0.002-0.165c0-0.008-0.005-0.017-0.013-0.02c-0.03-0.013-0.056-0.019-0.081-0.019c-0.091,0-0.116,0.084-0.126,0.12
			c-0.001,0.005-0.124,0.419-0.155,0.515c-0.042,0.132-0.083,0.265-0.125,0.397l-0.004,0.012c-0.101,0.322-0.205,0.657-0.333,0.974
			c-0.103,0.252-0.237,0.5-0.367,0.739l-0.005,0.008c-0.044,0.083-0.091,0.167-0.123,0.255c-0.005-0.028-0.01-0.056-0.011-0.087
			l-0.004-0.088c-0.021-0.378-0.042-0.769-0.061-1.154l-0.046-1.098c-0.023-0.565-0.047-1.151-0.075-1.727
			c-0.023-0.497-0.053-1.001-0.082-1.488l-0.029-0.492c-0.001-0.038-0.007-0.077-0.013-0.116l-0.014-0.107
			c-0.001-0.007-0.005-0.012-0.01-0.015c-0.005-0.004-0.011-0.004-0.018-0.003l-0.042,0.01c-0.16,0.041-0.163,0.171-0.165,0.22
			c-0.004,0.145-0.008,0.314-0.003,0.485l0.01,0.346l0.001,0.005c0.037,1.227,0.076,2.496,0.124,3.743
			c0.011,0.295,0.038,0.595,0.064,0.884c0.013,0.147,0.026,0.294,0.038,0.441c0.006,0.066,0.011,0.136,0.007,0.208l-0.043-0.045
			c-0.094-0.098-0.191-0.199-0.279-0.309c-0.169-0.211-0.344-0.431-0.465-0.684c-0.251-0.528-0.507-1.057-0.769-1.596l-0.152-0.3
			c-0.003-0.008-0.011-0.012-0.02-0.012c-0.01-0.001-0.015,0.005-0.019,0.013l-0.033,0.074l-0.032,0.065
			c-0.021,0.039-0.039,0.073-0.03,0.113c0.018,0.09,0.046,0.18,0.084,0.267l0.13,0.303l0.003,0.008
			c0.136,0.316,0.277,0.644,0.429,0.959c0.309,0.636,0.626,1.112,1.003,1.499c0.129,0.131,0.195,0.278,0.221,0.49
			c0.042,0.349,0.042,0.702,0.041,1.045c-0.001,0.198-0.001,0.421,0.008,0.641c0.018,0.439,0.026,0.885,0.033,1.28l0.013,0.585
			c0,0.027,0,0.054-0.001,0.078c-0.675-0.869-1.167-1.572-1.589-2.272c-0.553-0.915-0.975-1.878-1.282-2.616l-0.018-0.042
			c-0.002-0.006-0.007-0.01-0.013-0.012c-0.006-0.002-0.013-0.001-0.018,0.002l-0.039,0.024c-0.155,0.096-0.11,0.222-0.086,0.289
			l0.046,0.133c0.056,0.162,0.112,0.329,0.188,0.485c0.223,0.466,0.465,0.947,0.717,1.43c0.405,0.774,0.911,1.565,1.591,2.488
			c0.045,0.061,0.091,0.121,0.138,0.18l0.007,0.011c0.076,0.097,0.152,0.197,0.221,0.301c0.046,0.07,0.103,0.172,0.104,0.264
			c0.007,0.421,0.002,0.849-0.001,1.262l-0.002,0.276c0,0.017-0.002,0.033-0.005,0.052l-0.126-0.108
			c-0.15-0.128-0.29-0.249-0.425-0.377c-0.251-0.241-0.499-0.483-0.75-0.729l-0.463-0.453c-0.036-0.034-0.076-0.06-0.118-0.087
			c-0.002-0.001-0.003-0.002-0.006-0.002l-0.102-0.029c-0.007-0.002-0.015,0-0.021,0.006l-0.06,0.062
			c-0.007,0.007-0.008,0.02-0.002,0.028l0.057,0.076c0.027,0.039,0.055,0.078,0.087,0.111l1.827,1.93
			c0.058,0.06,0.083,0.124,0.079,0.198l-0.046,0.909l-0.082,1.241c-0.017-0.004-0.032-0.01-0.044-0.017
			c-0.619-0.323-1.437-0.749-2.267-1.185c-0.096-0.051-0.191-0.104-0.288-0.16l-0.012-0.007c-0.115-0.065-0.236-0.133-0.357-0.195
			c-0.142-0.072-0.209-0.174-0.226-0.342c-0.054-0.53-0.118-1.052-0.189-1.549c-0.033-0.229-0.082-0.458-0.127-0.681l-0.058-0.284
			c-0.016-0.077-0.036-0.181-0.182-0.229c-0.006-0.002-0.013-0.002-0.019,0.001c-0.096,0.06-0.078,0.144-0.062,0.219l0.205,2.028
			c0.01,0.101,0.012,0.205,0.016,0.307l0.002,0.076l-0.267-0.174c-0.382-0.247-0.776-0.503-1.162-0.758
			c-0.112-0.075-0.223-0.153-0.335-0.234l-0.035-0.023c-0.075-0.054-0.152-0.108-0.229-0.161c-0.042-0.029-0.047-0.067-0.06-0.162
			l-0.045-0.28c-0.101-0.631-0.207-1.282-0.321-1.921c-0.029-0.16-0.082-0.316-0.133-0.468l-0.05-0.149
			c-0.012-0.038-0.033-0.069-0.077-0.131l-0.005-0.007c-0.004-0.004-0.007-0.007-0.013-0.008l-0.057-0.015
			c-0.003-0.001-0.007-0.001-0.01,0l-0.027,0.007c-0.006,0.002-0.011,0.006-0.014,0.011l-0.029,0.057
			c-0.001,0.003-0.001,0.006-0.002,0.009l-0.001,0.029c-0.003,0.039-0.004,0.082,0.007,0.125c0.116,0.447,0.181,0.912,0.243,1.363
			l0.002,0.015c0.039,0.28,0.08,0.572,0.133,0.855c0.017,0.093,0.021,0.188,0.026,0.297v0.005l0.003,0.051
			c-0.107-0.073-0.205-0.15-0.3-0.225c-0.095-0.075-0.173-0.136-0.257-0.195c-0.222-0.152-0.437-0.311-0.639-0.46
			c-0.216-0.159-0.434-0.324-0.645-0.485l-0.143-0.108c-0.168-0.128-0.335-0.253-0.497-0.382c-0.221-0.174-0.433-0.35-0.609-0.499
			c-0.184-0.154-0.376-0.312-0.644-0.523l-0.058-0.045c-0.005-0.006-0.014-0.007-0.021-0.003c-0.008,0.004-0.013,0.01-0.014,0.018
			l-0.006,0.074c-0.012,0.154,0.066,0.219,0.134,0.275l0.194,0.167c0.415,0.356,0.762,0.653,1.125,0.953
			c0.426,0.351,0.862,0.703,1.284,1.043l0.73,0.593l-0.229,0.015c-0.266,0.018-0.518,0.035-0.773,0.04l-0.175,0.002
			c-0.222,0-0.447-0.007-0.665-0.015l-0.253-0.008c-0.168-0.005-0.34-0.021-0.493-0.035c-0.196-0.017-0.398-0.035-0.603-0.035
			c-0.002,0-0.006,0-0.009,0.002l-0.035,0.016c-0.007,0.003-0.011,0.009-0.013,0.015l-0.019,0.099
			c-0.002,0.01,0.004,0.021,0.013,0.024l0.086,0.031c0.042,0.017,0.083,0.032,0.126,0.039c0.659,0.102,1.362,0.163,2.211,0.193
			c0.061,0.002,0.121,0.004,0.181,0.004c0.233,0,0.471-0.015,0.682-0.027l0.299-0.017c0.067,0,0.12,0.019,0.186,0.062
			c0.306,0.21,0.619,0.421,0.921,0.624l0.596,0.399l0.722,0.509c-0.009,0.011-0.018,0.019-0.026,0.023
			c-0.26,0.146-0.544,0.292-0.865,0.375c-0.581,0.15-1.182,0.208-1.764,0.264l-0.151,0.016c-0.139,0.013-0.152,0.014-0.275,0.083
			l-0.037,0.02c-0.005,0.002-0.008,0.008-0.009,0.014c-0.002,0.006-0.001,0.012,0.002,0.017l0.022,0.035
			c0.053,0.083,0.132,0.094,0.196,0.094c0.012,0,0.021-0.009,0.021-0.022l0.028,0.017c0.003,0.002,0.008,0.003,0.011,0.003
			c0.117,0.005,0.233,0.006,0.345,0.006c0.448,0,0.833-0.034,1.182-0.108c0.364-0.075,0.641-0.145,0.9-0.226
			c0.222-0.069,0.439-0.165,0.65-0.259l0.069-0.03c0.055-0.024,0.092-0.034,0.126-0.034c0.033,0,0.067,0.01,0.105,0.031
			c0.478,0.266,0.98,0.534,1.492,0.799c0.307,0.158,0.615,0.309,0.913,0.455l0.353,0.173c-0.008,0.004-0.015,0.008-0.024,0.011
			l-0.355,0.146c-0.404,0.166-0.863,0.355-1.32,0.536c-0.192,0.076-0.392,0.131-0.579,0.181c-0.047,0.013-0.117,0.009-0.169-0.01
			c-0.217-0.077-0.438-0.158-0.631-0.23l-0.021-0.007c-0.213-0.078-0.435-0.16-0.652-0.236c-0.218-0.078-0.445-0.144-0.665-0.209
			c-0.068-0.019-0.144-0.021-0.232-0.006l-0.084,0.015c-0.008,0.001-0.015,0.008-0.016,0.016c-0.002,0.008,0,0.017,0.007,0.022
			l0.065,0.053c0.201,0.168,0.435,0.26,0.662,0.349l0.019,0.008c0.062,0.025,0.124,0.048,0.184,0.074
			c0.203,0.087,0.413,0.171,0.616,0.252l0.171,0.07c-0.001,0-0.003,0.001-0.005,0.001l-0.176,0.061
			c-0.175,0.06-0.355,0.123-0.535,0.179c-0.156,0.048-0.318,0.095-0.46,0.136l-0.039,0.011c-0.133,0.038-0.27,0.078-0.404,0.119
			c-0.365,0.113-0.736,0.233-1.082,0.346c-0.045,0.015-0.083,0.037-0.125,0.061l-0.048,0.028c-0.005,0.003-0.008,0.007-0.01,0.012
			l-0.02,0.057c0,0.003-0.001,0.005-0.001,0.008l0.001,0.024c0,0.005,0.002,0.009,0.006,0.014l0.036,0.038
			c0.002,0.002,0.004,0.004,0.008,0.006l0.025,0.009c0.026,0.01,0.058,0.022,0.094,0.022c0.045,0,0.085-0.011,0.148-0.028
			l2.604-0.685l0.098-0.022c-0.005,0.011-0.01,0.021-0.016,0.027c-0.291,0.375-0.514,0.66-0.724,0.921
			c-0.062,0.078-0.13,0.155-0.196,0.231c-0.058,0.067-0.12,0.137-0.19,0.223c-0.048,0.059-0.131,0.156-0.019,0.3l0.025,0.032
			c0.004,0.005,0.01,0.008,0.016,0.009c0.003,0.002,0.011-0.001,0.015-0.005l0.099-0.084c0.053-0.044,0.103-0.085,0.149-0.134
			l0.107-0.115c0.215-0.23,0.437-0.467,0.647-0.709c0.203-0.234,0.396-0.486,0.566-0.709c0.048-0.064,0.106-0.105,0.186-0.134
			l0.267-0.095c0.441-0.159,0.897-0.321,1.343-0.492c0.226-0.086,0.451-0.185,0.668-0.281l0.307-0.134
			c0.012-0.005,0.025-0.01,0.048-0.018c0.025,0.298,0.035,0.602,0.044,0.895v0.013c0.014,0.478,0.019,1.367,0.101,1.867l0.014,0.082
			c0.001,0.009,0.007,0.016,0.016,0.018c0.008,0.001,0.017-0.001,0.022-0.007l0.053-0.063l0.04-0.042
			c0.03-0.028,0.057-0.055,0.065-0.094l0.016-0.072c0.026-0.116,0.052-0.236,0.049-0.357c-0.003-0.322-0.004-1.045-0.015-1.361
			l-0.019-0.573c-0.001-0.04,0-0.079,0.002-0.134v-0.001L46.6,38.38c0.052,0.019,0.099,0.035,0.142,0.056l1.675,0.826l0.073,0.03
			c0.255,0.089,0.255,0.089,0.318,0.212c0.022,0.044,0.056,0.111,0.113,0.205c0.255,0.424,0.52,0.85,0.752,1.227L50,41.463
			c0.021,0.033,0.058,0.093,0.131,0.093c0.001,0,0.002,0,0.003,0l0.092-0.015c0.011-0.002,0.019-0.011,0.018-0.022l-0.002-0.042
			c-0.011-0.171-0.086-0.317-0.168-0.449c-0.087-0.146-0.179-0.29-0.268-0.431l-0.252-0.402c-0.086-0.137-0.312-0.507-0.381-0.622
			c0.024,0.004,0.051,0.015,0.096,0.032l0.25,0.089c0.184,0.065,0.376,0.133,0.558,0.209c0.607,0.254,1.246,0.441,1.863,0.623
			l0.531,0.157c0.005,0.001,0.012,0.001,0.017-0.002c0.006-0.003,0.009-0.008,0.01-0.014l0.009-0.042
			c0.03-0.158-0.078-0.195-0.142-0.218c-0.005-0.002-0.68-0.256-0.917-0.347l-1.541-0.604c-0.062-0.024-0.335-0.12-0.346-0.124
			c-0.026-0.01-0.052-0.021-0.084-0.035c0.113-0.041,0.222-0.068,0.331-0.094c0.071-0.017,0.151-0.037,0.227-0.061
			c0.083-0.025,0.167-0.048,0.251-0.072c0.137-0.039,0.279-0.079,0.416-0.126c0.083-0.028,0.17-0.049,0.253-0.069l0.008-0.002
			c0.132-0.031,0.268-0.064,0.396-0.125c0.004-0.002,0.008-0.007,0.01-0.012l0.021-0.059c0-0.003,0.001-0.006,0.001-0.008
			l-0.001-0.025c0-0.006-0.002-0.011-0.007-0.016l-0.042-0.038c-0.003-0.002-0.006-0.005-0.011-0.005l-0.031-0.007
			c-0.02-0.004-0.043-0.008-0.084-0.008c-0.01,0-0.022,0-0.039,0.001c-0.128,0.018-0.262,0.037-0.392,0.069
			c-0.327,0.085-0.644,0.171-0.996,0.266l-0.331,0.09c-0.259,0.099-0.498,0.093-0.789-0.023c-0.673-0.271-1.325-0.607-1.934-0.929
			c-0.017-0.008-0.029-0.017-0.04-0.028l0.344-0.183c0.213-0.113,0.435-0.23,0.65-0.351c0.423-0.238,0.807-0.456,1.22-0.717
			c0.221-0.139,0.312-0.196,0.43-0.196c0.09,0,0.211,0.034,0.402,0.089l0.41,0.124c0.321,0.097,0.651,0.197,0.98,0.276
			c0.643,0.153,1.174,0.224,1.669,0.224c0.12,0,0.238-0.004,0.351-0.013c0.242-0.017,0.429-0.063,0.608-0.149l0.051-0.024
			c0.006-0.003,0.01-0.009,0.011-0.016c0.002-0.007-0.001-0.015-0.006-0.02l-0.04-0.039c-0.051-0.048-0.106-0.069-0.175-0.069
			c-0.023,0-0.046,0.002-0.082,0.007c-0.17,0.02-0.349,0.029-0.536,0.029c-0.341,0-0.7-0.033-1.13-0.106
			c-0.693-0.119-1.372-0.332-2.029-0.539l-0.063-0.02c-0.038-0.011-0.074-0.029-0.113-0.047c0.019-0.013,0.042-0.029,0.054-0.038
			l0.687-0.406c0.525-0.311,1.069-0.632,1.594-0.963c0.175-0.111,0.333-0.16,0.512-0.16c0.06,0,0.123,0.005,0.193,0.016
			c0.375,0.057,0.75,0.086,1.115,0.086c0.75,0,1.481-0.123,2.177-0.365c0.107-0.037,0.208-0.089,0.308-0.14l0.083-0.042
			c0.031-0.016,0.051-0.039,0.085-0.077l0.004-0.004c0.003-0.003,0.005-0.008,0.005-0.013l0.004-0.055c0-0.003,0-0.005-0.001-0.008
			L56.452,34.046z M50.959,38.852L50.959,38.852L50.959,38.852L50.959,38.852z"/>
		<path fill="#FFFFFF" d="M78.767,43.092c-0.002-0.007-0.007-0.012-0.014-0.014l-0.062-0.021c-0.006-0.001-0.01-0.001-0.015,0.001
			l-0.04,0.018c-0.042,0.019-0.081,0.036-0.116,0.056l-0.391,0.213c-0.5,0.273-0.917,0.501-1.346,0.743
			c-0.461,0.26-0.932,0.527-1.383,0.786l-1.075,0.61c-0.331,0.188-0.668,0.374-0.998,0.557l-0.095,0.052
			c-0.017,0.009-0.036,0.018-0.054,0.026c0.043-0.075,0.085-0.151,0.126-0.225c0.135-0.242,0.275-0.491,0.439-0.72
			c0.204-0.283,0.437-0.553,0.662-0.815l0.266-0.31c0.071-0.085,0.146-0.17,0.22-0.252l0.133-0.152
			c0.022-0.024,0.059-0.066,0.052-0.123c-0.007-0.051-0.046-0.083-0.131-0.106c-0.007-0.002-0.014,0-0.02,0.005l-0.121,0.107
			l-0.009,0.008c-0.072,0.065-0.147,0.131-0.22,0.198c-0.38,0.351-0.696,0.746-0.983,1.121c-0.307,0.404-0.583,0.838-0.819,1.292
			c-0.097,0.189-0.218,0.314-0.392,0.404c-0.524,0.271-1.006,0.534-1.469,0.804c-0.274,0.159-0.543,0.33-0.802,0.494
			c-0.142,0.091-0.283,0.181-0.426,0.269c-0.07,0.043-0.142,0.084-0.224,0.132c0.007-0.035,0.014-0.068,0.026-0.099l0.111-0.3
			l0.003-0.008c0.098-0.265,0.199-0.537,0.322-0.796c0.132-0.279,0.281-0.557,0.426-0.826c0.08-0.148,0.171-0.316,0.257-0.484
			c0.312-0.602,0.737-1.12,1.073-1.502c0.086-0.098,0.188-0.215,0.287-0.341c0.026-0.032,0.037-0.067,0.059-0.143
			c0.001-0.006,0.001-0.011-0.001-0.016l-0.027-0.057c-0.002-0.002-0.003-0.005-0.006-0.006l-0.02-0.018
			c-0.004-0.004-0.011-0.006-0.015-0.006L71.9,43.65c-0.002,0-0.005,0-0.009,0.002l-0.022,0.011c-0.03,0.014-0.066,0.03-0.094,0.056
			c-0.047,0.042-0.09,0.087-0.133,0.135l-0.045,0.049c-0.396,0.411-0.804,0.864-1.108,1.393c-0.262,0.451-0.48,0.857-0.667,1.242
			c-0.117,0.238-0.216,0.485-0.312,0.725c-0.046,0.111-0.194,0.467-0.196,0.47l-0.007,0.02c-0.101,0.233-0.203,0.477-0.311,0.712
			c-0.019,0.041-0.06,0.085-0.118,0.123c-0.346,0.229-0.701,0.462-1.015,0.667l-0.47,0.31c-0.001,0.002-0.002,0.002-0.005,0.005
			l-0.006,0.009l0.025-0.171c0.026-0.178,0.052-0.36,0.09-0.537c0.061-0.29,0.13-0.583,0.196-0.865l0.117-0.503
			c0.008-0.037-0.001-0.07-0.024-0.151l-0.024-0.057c-0.002-0.007-0.008-0.012-0.015-0.014c-0.007-0.001-0.015,0-0.019,0.005
			l-0.051,0.045c-0.117,0.104-0.125,0.117-0.178,0.27c-0.241,0.693-0.37,1.433-0.47,2.071c-0.019,0.12-0.056,0.189-0.135,0.245
			c-0.338,0.235-1.608,1.13-1.616,1.137l-0.005,0.002c-0.005-0.041-0.013-0.113-0.018-0.151c-0.071-0.522-0.153-1.215-0.161-1.93
			c-0.002-0.126,0-0.256,0.003-0.38l0.002-0.274c0-0.057,0.017-0.098,0.062-0.143c0.146-0.143,0.319-0.313,0.488-0.493
			c0.527-0.564,0.924-1.066,1.246-1.579c0.018-0.028,0.025-0.058,0.041-0.116l0.026-0.083c0.002-0.008,0-0.017-0.006-0.022
			s-0.015-0.007-0.022-0.005l-0.074,0.027c-0.087,0.031-0.136,0.086-0.171,0.127l-0.287,0.338c-0.17,0.203-0.347,0.411-0.527,0.613
			c-0.221,0.25-0.45,0.492-0.706,0.761c-0.021,0.023-0.049,0.044-0.083,0.067l-0.003-0.102c-0.002-0.072-0.005-0.139-0.008-0.205
			c-0.06-0.861-0.043-1.738-0.029-2.585l0.002-0.086c0.003-0.105,0.032-0.155,0.11-0.19c0.083-0.038,0.162-0.089,0.273-0.16
			c0.078-0.049,0.156-0.102,0.232-0.153c0.149-0.1,0.301-0.203,0.459-0.29c0.396-0.218,0.74-0.507,1.06-0.784
			c0.034-0.029,0.06-0.064,0.112-0.134l0.009-0.011c0.003-0.005,0.004-0.011,0.003-0.017l-0.012-0.058
			c0-0.004-0.001-0.007-0.003-0.01l-0.02-0.024c-0.003-0.005-0.009-0.007-0.014-0.008l-0.047-0.005c-0.004,0-0.007,0-0.01,0
			l-0.022,0.007c-0.026,0.008-0.054,0.017-0.079,0.035c-0.088,0.061-0.206,0.14-0.317,0.224c-0.462,0.351-0.976,0.644-1.461,0.907
			c-0.072,0.039-0.15,0.075-0.237,0.11c-0.016,0.006-0.034,0.01-0.062,0.013c0.003-0.076,0.016-0.292,0.021-0.363l0.147-1.708
			c0.004-0.066,0.005-0.134,0.007-0.2v-0.011c0.001-0.087,0.003-0.178,0.017-0.266c0.066-0.431,0.138-0.867,0.208-1.289l0.084-0.505
			c0.013-0.073,0.026-0.148,0.032-0.223c0.002-0.041-0.018-0.075-0.052-0.132c-0.001-0.003-0.002-0.005-0.005-0.006l-0.026-0.022
			c-0.004-0.004-0.011-0.005-0.016-0.006l-0.087,0.004c-0.008,0-0.017,0.006-0.019,0.016l-0.047,0.161
			c-0.037,0.125-0.074,0.252-0.104,0.381c-0.045,0.194-0.08,0.39-0.122,0.617l-0.042,0.232c-0.091,0.495-0.185,1.006-0.191,1.52
			c-0.007,0.476-0.065,0.955-0.12,1.417l-0.03,0.237c-0.849-1.012-1.374-2.075-1.609-3.25c-0.001-0.006-0.003-0.011-0.008-0.014
			l-0.046-0.031c-0.006-0.003-0.011-0.004-0.018-0.003l-0.039,0.009c-0.004,0.001-0.008,0.003-0.011,0.007l-0.03,0.034
			c-0.002,0.002-0.003,0.005-0.005,0.007l-0.006,0.022c-0.008,0.026-0.019,0.058-0.015,0.092l0.008,0.09
			c0.008,0.113,0.018,0.228,0.042,0.338c0.246,1.069,0.754,2.058,1.512,2.938c0.185,0.212,0.255,0.402,0.253,0.674
			c-0.002,0.64,0.015,1.294,0.03,1.871l0.019,0.788c0.001,0.021,0,0.042-0.002,0.066c-0.038-0.025-0.073-0.048-0.137-0.102
			c-0.528-0.452-1.073-0.917-1.546-1.447c-0.438-0.491-0.741-0.93-0.954-1.38c-0.028-0.061-0.067-0.144-0.184-0.174l-0.056-0.015
			c-0.007-0.002-0.014,0-0.02,0.005c-0.005,0.005-0.007,0.011-0.007,0.019l0.007,0.056c0.021,0.196,0.082,0.378,0.196,0.594
			c0.279,0.526,0.677,1.035,1.251,1.6c0.248,0.243,0.508,0.471,0.761,0.689l0.316,0.278c0.353,0.313,0.353,0.313,0.349,0.807
			c-0.001,0.441,0.018,0.881,0.042,1.368c0.011,0.25,0.031,0.504,0.048,0.747l0.026,0.382c-0.015-0.007-0.029-0.015-0.043-0.022
			c-0.596-0.348-1.229-0.721-1.813-1.146c-0.255-0.186-0.386-0.388-0.451-0.699l-0.106-0.348c-0.102-0.341-0.189-0.627-0.284-0.922
			c-0.038-0.124-0.095-0.25-0.154-0.382c-0.017-0.036-0.042-0.062-0.065-0.086c-0.001-0.002-0.004-0.002-0.006-0.004l-0.076-0.04
			c-0.007-0.004-0.016-0.003-0.021,0l-0.065,0.036c-0.007,0.004-0.012,0.013-0.012,0.021l0.004,0.026
			c0.016,0.142,0.061,0.275,0.104,0.407c0.029,0.083,0.058,0.169,0.077,0.254c0.031,0.132,0.067,0.26,0.11,0.401l0.013,0.046
			c0.021,0.074,0.042,0.147,0.062,0.224c0.02,0.074,0.044,0.146,0.068,0.222c0.036,0.104,0.071,0.213,0.097,0.332
			c-0.028-0.019-0.051-0.034-0.073-0.053l-0.139-0.109c-0.05-0.04-0.099-0.079-0.15-0.117l-1.328-0.985l-0.795-0.603
			c-0.028-0.022-0.067-0.053-0.121-0.053c-0.042,0-0.083,0.018-0.127,0.058l-0.032,0.028c-0.004,0.005-0.007,0.01-0.007,0.017
			c0,0.006,0.002,0.013,0.007,0.017l0.429,0.378c0.478,0.424,0.972,0.86,1.504,1.236c0.168,0.118,0.331,0.248,0.489,0.375
			l0.219,0.172c0.021,0.015,0.04,0.028,0.054,0.045c-0.131,0.003-0.563,0.009-0.73,0.01l-0.982-0.001
			c-0.155,0.002-0.32,0.014-0.493,0.136c-0.006,0.004-0.009,0.011-0.008,0.019c0.011,0.14,0.124,0.14,0.167,0.14
			c0.001,0,0.625-0.003,0.625-0.003c0.473-0.002,0.959-0.006,1.439-0.014c0.103-0.001,0.176-0.007,0.239-0.013
			c0.031-0.002,0.056-0.005,0.077-0.005c0.062,0,0.09,0.021,0.296,0.185c0.012,0.008,1.222,0.756,1.624,1.006
			c0.042,0.024,0.08,0.055,0.123,0.089l0.013,0.01l-0.021,0.014c-0.034,0.024-0.062,0.042-0.091,0.061l-0.405,0.235
			c-0.304,0.175-0.617,0.356-0.923,0.541c-0.103,0.062-0.189,0.146-0.274,0.23l-0.055,0.054c-0.028,0.027-0.036,0.062-0.045,0.104
			c-0.003,0.019-0.009,0.036-0.015,0.057l-0.024,0.08c-0.002,0.009,0,0.018,0.006,0.023c0.005,0.004,0.014,0.006,0.023,0.004
			l0.077-0.033c0.465-0.195,0.889-0.443,1.298-0.682c0.26-0.152,0.528-0.309,0.801-0.449c0.003,0.018,0.007,0.033,0.01,0.051
			l0.056,0.378c0.032,0.22,0.065,0.445,0.11,0.667c0.092,0.469,0.195,0.941,0.295,1.397l0.062,0.281
			c0.018,0.08,0.013,0.149-0.015,0.228c-0.114,0.302-0.215,0.575-0.301,0.854c-0.092,0.303-0.172,0.609-0.251,0.904l-0.047,0.173
			c-0.016,0.063-0.024,0.13-0.033,0.193l-0.014,0.092c0,0.004,0.001,0.01,0.005,0.014l0.027,0.044
			c0.003,0.007,0.009,0.009,0.017,0.01l0.042,0.005c0.15,0,0.187-0.115,0.214-0.198c0.027-0.082,0.052-0.166,0.078-0.247
			l0.002-0.011c0.029-0.095,0.06-0.193,0.094-0.291c0.132-0.382,0.268-0.755,0.394-1.101c0.005-0.01,0.009-0.021,0.017-0.03
			l0.032,0.094l0.81,2.597l0.002,0.007c0.012,0.037,0.022,0.073,0.045,0.109c0.019,0.03,0.045,0.051,0.069,0.067
			c0.005,0.005,0.011,0.009,0.016,0.005h0.002v0.002c0,0.005,0.002,0.011,0.007,0.014l0.022,0.02
			c0.004,0.004,0.008,0.006,0.014,0.006c0.005,0,0.008,0,0.012-0.003l0.024-0.017c0.005-0.002,0.008-0.006,0.009-0.012l0.01-0.038
			l0.029-0.005c0.011-0.001,0.019-0.012,0.019-0.023l-0.002-0.058c-0.002-0.043-0.003-0.088-0.015-0.134
			c-0.086-0.349-0.181-0.724-0.281-1.101c-0.038-0.144-0.08-0.29-0.12-0.432l-0.006-0.018c-0.046-0.164-0.088-0.311-0.127-0.459
			c-0.047-0.176-0.09-0.357-0.13-0.532l-0.045-0.194c0-0.003-0.001-0.005-0.001-0.007l0.122,0.088
			c0.187,0.136,0.379,0.277,0.57,0.409c0.062,0.042,0.122,0.087,0.185,0.133c0.193,0.143,0.394,0.291,0.64,0.372l0.079,0.026
			c0.008,0.002,0.017,0,0.022-0.006c0.006-0.006,0.008-0.015,0.005-0.023l-0.031-0.076c-0.034-0.088-0.079-0.15-0.153-0.218
			c-0.163-0.145-0.331-0.294-0.505-0.431c-0.171-0.137-0.344-0.269-0.548-0.427l-0.074-0.058c-0.157-0.122-0.314-0.246-0.471-0.37
			c-0.044-0.033-0.083-0.09-0.099-0.136c-0.06-0.197-0.117-0.39-0.154-0.589c-0.082-0.441-0.158-0.893-0.234-1.33l-0.076-0.452
			c-0.002-0.008-0.002-0.017-0.003-0.024l0.373,0.23c0.271,0.169,0.551,0.344,0.83,0.509c0.475,0.28,0.969,0.562,1.471,0.842
			c0.085,0.047,0.105,0.098,0.126,0.24c0.031,0.225,0.067,0.479,0.131,0.72c0.066,0.256,0.155,0.528,0.286,0.883
			c0.156,0.42,0.378,0.832,0.742,1.377c0.033,0.055,0.083,0.138,0.195,0.139l0.043,0.001l0,0c0.006,0,0.012-0.002,0.015-0.006
			c0.005-0.004,0.006-0.01,0.006-0.016l-0.001-0.042c-0.006-0.137-0.012-0.151-0.086-0.299l-0.062-0.127
			c-0.258-0.518-0.527-1.055-0.707-1.624c-0.099-0.315-0.126-0.633-0.142-0.931c0-0.006,0-0.009,0-0.014
			c0.001-0.011,0.001-0.022-0.001-0.036l0.035,0.006l1.385,0.617c0.344,0.153,0.708,0.317,1.073,0.476
			c0.081,0.034,0.126,0.074,0.166,0.144l0.134,0.246l0.005,0.01c0.133,0.243,0.271,0.497,0.431,0.731
			c0.472,0.698,0.897,1.26,1.337,1.771c0.027,0.03,0.061,0.057,0.097,0.083l0.047,0.037c0.003,0.003,0.007,0.005,0.012,0.006
			l0.047,0.003h0.002c0.005,0,0.011-0.003,0.015-0.007l0.064-0.062c0.007-0.007,0.01-0.017,0.003-0.027l-0.016-0.025
			c-0.107-0.173-0.232-0.334-0.352-0.495l-0.01-0.013c-0.094-0.123-0.192-0.253-0.28-0.383L72.66,56.68
			c-0.156-0.229-0.316-0.47-0.461-0.713c-0.128-0.21-0.242-0.424-0.363-0.651l-0.123-0.226l0.725,0.247
			c0.567,0.196,1.152,0.396,1.731,0.59c0.452,0.151,0.909,0.294,1.416,0.451l0.253,0.078c0.033,0.011,0.071,0.023,0.117,0.023
			c0.058,0,0.113-0.021,0.168-0.062l0.059-0.046c0.006-0.004,0.01-0.011,0.008-0.02c0-0.009-0.006-0.016-0.013-0.018l-0.069-0.023
			c-0.232-0.081-0.506-0.176-0.785-0.267c-0.267-0.086-0.505-0.166-0.745-0.25c-0.23-0.084-0.454-0.168-0.684-0.257l-0.073-0.029
			c-0.305-0.112-0.537-0.202-0.753-0.287c-0.287-0.111-0.519-0.206-0.729-0.296c-0.097-0.042-0.193-0.076-0.295-0.112l-0.012-0.006
			c-0.112-0.039-0.228-0.08-0.345-0.132l0.06-0.033c0.091-0.051,0.17-0.095,0.254-0.128c0.274-0.108,0.546-0.229,0.811-0.348
			l0.01-0.006c0.412-0.184,0.837-0.374,1.273-0.512c0.038-0.012,0.069-0.034,0.135-0.078l0.014-0.009
			c0.008-0.005,0.012-0.015,0.008-0.024l-0.038-0.114c-0.002-0.007-0.008-0.012-0.015-0.014c-0.008-0.003-0.014-0.002-0.02,0.004
			l-0.029,0.024l-0.029-0.026c-0.005-0.005-0.012-0.006-0.017-0.006l-0.062,0.006l-0.156,0.039
			c-0.156,0.036-0.317,0.074-0.468,0.137c-0.594,0.238-1.193,0.491-1.773,0.734l-0.326,0.14c-0.034,0.015-0.06,0.026-0.133,0.017
			c-0.104-0.046-0.209-0.09-0.307-0.13l-0.045-0.018c-0.104-0.044-0.212-0.089-0.317-0.136c-0.38-0.174-0.766-0.355-1.139-0.527
			l-0.387-0.203l0.04-0.023c0.093-0.055,0.18-0.105,0.273-0.151l0.979-0.483l0.874-0.43c0.042-0.014,0.131-0.044,0.109-0.193
			c-0.001-0.006-0.005-0.012-0.01-0.017c-0.038-0.021-0.077-0.033-0.119-0.033c-0.054,0-0.104,0.018-0.151,0.036l-0.275,0.103
			c-0.211,0.078-0.43,0.16-0.643,0.255c-0.452,0.198-0.915,0.415-1.413,0.661c-0.156,0.075-0.271,0.071-0.409-0.011
			c-0.118-0.07-0.24-0.138-0.365-0.204l-0.015-0.009c-0.091-0.048-0.185-0.101-0.275-0.152c-0.718-0.415-1.425-0.831-2.208-1.29
			c-0.013-0.008-0.025-0.019-0.054-0.045l0.02-0.009l1.751-1.225c0.06-0.044,0.127-0.056,0.208-0.04l2.603,0.524
			c0.045,0.009,0.089,0.013,0.142,0.016c0,0.001,0.003-0.001,0.006-0.001l0.105-0.025c0.011-0.002,0.018-0.013,0.017-0.023
			l-0.011-0.097c-0.001-0.008-0.006-0.014-0.013-0.019l-0.057-0.025c-0.047-0.022-0.09-0.042-0.135-0.053l-0.677-0.163
			c-0.318-0.076-0.646-0.155-0.97-0.236c-0.178-0.046-0.355-0.102-0.542-0.159l-0.161-0.05c0.016-0.013,0.028-0.024,0.042-0.033
			l0.263-0.169c0.339-0.216,0.687-0.439,1.037-0.651c0.061-0.033,0.152-0.052,0.28-0.052c0.137,0.003,0.276,0.019,0.401,0.031
			l0.209,0.021c0.636,0.046,1.203,0.07,1.734,0.07c0.429,0,0.828-0.015,1.219-0.045c0.547-0.042,1.083-0.093,1.592-0.15
			c0.176-0.02,0.35-0.061,0.516-0.101l0.131-0.03c0.07-0.016,0.201-0.044,0.201-0.225v-0.047c0-0.006-0.003-0.012-0.009-0.016
			c-0.003-0.004-0.01-0.005-0.017-0.005l-0.046,0.008c-0.788,0.131-1.831,0.284-2.896,0.301l-0.278,0.003
			c-0.742,0-1.534-0.046-2.492-0.143c0.02-0.014,0.042-0.028,0.066-0.042l0.458-0.274c0.375-0.225,0.761-0.457,1.147-0.677
			c0.183-0.105,0.365-0.22,0.542-0.331c0.292-0.184,0.594-0.374,0.914-0.524c0.19-0.092,0.349-0.112,0.529-0.072
			c0.317,0.068,0.648,0.103,1.01,0.103c0.247,0,0.505-0.016,0.793-0.048c0.347-0.037,0.696-0.092,1.032-0.145l0.343-0.053
			c0.092-0.014,0.183-0.038,0.271-0.071c0.039-0.014,0.059-0.049,0.08-0.087l0.036-0.059l0.046-0.068
			c0.004-0.007,0.004-0.016,0-0.023c-0.003-0.006-0.01-0.011-0.018-0.011h-0.002l-0.335,0.031c-0.013,0.001-1.349,0.15-1.759,0.197
			c-0.078,0.01-0.157,0.014-0.243,0.014c-0.196,0-0.394-0.023-0.587-0.045c-0.134-0.016-0.271-0.044-0.403-0.072l-0.065-0.013
			c0.058-0.04,0.118-0.072,0.181-0.104l0.384-0.197l0.012-0.007c0.26-0.131,0.526-0.268,0.783-0.414
			c0.898-0.516,1.81-1.047,2.689-1.562l0.853-0.496c0.129-0.074,0.253-0.157,0.386-0.244l0.023-0.017
			C78.71,43.319,78.817,43.246,78.767,43.092z"/>
		<path fill="#FFFFFF" d="M33.132,47.667c-0.042-0.04-0.084-0.058-0.126-0.058c-0.053,0-0.092,0.03-0.133,0.062
			c-0.006,0.004-0.583,0.443-0.782,0.594l-1.329,0.985c-0.056,0.041-0.111,0.086-0.164,0.129l-0.125,0.098
			c-0.022,0.018-0.044,0.033-0.073,0.053c0.026-0.119,0.061-0.227,0.098-0.334c0.025-0.075,0.048-0.146,0.067-0.22
			c0.025-0.094,0.051-0.184,0.077-0.27c0.037-0.13,0.078-0.266,0.108-0.401c0.02-0.088,0.05-0.174,0.078-0.259
			c0.044-0.129,0.087-0.263,0.104-0.402c0.001-0.006-0.001-0.013-0.005-0.017l-0.039-0.049c-0.001-0.003-0.003-0.005-0.006-0.006
			l-0.022-0.013c-0.006-0.002-0.012-0.004-0.018-0.001l-0.056,0.017c-0.003,0.002-0.007,0.004-0.009,0.006l-0.021,0.022
			c-0.022,0.023-0.049,0.052-0.081,0.12c-0.049,0.112-0.102,0.229-0.138,0.347c-0.095,0.298-0.184,0.59-0.282,0.913l-0.121,0.4
			c-0.054,0.271-0.188,0.475-0.439,0.656c-0.585,0.428-1.217,0.8-1.814,1.147c-0.016,0.009-0.029,0.016-0.043,0.02l0.024-0.352
			c0.019-0.254,0.039-0.516,0.051-0.775c0.023-0.483,0.042-0.925,0.041-1.412c-0.004-0.449-0.004-0.449,0.349-0.763l0.323-0.282
			c0.25-0.22,0.51-0.445,0.754-0.686c0.575-0.564,0.973-1.073,1.251-1.6c0.114-0.215,0.176-0.398,0.197-0.594l0.006-0.056
			c0.001-0.007-0.002-0.014-0.007-0.019c-0.006-0.005-0.014-0.007-0.02-0.005l-0.054,0.015c-0.116,0.029-0.155,0.111-0.189,0.183
			c-0.21,0.445-0.512,0.881-0.95,1.371c-0.474,0.531-1.011,0.99-1.583,1.478c-0.028,0.024-0.062,0.046-0.099,0.07
			c-0.001-0.024-0.002-0.046-0.002-0.067l0.019-0.789c0.017-0.608,0.033-1.237,0.029-1.869c-0.001-0.271,0.071-0.461,0.254-0.674
			c0.758-0.88,1.267-1.869,1.513-2.938c0.024-0.108,0.034-0.221,0.042-0.329l0.009-0.1c0.002-0.033-0.007-0.062-0.024-0.118
			c-0.001-0.004-0.003-0.008-0.008-0.011l-0.042-0.031c-0.002-0.001-0.005-0.002-0.007-0.003l-0.063-0.018
			c-0.007-0.001-0.011,0-0.017,0.002c-0.005,0.003-0.009,0.009-0.01,0.015l-0.008,0.041c-0.234,1.175-0.76,2.238-1.609,3.25
			l-0.031-0.242c-0.055-0.461-0.112-0.938-0.119-1.412c-0.006-0.515-0.1-1.025-0.191-1.519l-0.042-0.225
			c-0.034-0.2-0.073-0.414-0.122-0.625c-0.027-0.114-0.06-0.229-0.092-0.339l-0.051-0.176c-0.001-0.006-0.004-0.01-0.01-0.013
			l-0.056-0.03c-0.003-0.001-0.006-0.002-0.009-0.002l-0.028-0.001c-0.004,0.001-0.01,0-0.014,0.003l-0.04,0.029
			c-0.001,0.001-0.004,0.004-0.006,0.006l-0.012,0.019c-0.017,0.029-0.04,0.065-0.036,0.107c0.006,0.076,0.019,0.152,0.03,0.227
			l0.092,0.549c0.062,0.381,0.134,0.813,0.199,1.242c0.013,0.088,0.015,0.18,0.017,0.269v0.006c0,0.066,0.001,0.133,0.008,0.201
			l0.145,1.708c0.008,0.093,0.013,0.187,0.018,0.283l0.004,0.08c-0.027-0.003-0.046-0.007-0.062-0.013
			c-0.085-0.034-0.165-0.071-0.238-0.11c-0.482-0.263-0.995-0.554-1.461-0.907c-0.09-0.068-0.19-0.139-0.314-0.224
			c-0.026-0.018-0.054-0.026-0.104-0.042l-0.007-0.002c-0.003-0.001-0.008-0.001-0.009-0.001l-0.034,0.002
			c-0.006,0-0.011,0.003-0.015,0.007l-0.058,0.062c-0.008,0.009-0.008,0.021-0.001,0.028l0.055,0.072
			c0.026,0.034,0.052,0.069,0.085,0.098c0.321,0.277,0.667,0.566,1.06,0.784c0.156,0.086,0.307,0.187,0.458,0.288
			c0.078,0.052,0.156,0.105,0.27,0.177c0.076,0.049,0.154,0.099,0.237,0.137c0.08,0.036,0.107,0.086,0.109,0.19l0.001,0.006
			c0.017,0.87,0.036,1.77-0.026,2.666c-0.006,0.083-0.008,0.165-0.011,0.258l-0.002,0.049c-0.033-0.024-0.062-0.044-0.083-0.067
			l-0.046-0.048c-0.218-0.23-0.443-0.468-0.661-0.713c-0.177-0.201-0.346-0.4-0.534-0.623l-0.279-0.328
			c-0.041-0.048-0.088-0.098-0.171-0.127c-0.005-0.002-0.008-0.002-0.013-0.001l-0.058,0.015c-0.004,0.001-0.01,0.004-0.013,0.009
			c-0.003,0.005-0.003,0.011-0.002,0.017l0.016,0.071c0.007,0.026,0.014,0.058,0.033,0.089c0.326,0.516,0.721,1.018,1.247,1.578
			c0.143,0.15,0.302,0.313,0.489,0.493c0.044,0.044,0.062,0.085,0.062,0.144l0.003,0.268c0.001,0.127,0.003,0.258,0.002,0.386
			c-0.007,0.567-0.057,1.161-0.162,1.932l-0.018,0.149l-1.619-1.139c-0.08-0.056-0.117-0.122-0.137-0.245
			c-0.101-0.638-0.228-1.377-0.47-2.071c-0.053-0.152-0.062-0.166-0.189-0.278c-0.003-0.004-0.008-0.007-0.017-0.006l-0.058,0.007
			c-0.01,0.001-0.017,0.007-0.019,0.016l-0.018,0.059c-0.009,0.034-0.021,0.068-0.011,0.104l0.124,0.539L25,48.046
			c0.063,0.269,0.129,0.546,0.187,0.822c0.037,0.18,0.063,0.365,0.091,0.549l0.042,0.168l-0.214-0.145
			c-0.01-0.006-0.998-0.652-1.302-0.854c-0.058-0.04-0.101-0.083-0.118-0.124c-0.11-0.237-0.214-0.483-0.314-0.721l-0.003-0.01
			c0,0-0.151-0.36-0.198-0.476l-0.002-0.006c-0.096-0.236-0.195-0.48-0.307-0.713c-0.188-0.385-0.406-0.792-0.666-1.242
			c-0.307-0.528-0.716-0.981-1.11-1.393l-0.052-0.055c-0.04-0.043-0.082-0.088-0.126-0.129c-0.028-0.024-0.06-0.04-0.122-0.069
			l-0.01-0.005c-0.005-0.002-0.011-0.003-0.016-0.001l-0.061,0.019c-0.002,0-0.006,0.003-0.009,0.004l-0.02,0.019
			c-0.004,0.003-0.006,0.008-0.007,0.014l-0.004,0.058c0,0.002,0,0.004,0.001,0.007l0.007,0.024c0.01,0.033,0.02,0.071,0.046,0.104
			c0.091,0.116,0.188,0.227,0.287,0.341c0.335,0.383,0.762,0.899,1.074,1.502c0.082,0.159,0.168,0.318,0.252,0.473l0.002,0.006
			c0.145,0.271,0.296,0.55,0.428,0.831c0.121,0.255,0.221,0.525,0.319,0.786l0.118,0.316c0.012,0.031,0.019,0.062,0.027,0.1h-0.002
			c-0.085-0.049-0.154-0.09-0.223-0.132c-0.141-0.088-0.282-0.178-0.423-0.268c-0.261-0.165-0.531-0.337-0.803-0.495
			c-0.453-0.264-0.934-0.526-1.468-0.804c-0.174-0.089-0.295-0.214-0.393-0.404c-0.236-0.453-0.513-0.888-0.819-1.291
			c-0.286-0.375-0.604-0.77-0.982-1.121c-0.077-0.071-0.157-0.142-0.229-0.204l-0.172-0.114c-0.007-0.005-0.017-0.005-0.023,0
			c-0.048,0.032-0.073,0.066-0.077,0.106c-0.007,0.057,0.029,0.098,0.052,0.122c0.003,0.003,0.289,0.327,0.356,0.405l0.263,0.31
			c0.224,0.261,0.457,0.532,0.662,0.815c0.162,0.222,0.3,0.469,0.433,0.708l0.004,0.005c0.046,0.083,0.093,0.167,0.127,0.23
			c-0.017-0.008-0.036-0.017-0.054-0.026l-0.083-0.046c-0.331-0.183-0.673-0.372-1.008-0.562l-0.983-0.56
			c-0.483-0.275-0.982-0.559-1.475-0.836c-0.454-0.255-0.917-0.509-1.366-0.754l-0.37-0.203c-0.038-0.021-0.076-0.037-0.164-0.077
			l-0.04-0.019c-0.006-0.001-0.012-0.002-0.018,0c-0.006,0.003-0.011,0.008-0.012,0.014l-0.014,0.041
			c-0.05,0.154,0.058,0.228,0.099,0.256l0.015,0.01c0.127,0.085,0.259,0.172,0.394,0.25l0.832,0.485
			c0.887,0.518,1.804,1.053,2.711,1.573c0.254,0.146,0.518,0.281,0.776,0.412l0.401,0.207c0.063,0.032,0.123,0.064,0.181,0.104
			L19.264,46.4c-0.133,0.027-0.271,0.057-0.413,0.073l-0.006,0.001c-0.189,0.021-0.385,0.044-0.579,0.044
			c-0.085,0-0.165-0.004-0.243-0.014c-0.411-0.047-1.746-0.196-1.761-0.198l-0.335-0.03c-0.009,0-0.017,0.004-0.02,0.011
			c-0.005,0.007-0.005,0.016,0,0.023l0.046,0.067l0.036,0.06c0.023,0.039,0.042,0.074,0.082,0.087
			c0.087,0.033,0.179,0.058,0.272,0.071l0.335,0.052c0.339,0.054,0.689,0.108,1.038,0.146c0.287,0.032,0.547,0.048,0.793,0.048
			c0.364,0,0.693-0.034,1.009-0.103c0.184-0.04,0.34-0.018,0.532,0.072c0.317,0.149,0.619,0.34,0.912,0.523l0.011,0.009
			c0.172,0.108,0.352,0.22,0.531,0.323c0.373,0.212,0.729,0.426,1.155,0.682l0.45,0.27c0.025,0.014,0.046,0.028,0.066,0.042
			c-0.96,0.098-1.753,0.143-2.492,0.143L20.405,48.8c-1.065-0.017-2.106-0.17-2.895-0.301l-0.046-0.008
			c-0.007-0.001-0.013,0.001-0.018,0.005c-0.005,0.004-0.007,0.01-0.007,0.016v0.047c0,0.181,0.128,0.209,0.198,0.225l0.13,0.03
			c0.16,0.038,0.341,0.08,0.518,0.101c0.51,0.058,1.046,0.108,1.593,0.15c0.387,0.03,0.797,0.045,1.218,0.045
			c0.531,0,1.098-0.024,1.736-0.07l0.208-0.021c0.13-0.013,0.265-0.027,0.419-0.03c0.112,0,0.204,0.019,0.26,0.052
			c0.343,0.208,0.685,0.426,1.017,0.638l0.286,0.183c0.013,0.009,0.026,0.02,0.042,0.033l-0.169,0.052
			c-0.184,0.058-0.358,0.112-0.535,0.157c-0.328,0.082-0.664,0.162-0.988,0.24l-0.657,0.159c-0.049,0.011-0.094,0.033-0.133,0.053
			c-0.002,0-0.003,0.001-0.006,0.002l-0.082,0.072c-0.008,0.008-0.009,0.02-0.003,0.028l0.055,0.083
			c0.003,0.006,0.01,0.01,0.019,0.009l0.062-0.004c0.042-0.003,0.093-0.005,0.141-0.015l2.604-0.525
			c0.083-0.016,0.149-0.004,0.209,0.04l0.829,0.579l0.923,0.671c-0.012,0.012-0.022,0.021-0.033,0.028
			c-0.665,0.39-1.439,0.843-2.209,1.29c-0.085,0.05-0.175,0.098-0.259,0.145l-0.057,0.031c-0.112,0.061-0.228,0.123-0.339,0.189
			c-0.14,0.084-0.255,0.086-0.409,0.011c-0.5-0.246-0.962-0.463-1.413-0.661c-0.207-0.092-0.421-0.172-0.628-0.25l-0.289-0.107
			c-0.045-0.019-0.095-0.036-0.151-0.036c-0.044,0-0.085,0.012-0.141,0.069c-0.003,0.004-0.006,0.011-0.006,0.016
			c-0.001,0.113,0.079,0.143,0.152,0.167l1.828,0.904c0.095,0.048,0.188,0.103,0.277,0.156l0.057,0.031l-0.488,0.226
			c-0.347,0.162-0.708,0.33-1.062,0.492c-0.12,0.054-0.24,0.104-0.362,0.153l-0.024,0.011c-0.095,0.038-0.192,0.078-0.33,0.13
			c-0.026-0.001-0.058-0.015-0.123-0.045l-0.299-0.126c-0.577-0.243-1.172-0.495-1.762-0.73c-0.151-0.062-0.313-0.102-0.473-0.138
			l-0.145-0.036c-0.021-0.006-0.043-0.008-0.07-0.008c-0.012,0-0.022,0.01-0.022,0.021v0.008l-0.06-0.025
			c-0.009-0.003-0.017,0-0.024,0.006l-0.042,0.04c-0.003,0.003-0.005,0.006-0.006,0.01l-0.008,0.028
			c-0.002,0.006-0.001,0.012,0.002,0.017l0.036,0.057c0.002,0.002,0.004,0.004,0.006,0.006l0.024,0.017
			c0.03,0.021,0.065,0.046,0.107,0.06c0.436,0.138,0.862,0.328,1.272,0.512l0.011,0.006c0.264,0.118,0.537,0.239,0.811,0.348
			c0.084,0.033,0.163,0.077,0.254,0.129l0.059,0.032c-0.117,0.052-0.232,0.093-0.344,0.132l-0.016,0.007
			c-0.102,0.036-0.196,0.07-0.292,0.111c-0.214,0.092-0.445,0.186-0.728,0.296c-0.256,0.1-0.514,0.197-0.754,0.287l-0.087,0.035
			c-0.217,0.083-0.44,0.169-0.668,0.251c-0.243,0.086-0.491,0.168-0.745,0.25c-0.272,0.088-0.538,0.181-0.785,0.267l-0.069,0.023
			c-0.007,0.002-0.013,0.009-0.014,0.018c-0.001,0.009,0.002,0.016,0.009,0.02l0.058,0.046c0.056,0.041,0.112,0.062,0.169,0.062
			c0.045,0,0.084-0.013,0.133-0.029l0.261-0.08c0.457-0.142,0.929-0.29,1.391-0.443c0.564-0.188,1.117-0.378,1.729-0.588
			l0.726-0.249l-0.119,0.221c-0.123,0.228-0.239,0.443-0.366,0.656c-0.151,0.249-0.315,0.493-0.475,0.73l-0.124,0.187
			c-0.088,0.132-0.187,0.262-0.281,0.386l-0.014,0.019c-0.118,0.155-0.239,0.317-0.346,0.486c-0.002,0.002-0.003,0.006-0.003,0.01
			l-0.001,0.042c0,0.006,0.002,0.012,0.007,0.016l0.068,0.068c0.007,0.007,0.019,0.007,0.028,0.001l0.073-0.058
			c0.032-0.025,0.068-0.053,0.098-0.086c0.435-0.504,0.859-1.066,1.339-1.771c0.164-0.242,0.306-0.502,0.444-0.757l0.126-0.23
			c0.037-0.067,0.085-0.109,0.163-0.144c0.36-0.156,0.721-0.317,1.09-0.482l0.316-0.141l1.081-0.462
			c0.003,0.013,0.007,0.026,0.006,0.034c-0.014,0.3-0.041,0.617-0.142,0.933c-0.179,0.567-0.449,1.108-0.71,1.632l-0.068,0.137
			c-0.062,0.125-0.07,0.139-0.077,0.28L23.08,56.84c0,0.006,0.002,0.012,0.007,0.015c0.003,0.005,0.01,0.007,0.016,0.007l0,0
			l0.042-0.001c0.113-0.003,0.162-0.083,0.212-0.168c0.346-0.512,0.569-0.93,0.725-1.348c0.127-0.344,0.218-0.624,0.286-0.883
			c0.058-0.223,0.093-0.453,0.125-0.68l0.013-0.084c0.013-0.095,0.034-0.149,0.119-0.196c0.495-0.273,0.99-0.558,1.47-0.842
			c0.281-0.166,0.555-0.337,0.859-0.525l0.345-0.213c-0.001,0.008-0.001,0.016-0.004,0.024l-0.073,0.427
			c-0.067,0.394-0.151,0.885-0.237,1.354c-0.038,0.202-0.098,0.401-0.155,0.587c-0.016,0.05-0.054,0.104-0.099,0.138
			c-0.168,0.134-0.34,0.268-0.506,0.396l-0.044,0.035c-0.174,0.135-0.361,0.279-0.543,0.424c-0.184,0.146-0.359,0.303-0.529,0.452
			c-0.053,0.048-0.096,0.112-0.13,0.196l-0.031,0.076c-0.003,0.007-0.001,0.018,0.005,0.023c0.004,0.006,0.014,0.006,0.022,0.006
			l0.079-0.026c0.248-0.082,0.448-0.23,0.642-0.373l0.017-0.012c0.054-0.042,0.11-0.082,0.165-0.12
			c0.184-0.127,0.363-0.258,0.553-0.396l0.14-0.102c0,0.002-0.001,0.004-0.001,0.007l-0.047,0.2
			c-0.039,0.174-0.08,0.354-0.127,0.526c-0.04,0.155-0.086,0.312-0.13,0.463c-0.041,0.146-0.085,0.296-0.124,0.444
			c-0.085,0.318-0.171,0.658-0.281,1.102c-0.01,0.045-0.013,0.09-0.014,0.134l-0.003,0.058c0,0.003,0,0.006,0.002,0.009l0.009,0.031
			c0.002,0.006,0.005,0.01,0.01,0.012l0.021,0.013c0.006,0.002,0.011,0.004,0.017,0.002c0,0.003,0.001,0.006,0.002,0.006
			c0.005,0.008,0.011,0.012,0.018,0.012c0.002,0,0.003,0,0.004-0.002l0.052-0.01c0.003,0,0.007-0.002,0.009-0.004l0.022-0.017
			c0.022-0.018,0.048-0.037,0.067-0.068c0.023-0.039,0.037-0.081,0.055-0.139l0.801-2.573l0.033-0.094
			c0.007,0.01,0.012,0.021,0.015,0.028c0.118,0.325,0.259,0.712,0.396,1.104c0.034,0.096,0.065,0.196,0.095,0.295l0.008,0.026
			c0.023,0.076,0.047,0.154,0.079,0.246c0.02,0.065,0.056,0.176,0.236,0.176c0.001,0,0.047-0.006,0.047-0.006
			c0.006,0,0.012-0.004,0.016-0.009c0.003-0.004,0.005-0.01,0.005-0.016l-0.021-0.134c-0.008-0.059-0.017-0.128-0.034-0.191
			l-0.051-0.191c-0.083-0.317-0.16-0.603-0.248-0.886c-0.09-0.295-0.202-0.592-0.3-0.854c-0.029-0.076-0.033-0.147-0.014-0.228
			l0.072-0.332c0.097-0.439,0.196-0.895,0.285-1.347c0.046-0.233,0.082-0.473,0.115-0.706l0.051-0.338l0.01-0.052
			c0.268,0.139,0.531,0.291,0.786,0.441l0.011,0.006c0.412,0.239,0.839,0.489,1.3,0.684l0.078,0.032
			c0.007,0.003,0.017,0.001,0.022-0.004s0.008-0.015,0.006-0.023l-0.023-0.077l-0.014-0.057c-0.008-0.04-0.017-0.077-0.046-0.105
			l-0.055-0.054c-0.083-0.082-0.169-0.168-0.272-0.23c-0.296-0.18-0.603-0.356-0.897-0.526l-0.431-0.25
			c-0.021-0.013-0.079-0.052-0.112-0.074l0.002-0.002c0.047-0.037,0.089-0.068,0.132-0.098l1.582-0.977l0.072-0.051
			c0.18-0.145,0.206-0.162,0.267-0.162c0.021,0,0.045,0.003,0.08,0.005c0.061,0.006,0.132,0.012,0.236,0.013
			c0.479,0.008,0.966,0.012,1.438,0.014l0.633,0.003c0.023,0,0.071,0,0.104-0.037c0.028-0.03,0.042-0.078,0.036-0.143
			c-0.001-0.009-0.004-0.016-0.011-0.018c-0.15-0.082-0.314-0.095-0.47-0.097l-0.261-0.001l-0.623,0.002l-0.827-0.01
			c0.018-0.021,0.044-0.038,0.078-0.064l0.2-0.157c0.156-0.124,0.318-0.252,0.483-0.37c0.542-0.383,1.044-0.827,1.529-1.258
			l0.403-0.356c0.004-0.004,0.007-0.011,0.007-0.017c0-0.007-0.002-0.012-0.007-0.016L33.132,47.667z"/>
	</g>
</g>
</svg>
