<?xml version="1.0" encoding="utf-8"?>
<!-- Generator: Adobe Illustrator 16.0.1, SVG Export Plug-In . SVG Version: 6.00 Build 0)  -->
<!DOCTYPE svg PUBLIC "-//W3C//DTD SVG 1.1//EN" "http://www.w3.org/Graphics/SVG/1.1/DTD/svg11.dtd">
<svg version="1.1" id="Layer_1" xmlns="http://www.w3.org/2000/svg" xmlns:xlink="http://www.w3.org/1999/xlink" x="0px" y="0px"
	 width="295.333px" height="320.5px" viewBox="38.5 0 295.333 320.5" enable-background="new 38.5 0 295.333 320.5"
	 xml:space="preserve">
<g>
	<circle fill="#7AA9D1" cx="186.077" cy="100.258" r="100.394"/>
	<path fill="#B21E28" d="M266.795,89.079c-0.199,0.016-0.395,0.061-0.591,0.104c-1.925,0.426-3.85,0.858-5.777,1.279
		c-1.425,0.311-2.854,0.597-4.158,1.296c-0.09,0.047-0.197,0.063-0.302,0.097c0.901-1.109,1.784-2.195,2.67-3.28
		c0.095-0.122,0.213-0.233,0.171-0.443c0,0-0.003-0.002-0.005-0.002c0,0-0.003-0.003-0.003-0.005
		c-0.023-0.016-0.055-0.029-0.087-0.039c-0.133,0.019-0.271,0.033-0.401,0.075c-0.324,0.108-0.64,0.245-0.963,0.355
		c-0.757,0.26-1.525,0.487-2.271,0.77c-1.325,0.501-2.643,1.018-3.945,1.563c-0.553,0.229-1.065,0.545-1.599,0.821
		c-0.083,0.044-0.169,0.087-0.314,0.159c0.093-0.188,0.15-0.317,0.222-0.439c0.705-1.226,1.504-2.392,2.392-3.494
		c0.108-0.133,0.208-0.277,0.277-0.43c0.074-0.174-0.009-0.297-0.194-0.269c-0.225,0.033-0.45,0.088-0.655,0.182
		c-0.844,0.386-1.708,0.741-2.511,1.203c-1.275,0.732-2.521,1.516-3.749,2.323c-1.478,0.973-2.924,1.997-4.381,3.003
		c-0.785,0.543-1.568,1.091-2.35,1.645c-0.252,0.178-0.486,0.375-0.731,0.564c-0.025-0.011-0.052-0.022-0.078-0.035
		c0.039-0.172,0.076-0.345,0.121-0.518c0.1-0.372,0.202-0.743,0.302-1.116c0.371-1.38,0.75-2.755,1.115-4.136
		c0.113-0.428,0.203-0.862,0.292-1.295c0.018-0.088,0.011-0.184,0.006-0.318c-0.004-0.002-0.006-0.002-0.006-0.008
		c-0.003-0.001-0.003-0.002-0.003-0.006c-0.003-0.002-0.003-0.004-0.005-0.006c-0.011-0.006-0.023-0.014-0.034-0.022
		c-0.011-0.001-0.023-0.002-0.035-0.002c-0.019-0.002-0.025-0.002-0.002,0v-0.002c-0.01,0-0.023-0.002-0.031-0.003
		c-0.166,0.044-0.312,0.077-0.447,0.126c-0.694,0.26-1.385,0.538-2.085,0.786c-0.247,0.088-0.516,0.109-0.831,0.174
		c0.053-0.223,0.082-0.375,0.127-0.522c0.357-1.129,0.715-2.26,1.08-3.388c0.199-0.609,0.371-1.232,0.723-1.782
		c0.079-0.125,0.16-0.278,0.03-0.387c-0.083-0.063-0.245-0.068-0.358-0.037c-0.718,0.195-1.433,0.393-2.143,0.613
		c-0.818,0.247-1.63,0.515-2.471,0.786c0-0.121-0.012-0.207,0.002-0.289c0.271-1.806,0.123-3.623,0.113-5.437
		c-0.003-0.16,0-0.332-0.182-0.426c-0.011,0.002-0.023,0.005-0.023,0.005c-0.008,0.002-0.014,0.002-0.026,0.006
		c-0.056,0.05-0.11,0.096-0.157,0.149c-0.627,0.673-1.315,1.275-2.078,1.785c-1.167,0.778-2.247,1.667-3.223,2.677
		c-0.637,0.658-1.223,1.361-1.83,2.045c-0.09,0.103-0.181,0.205-0.34,0.381c-0.291-1.444-0.457-2.808-0.47-4.275v-0.004
		c-0.016-0.01-0.029-0.022-0.04-0.036c-0.013-0.002-0.021-0.002-0.03-0.005c-0.172,0.1-0.295,0.158-0.392,0.242
		c-0.14,0.12-0.259,0.268-0.385,0.402c-0.612,0.636-0.98,1.439-1.473,2.158c-0.386,0.565-0.726,1.161-0.957,1.813
		c-0.311,0.87-0.891,1.583-1.354,2.422c-0.076-0.131-0.129-0.21-0.174-0.294c-0.184-0.339-0.345-0.688-0.549-1.017
		c-0.179-0.29-0.384-0.568-0.609-0.822c-0.216-0.243-0.368-0.194-0.435,0.112c-0.045,0.208-0.077,0.42-0.107,0.632
		c-0.164,1.074-0.324,2.146-0.481,3.22c-0.098,0.651-0.236,1.3-0.26,1.952c-0.048,1.199-0.023,2.4-0.032,3.601
		c0,0.109-0.01,0.214-0.023,0.406c-0.166-0.144-0.269-0.234-0.371-0.326c-0.757-0.698-1.512-1.398-2.271-2.09
		c-0.089-0.082-0.194-0.149-0.325-0.238l-0.061,0.004h-0.004c-0.018,0.013-0.035,0.027-0.054,0.042
		c-0.056,0.192-0.106,0.342-0.127,0.491c-0.042,0.312-0.068,0.625-0.086,0.939c-0.093,1.346,0.023,2.687,0.144,4.025
		c0.014,0.155,0.056,0.308,0.095,0.527c-0.231-0.064-0.365-0.1-0.5-0.14c-0.651-0.204-1.301-0.42-1.963-0.606
		c-0.497-0.142-0.604-0.034-0.525,0.465c0.03,0.197,0.062,0.397,0.104,0.591c0.242,1.042,0.479,2.088,0.736,3.127
		c0.179,0.722,0.392,1.432,0.591,2.148c0.095,0.34,0.195,0.677,0.303,1.055c-0.831,0.179-1.614,0.347-2.395,0.507
		c-0.547,0.113-1.094,0.205-1.641,0.322c-0.379,0.079-0.449,0.241-0.25,0.577c0.107,0.184,0.247,0.349,0.389,0.509
		c0.862,0.989,1.728,1.979,2.603,2.959c0.618,0.691,1.223,1.401,1.891,2.042c1.179,1.129,2.385,2.222,3.597,3.312
		c0.872,0.789,1.764,1.559,2.727,2.238l-0.092,0.083c-0.366,0.183-0.739,0.375-1.103,0.59c-2.744,1.661-5.637,3.424-8.838,5.387
		c-2.032,1.246-4.196,2.574-6.325,3.917c-0.574,0.362-1.14,0.749-1.688,1.125c-0.502,0.345-1.022,0.701-1.543,1.033
		c-2.942,1.878-5.532,3.779-7.921,5.81c-2.083,1.771-3.896,3.433-4.98,5.791l-0.008-0.137c-0.013-0.232-0.026-0.464-0.026-0.698
		c0-1.494,0-2.987-0.003-4.479c-0.002-3.762-0.008-7.651,0.017-11.477c0.019-2.985,0.065-6.023,0.113-8.959
		c0.022-1.4,0.044-2.799,0.062-4.199l0.011-0.657c0.011-0.811,0.021-1.648,0.008-2.474c-0.021-1.43-0.051-2.86-0.079-4.291
		c-0.031-1.552-0.063-3.104-0.086-4.659c-0.025-1.614-0.046-3.479-0.064-5.378l-0.016-1.394l-0.015-0.032l0.431,0.072
		c1.035,0.41,2.11,0.725,3.184,1.031c1.631,0.464,3.268,0.927,4.911,1.34c0.937,0.234,1.896,0.375,2.85,0.539
		c1.349,0.234,2.701,0.449,4.049,0.665c0.221,0.036,0.445,0.068,0.668,0.063c0.405-0.01,0.507-0.164,0.368-0.542
		c-0.199-0.544-0.418-1.082-0.623-1.625c-0.289-0.781-0.573-1.564-0.875-2.396c0.396-0.116,0.747-0.215,1.099-0.321
		c0.741-0.219,1.49-0.423,2.222-0.663c1.062-0.347,2.113-0.717,3.17-1.081c0.197-0.068,0.39-0.151,0.576-0.231
		c0.486-0.208,0.522-0.363,0.124-0.726c-0.531-0.479-1.081-0.934-1.622-1.398c-0.111-0.094-0.216-0.192-0.397-0.363
		c0.213-0.084,0.37-0.134,0.516-0.208c1.251-0.631,2.495-1.271,3.633-2.095c0.266-0.192,0.528-0.386,0.78-0.597
		c0.121-0.103,0.227-0.228,0.366-0.385c0-0.022,0.002-0.045,0.005-0.07l-0.003-0.002l-0.028-0.054
		c-0.152-0.07-0.271-0.125-0.392-0.158c-1.03-0.289-2.063-0.568-3.1-0.852c-0.14-0.037-0.276-0.08-0.492-0.145
		c0.161-0.114,0.247-0.188,0.345-0.246c1.055-0.67,2.129-1.314,3.163-2.019c0.56-0.382,1.057-0.865,1.577-1.309
		c0.859-0.734,1.717-1.47,2.573-2.206c0.172-0.147,0.339-0.289,0.5-0.445c0.234-0.228,0.195-0.388-0.139-0.443
		c-0.35-0.059-0.711-0.087-1.065-0.084c-0.402,0-0.802,0.051-1.199,0.079c-0.1,0.005-0.197,0.005-0.357,0.009
		c0.486-0.875,0.792-1.781,1.391-2.535c0.447-0.564,0.784-1.195,1.07-1.851c0.363-0.83,0.868-1.599,1.091-2.49
		c0.051-0.188,0.113-0.372,0.143-0.562c0.019-0.132,0.005-0.272-0.003-0.479c-0.008-0.007-0.013-0.015-0.021-0.023
		c-0.019-0.005-0.037-0.012-0.055-0.019c0,0,0,0-0.003,0c-1.298,0.804-2.598,1.412-4.036,1.951c0.072-0.237,0.111-0.372,0.15-0.51
		c0.271-0.916,0.565-1.824,0.797-2.748c0.353-1.414,0.537-2.861,0.581-4.324c0.026-0.955,0.179-1.896,0.429-2.818
		c0.019-0.071,0.028-0.147,0.042-0.224c-0.003-0.01-0.005-0.016-0.009-0.026c0,0-0.005-0.013-0.01-0.023
		c-0.187-0.109-0.334-0.01-0.479,0.076c-1.569,0.973-3.212,1.833-4.637,3.029l-0.39,0.079c-0.213-0.834-0.413-1.648-0.632-2.456
		c-0.202-0.747-0.42-1.489-0.646-2.23c-0.037-0.114-0.132-0.259-0.231-0.293c-0.167-0.058-0.255,0.1-0.322,0.239
		c-0.292,0.615-0.748,1.107-1.176,1.621c-0.794,0.947-1.593,1.888-2.393,2.828c-0.105,0.123-0.224,0.231-0.392,0.4
		c-0.115-0.313-0.247-0.562-0.305-0.83c-0.172-0.753-0.306-1.516-0.461-2.275c-0.031-0.145-0.079-0.291-0.137-0.463
		c-0.005-0.007-0.01-0.016-0.021-0.023l0,0c0.016,0.02,0.011,0.013,0-0.002c-0.005-0.009-0.017-0.021-0.021-0.032
		c-0.016-0.004-0.025-0.008-0.039-0.016c-0.003,0-0.005,0-0.008-0.001c-0.002,0.001-0.002,0.001-0.008,0.001
		c-0.003,0-0.006,0-0.008,0c-0.121,0.071-0.211,0.116-0.278,0.18c-0.331,0.32-0.665,0.638-0.981,0.974
		c-1.017,1.086-2.023,2.18-3.035,3.27c-0.271,0.296-0.545,0.593-0.818,0.886c-0.127,0.135-0.261,0.262-0.389,0.393
		c-0.027-0.017-0.051-0.034-0.076-0.051c0.03-0.318,0.078-0.636,0.095-0.956c0.058-0.997,0.106-1.99,0.152-2.987
		c0.084-1.841,0.186-3.683,0.228-5.526c0.035-1.53,0.035-3.062-0.021-4.591c-0.037-0.964-0.202-1.923-0.327-2.88
		c-0.028-0.233-0.106-0.466-0.201-0.681c-0.076-0.177-0.234-0.184-0.346-0.022c-0.097,0.147-0.167,0.312-0.225,0.481
		c-0.481,1.396-1.068,2.745-1.761,4.046c-0.069,0.127-0.153,0.25-0.27,0.432c-0.013-0.163-0.022-0.263-0.031-0.363
		c-0.047-0.623-0.054-1.25-0.155-1.864c-0.241-1.454-0.518-2.899-0.805-4.346c-0.162-0.816-0.389-1.62-0.578-2.432
		c-0.082-0.347-0.134-0.701-0.218-1.048c-0.035-0.136-0.098-0.266-0.153-0.396c-0.028-0.021-0.058-0.042-0.083-0.054
		c-0.003,0-0.006-0.001-0.008-0.001H193.1c-0.21,0.079-0.243,0.241-0.297,0.396c-0.468,1.379-0.938,2.759-1.417,4.168
		c-0.031-0.11-0.076-0.214-0.082-0.321c-0.102-1.536-0.642-2.958-1.155-4.388c-0.692-1.932-1.376-3.87-2.064-5.807
		c-0.071-0.193-0.14-0.394-0.236-0.576c-0.042-0.08-0.152-0.174-0.225-0.17c-0.074,0.004-0.165,0.117-0.197,0.201
		c-0.176,0.505-0.32,1.023-0.502,1.527c-0.445,1.261-0.92,2.516-1.369,3.777c-0.315,0.883-0.592,1.78-0.925,2.655
		c-0.295,0.774-0.652,1.526-1.008,2.349c-0.121-0.126-0.197-0.184-0.247-0.263c-0.684-1.015-1.299-2.064-1.604-3.268
		c-0.045-0.189-0.061-0.466-0.318-0.489c-0.281-0.029-0.359,0.255-0.426,0.444c-0.263,0.728-0.562,1.454-0.712,2.206
		c-0.271,1.355-0.5,2.717-0.494,4.111c0.005,1.011-0.084,2.022-0.137,3.033c-0.004,0.083-0.035,0.167-0.059,0.283
		c-0.688-0.454-1.343-0.882-1.995-1.318c-0.368-0.25-0.729-0.512-1.094-0.766c-0.271-0.183-0.423-0.143-0.468,0.18
		c-0.063,0.484-0.095,0.978-0.089,1.467c0.016,1.038,0.029,2.082,0.102,3.119c0.066,0.889,0.219,1.769,0.334,2.653
		c0.142,1.092,0.308,2.18,0.426,3.274c0.157,1.419,0.281,2.842,0.416,4.264c0.002,0.038-0.016,0.079-0.04,0.182
		c-0.573-0.6-1.139-1.144-1.641-1.743c-0.765-0.911-1.472-1.871-2.221-2.792c-0.416-0.505-0.871-0.98-1.315-1.458
		c-0.071-0.077-0.171-0.134-0.295-0.212l-0.002-0.001c-0.019-0.002-0.037-0.007-0.055-0.008c-0.008,0-0.019,0-0.029,0l-0.006,0.001
		c-0.013,0.012-0.029,0.023-0.045,0.03c-0.131,0.647-0.123,1.238-0.181,1.825c-0.063,0.599-0.139,1.196-0.216,1.863
		c-0.276-0.228-0.484-0.418-0.71-0.585c-1.611-1.207-3.052-2.606-4.548-3.947c-0.076-0.068-0.152-0.139-0.234-0.202
		c-0.245-0.195-0.468-0.131-0.515,0.173c-0.047,0.308-0.071,0.625-0.05,0.934c0.09,1.2,0.2,2.399,0.3,3.598
		c0.029,0.377,0.04,0.757,0.066,1.213c-0.705-0.393-1.335-0.721-1.946-1.086c-1.435-0.869-2.863-1.759-4.295-2.637
		c-0.174-0.105-0.358-0.3-0.561-0.163c-0.031,0.021-0.05,0.042-0.062,0.063c-0.011,0.031-0.016,0.063-0.024,0.097
		c0.003,0.013,0.005,0.032,0.003,0.05c0,0.008,0,0.016,0,0.023c0,0.006,0.002,0.008,0.002,0.012
		c-0.002,0.078,0.002,0.154,0.01,0.229c0.011,0.036,0.019,0.07,0.023,0.107c0.155,0.923,0.271,1.856,0.487,2.767
		c0.31,1.316,0.702,2.612,1.046,3.921c0.247,0.935,0.479,1.875,0.715,2.813c0.019,0.065,0.013,0.142,0.019,0.236
		c-0.168-0.05-0.31-0.081-0.444-0.133c-1.436-0.556-2.926-0.792-4.456-0.789c-0.397,0.002-0.513,0.183-0.26,0.495
		c0.4,0.497,0.817,0.986,1.285,1.42c0.757,0.703,1.417,1.484,2.027,2.314c0.579,0.792,1.162,1.584,1.743,2.378
		c0.076,0.103,0.139,0.217,0.252,0.391c-0.429,0.005-0.773-0.008-1.115,0.016c-0.786,0.054-1.567,0.123-2.356,0.189
		c-0.084,0.008-0.176,0.029-0.257,0.061c-0.184,0.071-0.227,0.242-0.095,0.389c0.089,0.096,0.208,0.168,0.318,0.241
		c0.838,0.54,1.695,1.051,2.51,1.624c1.575,1.097,3.192,2.127,4.84,3.109c0.368,0.221,0.742,0.437,1.159,0.684
		c-0.16,0.129-0.278,0.238-0.407,0.326c-0.676,0.466-1.354,0.923-2.029,1.386c-0.608,0.416-0.603,0.493-0.014,0.936
		c0.915,0.688,1.925,1.182,2.984,1.598c0.313,0.122,0.613,0.276,0.938,0.427c-0.634,0.872-1.53,1.421-2.056,2.296
		c-0.016,0.032-0.003,0.083-0.003,0.174l0,0c0.003,0.005,0.003,0.012,0.006,0.016c0.21,0.095,0.426,0.218,0.657,0.292
		c0.739,0.234,1.48,0.448,2.224,0.67c1.412,0.423,2.824,0.846,4.236,1.272c0.068,0.02,0.134,0.051,0.224,0.086
		c0.002,0.332-0.124,0.613-0.242,0.899c-0.35,0.854-0.7,1.706-1.036,2.564c-0.126,0.328-0.029,0.439,0.321,0.417
		c0.073-0.002,0.147-0.013,0.221-0.023c1.737-0.24,3.478-0.472,5.213-0.716c0.986-0.14,1.969-0.299,2.952-0.444
		c0.86-0.129,1.688-0.368,2.504-0.643c0.58-0.193,1.172-0.349,1.758-0.513c0.189-0.054,0.382-0.104,0.573-0.156l0.014,0.144
		c0.021,0.687,0.036,1.338,0.045,1.899c0.054,4.802,0.112,10.39,0.107,15.961c-0.006,3.667-0.035,7.395-0.063,11
		c-0.021,2.731-0.044,5.466-0.056,8.198c-0.01,2.302-0.002,4.639,0.008,6.899c0.007,1.316,0.011,2.63,0.014,3.946
		c-0.003,0-0.003,0-0.003,0l-0.025-0.043c-0.116-0.184-0.229-0.365-0.334-0.55c-0.928-1.638-1.72-2.903-3.46-4.302l-0.207-0.164
		c-2.827-2.268-5.748-4.612-8.86-6.627c-3.286-2.126-6.573-4.373-9.751-6.544c-1.638-1.119-3.273-2.236-4.916-3.343
		c-1.073-0.723-1.988-1.308-2.958-1.807c-0.014-0.007-0.029-0.014-0.042-0.021l-0.155-0.081c0.631-0.505,1.241-1.036,1.843-1.578
		c1.211-1.091,2.418-2.184,3.593-3.312c0.671-0.641,1.273-1.351,1.891-2.042c0.875-0.98,1.741-1.971,2.605-2.959
		c0.142-0.16,0.284-0.325,0.392-0.509c0.197-0.336,0.126-0.498-0.255-0.577c-0.541-0.117-1.093-0.209-1.638-0.322
		c-0.781-0.161-1.562-0.329-2.392-0.507c0.105-0.378,0.202-0.715,0.297-1.055c0.2-0.717,0.413-1.427,0.594-2.148
		c0.258-1.04,0.495-2.085,0.734-3.127c0.044-0.194,0.076-0.394,0.108-0.591c0.079-0.499-0.029-0.607-0.529-0.465
		c-0.657,0.186-1.309,0.402-1.964,0.606c-0.131,0.04-0.265,0.075-0.499,0.14c0.042-0.22,0.083-0.373,0.097-0.527
		c0.121-1.338,0.236-2.679,0.147-4.025c-0.024-0.313-0.047-0.627-0.089-0.939c-0.021-0.149-0.071-0.299-0.129-0.491
		c-0.016-0.015-0.034-0.029-0.053-0.042h-0.002l-0.06-0.004c-0.134,0.089-0.24,0.157-0.326,0.238
		c-0.76,0.691-1.517,1.392-2.274,2.09c-0.1,0.092-0.205,0.182-0.368,0.326c-0.013-0.191-0.026-0.297-0.026-0.406
		c-0.005-1.2,0.016-2.402-0.028-3.601c-0.026-0.652-0.166-1.301-0.26-1.952c-0.158-1.074-0.321-2.146-0.484-3.22
		c-0.031-0.212-0.06-0.425-0.105-0.632c-0.068-0.306-0.221-0.355-0.434-0.112c-0.226,0.254-0.431,0.532-0.613,0.822
		c-0.203,0.329-0.365,0.678-0.549,1.017c-0.042,0.084-0.095,0.163-0.171,0.294c-0.465-0.84-1.046-1.552-1.351-2.422
		c-0.234-0.652-0.576-1.248-0.962-1.813c-0.492-0.719-0.857-1.522-1.47-2.158c-0.129-0.134-0.245-0.283-0.384-0.402
		c-0.097-0.084-0.221-0.142-0.392-0.242c-0.011,0.003-0.021,0.003-0.029,0.005c-0.016,0.013-0.029,0.025-0.045,0.036v0.004
		c-0.013,1.467-0.176,2.831-0.471,4.275c-0.157-0.176-0.244-0.279-0.336-0.381c-0.61-0.684-1.196-1.387-1.83-2.045
		c-0.976-1.01-2.056-1.898-3.224-2.677c-0.762-0.51-1.451-1.112-2.077-1.785c-0.05-0.054-0.105-0.1-0.161-0.149
		c-0.007-0.003-0.016-0.003-0.023-0.006c0,0-0.013-0.002-0.026-0.005c-0.181,0.094-0.179,0.266-0.179,0.426
		c-0.011,1.814-0.158,3.631,0.113,5.437c0.013,0.083,0,0.168,0,0.289c-0.839-0.271-1.651-0.539-2.469-0.786
		c-0.709-0.22-1.425-0.418-2.142-0.613c-0.113-0.031-0.276-0.026-0.358,0.037c-0.134,0.109-0.05,0.262,0.029,0.387
		c0.352,0.549,0.523,1.172,0.72,1.782c0.365,1.128,0.723,2.259,1.081,3.388c0.047,0.147,0.076,0.3,0.129,0.522
		c-0.316-0.065-0.586-0.086-0.834-0.174c-0.699-0.249-1.39-0.526-2.085-0.786c-0.133-0.049-0.278-0.082-0.444-0.126
		c-0.01,0.001-0.021,0.003-0.031,0.003v0.002c0.023-0.002,0.015-0.002-0.003,0c-0.011,0-0.026,0.001-0.034,0.002
		c-0.013,0.008-0.024,0.016-0.034,0.022c-0.003,0.001-0.005,0.004-0.008,0.006c0,0.003,0,0.005,0,0.005
		c-0.003,0.007-0.005,0.007-0.005,0.009c-0.005,0.134-0.013,0.23,0.005,0.318c0.089,0.433,0.179,0.867,0.292,1.295
		c0.365,1.381,0.741,2.756,1.115,4.136c0.1,0.374,0.202,0.744,0.3,1.116c0.044,0.172,0.081,0.346,0.123,0.518
		c-0.029,0.012-0.052,0.024-0.079,0.035c-0.242-0.189-0.481-0.386-0.731-0.564c-0.781-0.554-1.564-1.102-2.351-1.645
		c-1.459-1.007-2.905-2.031-4.382-3.003c-1.225-0.807-2.472-1.59-3.747-2.323c-0.802-0.461-1.667-0.816-2.511-1.203
		c-0.202-0.093-0.434-0.148-0.654-0.182c-0.187-0.029-0.271,0.095-0.195,0.269c0.068,0.152,0.168,0.297,0.276,0.43
		c0.889,1.102,1.688,2.268,2.396,3.494c0.068,0.123,0.123,0.251,0.215,0.439c-0.142-0.072-0.229-0.115-0.312-0.159
		c-0.532-0.276-1.044-0.593-1.596-0.821c-1.304-0.545-2.621-1.062-3.946-1.563c-0.747-0.283-1.514-0.51-2.271-0.77
		c-0.326-0.11-0.639-0.247-0.965-0.355c-0.129-0.042-0.266-0.057-0.4-0.075c-0.031,0.009-0.062,0.022-0.086,0.039
		c0,0.002-0.002,0.003-0.005,0.005v0.002c-0.044,0.21,0.068,0.321,0.171,0.443c0.883,1.085,1.767,2.17,2.668,3.28
		c-0.107-0.034-0.213-0.05-0.302-0.097c-1.304-0.699-2.734-0.986-4.159-1.296c-1.93-0.42-3.852-0.853-5.779-1.279
		c-0.195-0.043-0.392-0.088-0.589-0.104c-0.087-0.007-0.218,0.037-0.252,0.1c-0.034,0.058,0.008,0.192,0.063,0.259
		c0.323,0.401,0.667,0.782,0.986,1.188c0.799,1.008,1.583,2.029,2.376,3.039c0.558,0.708,1.146,1.389,1.688,2.106
		c0.476,0.637,0.91,1.31,1.398,2.017c-0.163,0.034-0.252,0.066-0.339,0.068c-1.178,0.042-2.343,0.005-3.476-0.363
		c-0.179-0.058-0.41-0.187-0.563,0.009c-0.166,0.214,0.026,0.423,0.145,0.577c0.458,0.583,0.897,1.196,1.433,1.704
		c0.962,0.909,1.954,1.793,3.095,2.496c0.823,0.511,1.601,1.101,2.397,1.655c0.065,0.047,0.115,0.113,0.197,0.191
		c-0.718,0.329-1.401,0.644-2.087,0.952c-0.389,0.176-0.789,0.333-1.18,0.502c-0.287,0.126-0.334,0.268-0.092,0.471
		c0.36,0.299,0.747,0.577,1.149,0.82c0.852,0.519,1.706,1.041,2.589,1.509c0.754,0.396,1.551,0.723,2.327,1.08
		c0.962,0.439,1.932,0.861,2.882,1.321c1.235,0.595,2.458,1.22,3.683,1.836c0.032,0.016,0.055,0.053,0.126,0.124
		c-0.778,0.158-1.509,0.344-2.25,0.447c-1.133,0.157-2.275,0.243-3.408,0.386c-0.623,0.076-1.241,0.205-1.856,0.324
		c-0.1,0.019-0.197,0.071-0.323,0.129c0,0.002,0,0.005-0.003,0.005c-0.011,0.014-0.023,0.024-0.034,0.04
		c-0.005,0.008-0.01,0.016-0.016,0.025c0,0.001,0,0.004,0,0.004c0.003,0.016,0.003,0.034,0.003,0.05
		c0.458,0.438,0.943,0.734,1.388,1.08c0.458,0.354,0.905,0.723,1.41,1.124c-0.326,0.108-0.587,0.182-0.839,0.28
		c-1.8,0.697-3.675,1.153-5.526,1.689c-0.097,0.026-0.194,0.056-0.289,0.087c-0.279,0.1-0.342,0.313-0.119,0.507
		c0.224,0.194,0.471,0.378,0.731,0.519c1.023,0.539,2.056,1.057,3.084,1.59c0.321,0.168,0.636,0.352,1.017,0.565
		c-0.678,0.371-1.264,0.717-1.872,1.025c-1.44,0.729-2.892,1.438-4.335,2.156c-0.174,0.087-0.429,0.139-0.421,0.373
		c0.002,0.032,0.008,0.058,0.019,0.084c0.023,0.021,0.044,0.044,0.068,0.066c0.016,0.005,0.028,0.013,0.044,0.023
		c0.005,0.002,0.013,0.008,0.019,0.011c0.002,0.002,0.008,0.002,0.01,0.005c0.061,0.042,0.126,0.073,0.192,0.104
		c0.034,0.014,0.062,0.026,0.097,0.037c0.831,0.345,1.648,0.726,2.498,1.015c1.23,0.421,2.487,0.763,3.725,1.149
		c0.889,0.273,1.77,0.563,2.653,0.849c0.066,0.021,0.121,0.066,0.205,0.108c-0.129,0.113-0.226,0.21-0.336,0.295
		c-1.184,0.883-2.138,1.975-2.916,3.224c-0.2,0.323-0.111,0.507,0.271,0.463c0.61-0.071,1.223-0.166,1.812-0.323
		c0.959-0.258,1.93-0.397,2.916-0.468c0.941-0.068,1.882-0.14,2.824-0.207c0.124-0.007,0.247-0.005,0.447-0.006
		c-0.215,0.353-0.399,0.623-0.552,0.915c-0.357,0.665-0.702,1.338-1.046,2.011c-0.04,0.073-0.068,0.16-0.087,0.242
		c-0.035,0.184,0.081,0.308,0.271,0.273c0.123-0.024,0.241-0.082,0.357-0.137c0.865-0.402,1.72-0.841,2.601-1.215
		c1.696-0.718,3.357-1.511,4.998-2.352c0.365-0.188,0.73-0.378,1.146-0.594c0.024,0.196,0.053,0.347,0.058,0.499
		c0.035,0.785,0.061,1.568,0.092,2.357c0.029,0.704,0.097,0.736,0.757,0.486c1.025-0.395,1.943-0.962,2.818-1.617
		c0.258-0.189,0.539-0.352,0.828-0.542c0.387,0.959,0.376,1.966,0.823,2.839c0.016,0.032,0.063,0.047,0.134,0.095h0.003
		c0.008,0,0.01,0.003,0.016,0.003c0.184-0.122,0.395-0.234,0.573-0.384c0.565-0.483,1.12-0.98,1.68-1.469
		c1.062-0.934,2.127-1.867,3.192-2.799c0.052-0.044,0.11-0.081,0.187-0.137c0.268,0.166,0.434,0.415,0.604,0.655
		c0.518,0.716,1.036,1.437,1.562,2.149c0.2,0.271,0.341,0.25,0.502-0.047c0.034-0.063,0.063-0.126,0.094-0.191
		c0.692-1.537,1.386-3.07,2.075-4.608c0.389-0.873,0.76-1.756,1.144-2.629c0.334-0.763,0.56-1.559,0.752-2.366
		c0.142-0.568,0.312-1.128,0.478-1.688c0.158-0.536,0.315-1.07,0.484-1.601c0.013-0.042,0.044-0.079,0.065-0.121l0.234,0.113
		c1.288,0.854,2.579,1.697,3.872,2.54c0.957,0.625,1.917,1.251,2.874,1.879c1.262,0.832,2.524,1.669,3.783,2.507
		c2.439,1.621,4.966,3.298,7.475,4.905c2.471,1.585,4.942,3.39,7.553,5.519c4.59,3.746,6.72,8.286,6.509,13.878
		c-0.047,1.218-0.037,2.458-0.026,3.656c0.005,0.689,0.014,1.378,0.008,2.066c-0.003,0.457-0.021,0.926-0.04,1.377
		c-0.012,0.293-0.025,0.587-0.03,0.881c-0.009,0.277-0.019,0.555-0.029,0.831c-0.028,0.717-0.056,1.461-0.024,2.192
		c0.043,0.951,0.734,1.591,1.717,1.591c0.264,0,0.526-0.048,0.79-0.141c0.354-0.125,0.754-0.267,1.104-0.495
		c0.749-0.482,0.876-0.981,0.437-1.722c-0.435-0.742-0.844-1.525-0.909-2.222c-0.043-0.43-0.069-0.86-0.098-1.291
		c-0.021-0.321-0.042-0.644-0.069-0.965l-0.012-0.17c-0.188-2.346-0.303-3.764,0.533-6.054c0.032-0.086,0.007-0.179-0.326-0.975
		c-0.098-0.231-0.218-0.52-0.229-0.562c0.021-1.812,0.552-3.606,1.672-5.65c0.617-1.123,1.304-2.078,2.101-2.919
		c2.346-2.489,5.136-4.525,7.593-6.322c4.541-3.312,9.438-6.233,14.174-9.058l1.096-0.653c0.7-0.417,1.399-0.831,2.098-1.245
		c1.292-0.762,2.624-1.552,3.929-2.345c0.184-0.113,0.326-0.212,0.436-0.302l0.09-0.082c0.098,0.318,0.194,0.638,0.289,0.957
		c0.166,0.56,0.339,1.12,0.479,1.688c0.192,0.807,0.421,1.603,0.752,2.366c0.385,0.873,0.755,1.756,1.144,2.629
		c0.687,1.538,1.383,3.071,2.074,4.608c0.031,0.065,0.061,0.128,0.093,0.191c0.162,0.297,0.305,0.318,0.501,0.047
		c0.532-0.712,1.047-1.433,1.562-2.149c0.174-0.241,0.338-0.489,0.608-0.655c0.073,0.056,0.134,0.092,0.187,0.137
		c1.064,0.932,2.127,1.866,3.191,2.799c0.561,0.489,1.112,0.986,1.68,1.469c0.179,0.15,0.39,0.263,0.57,0.384
		c0.009,0,0.014-0.003,0.019-0.003l0,0c0.074-0.047,0.121-0.063,0.137-0.095c0.447-0.873,0.439-1.88,0.82-2.839
		c0.292,0.189,0.571,0.353,0.831,0.542c0.873,0.655,1.793,1.223,2.818,1.617c0.66,0.25,0.729,0.218,0.755-0.486
		c0.034-0.789,0.06-1.572,0.092-2.357c0.008-0.152,0.037-0.303,0.061-0.499c0.412,0.215,0.778,0.406,1.146,0.594
		c1.641,0.84,3.299,1.634,4.997,2.352c0.881,0.374,1.735,0.812,2.598,1.215c0.118,0.055,0.236,0.113,0.36,0.137
		c0.187,0.034,0.305-0.089,0.271-0.273c-0.019-0.082-0.048-0.168-0.088-0.242c-0.344-0.673-0.69-1.346-1.043-2.011
		c-0.157-0.292-0.34-0.562-0.556-0.915c0.197,0.001,0.321-0.001,0.447,0.006c0.941,0.067,1.883,0.139,2.824,0.207
		c0.982,0.071,1.955,0.21,2.915,0.468c0.592,0.158,1.202,0.252,1.809,0.323c0.382,0.044,0.475-0.14,0.271-0.463
		c-0.776-1.249-1.729-2.341-2.913-3.224c-0.11-0.084-0.208-0.182-0.337-0.295c0.082-0.042,0.143-0.087,0.203-0.108
		c0.883-0.286,1.766-0.576,2.652-0.849c1.24-0.386,2.497-0.728,3.726-1.149c0.849-0.289,1.67-0.67,2.5-1.015
		c0.031-0.011,0.066-0.023,0.1-0.037c0.063-0.031,0.129-0.062,0.189-0.104c0-0.003,0.005-0.003,0.008-0.005
		c0.008-0.003,0.016-0.008,0.021-0.011c0.019-0.01,0.029-0.019,0.046-0.023c0.021-0.021,0.044-0.045,0.065-0.066
		c0.011-0.026,0.018-0.053,0.021-0.084c0.009-0.234-0.246-0.286-0.42-0.373c-1.443-0.718-2.896-1.427-4.336-2.156
		c-0.607-0.308-1.193-0.654-1.874-1.025c0.384-0.213,0.696-0.397,1.02-0.565c1.025-0.534,2.059-1.052,3.082-1.59
		c0.263-0.14,0.506-0.324,0.732-0.519c0.225-0.194,0.16-0.407-0.118-0.507c-0.095-0.031-0.191-0.061-0.289-0.087
		c-1.851-0.536-3.726-0.992-5.525-1.689c-0.253-0.099-0.513-0.172-0.839-0.28c0.502-0.401,0.952-0.77,1.409-1.124
		c0.444-0.346,0.928-0.642,1.39-1.08c-0.002-0.016-0.002-0.034,0-0.05c0,0,0-0.002,0-0.004c-0.007-0.009-0.01-0.017-0.015-0.025
		c-0.014-0.016-0.024-0.026-0.034-0.04c-0.003,0-0.003-0.002-0.005-0.005c-0.127-0.058-0.225-0.11-0.321-0.129
		c-0.615-0.119-1.233-0.248-1.856-0.324c-1.133-0.143-2.274-0.229-3.407-0.386c-0.741-0.103-1.472-0.289-2.25-0.447
		c0.067-0.071,0.095-0.108,0.128-0.124c1.223-0.616,2.445-1.241,3.679-1.836c0.952-0.46,1.922-0.882,2.884-1.321
		c0.776-0.357,1.572-0.684,2.326-1.08c0.885-0.468,1.735-0.99,2.59-1.509c0.4-0.243,0.786-0.521,1.149-0.82
		c0.241-0.203,0.194-0.345-0.093-0.471c-0.392-0.169-0.79-0.326-1.18-0.502c-0.686-0.308-1.367-0.624-2.091-0.952
		c0.082-0.079,0.135-0.145,0.2-0.191c0.797-0.555,1.575-1.144,2.398-1.655c1.138-0.703,2.132-1.587,3.094-2.496
		c0.534-0.507,0.973-1.12,1.431-1.704c0.12-0.154,0.312-0.363,0.145-0.577c-0.149-0.196-0.381-0.067-0.558-0.009
		c-1.136,0.368-2.304,0.405-3.479,0.363c-0.089-0.002-0.176-0.034-0.339-0.068c0.489-0.707,0.92-1.38,1.396-2.017
		c0.544-0.717,1.134-1.398,1.69-2.106c0.797-1.009,1.58-2.031,2.377-3.039c0.318-0.405,0.663-0.787,0.986-1.188
		c0.052-0.067,0.094-0.201,0.065-0.259C267.013,89.116,266.879,89.072,266.795,89.079z"/>
	<g>
		<path fill="#FFFFFF" d="M209.163,74.559c-0.005-0.013-0.012-0.022-0.025-0.029c-0.011-0.005-0.023-0.005-0.037,0l-0.086,0.031
			c-1.752,0.667-3.54,0.992-5.47,0.992c-0.825,0-1.687-0.062-2.562-0.185l0.425-0.347c0.806-0.649,1.633-1.319,2.52-1.89
			c0.957-0.615,1.803-1.391,2.621-2.143l0.567-0.52c0.287-0.261,0.584-0.532,0.862-0.812c0.203-0.201,0.397-0.419,0.565-0.611
			l0.24-0.266c0.007-0.009,0.012-0.022,0.012-0.037l-0.012-0.139c0-0.006-0.004-0.014-0.007-0.019l-0.028-0.053
			c-0.005-0.009-0.011-0.016-0.021-0.021l-0.1-0.05c-0.009-0.005-0.019-0.008-0.027-0.005l-0.056,0.007c-0.07,0-0.165,0-0.238,0.056
			c-0.131,0.095-0.255,0.205-0.373,0.31l-0.989,0.876c-0.675,0.595-1.372,1.211-2.066,1.808c-0.149,0.129-0.32,0.24-0.494,0.353
			c-0.123,0.079-0.255,0.163-0.376,0.255l-3.05,2.295c-0.152,0.113-0.307,0.224-0.474,0.339l-0.186,0.128
			c-0.022-0.05-0.041-0.093-0.048-0.131c-0.04-0.213-0.061-0.403-0.071-0.579c-0.078-1.214-0.133-2.518-0.018-3.831
			c0.028-0.306,0.039-0.607,0.049-0.862c0-0.071-0.015-0.134-0.049-0.258c-0.003-0.011-0.009-0.021-0.019-0.026l-0.101-0.075
			c-0.007-0.004-0.013-0.007-0.023-0.009l-0.058-0.009c-0.013-0.005-0.028,0.001-0.039,0.012l-0.112,0.102
			c-0.007,0.005-0.012,0.012-0.015,0.02l-0.022,0.066c-0.037,0.094-0.072,0.187-0.091,0.288c-0.149,0.972-0.28,1.926-0.226,2.926
			c0.024,0.404,0.011,0.816-0.003,1.215c-0.008,0.226-0.01,0.425-0.012,0.722c-0.004,0.197-0.007,0.399,0.021,0.597
			c0.026,0.197-0.037,0.308-0.266,0.458c-1.622,1.06-3.298,2.156-5.035,3.083c-0.169,0.089-0.329,0.186-0.519,0.294l-0.073,0.045
			c0.004-0.094,0.008-0.169,0.026-0.237l0.045-0.173c0.189-0.732,0.363-1.392,0.558-2.057c0.187-0.632,0.387-1.261,0.582-1.868
			l0.251-0.796c0.039-0.127,0.082-0.271,0.036-0.471c-0.002-0.008-0.007-0.017-0.015-0.024l-0.095-0.089
			c-0.021-0.021-0.051-0.019-0.069,0.001l-0.108,0.115c-0.041,0.041-0.096,0.097-0.13,0.168c-0.584,1.209-1.062,2.55-1.504,4.217
			c-0.124,0.472-0.242,0.965-0.356,1.505c-0.029,0.135-0.088,0.218-0.196,0.285l-0.557,0.359c-0.218,0.141-0.444,0.288-0.671,0.424
			c-1.338,0.819-2.75,1.488-3.835,1.979l-0.304,0.145c0.006-0.109,0.19-3.505,0.234-4.402c0.011-0.213,0.098-0.368,0.303-0.549
			c1.075-0.934,2.311-2.039,3.355-3.335c0.223-0.278,0.236-0.31,0.302-0.683c0-0.015-0.003-0.029-0.01-0.04l-0.085-0.101
			c-0.013-0.015-0.031-0.02-0.05-0.016l-0.132,0.036c-0.073,0.021-0.152,0.041-0.211,0.101l-0.849,0.851l-0.031,0.034
			c-0.434,0.438-0.881,0.889-1.333,1.323c-0.298,0.289-0.623,0.565-0.914,0.812l-0.28,0.292l0.037-1.437l0.009-0.369
			c0.016-0.747,0.028-1.494,0.049-2.237c0.007-0.15,0.039-0.288,0.09-0.368c0.329-0.498,0.679-1.001,0.989-1.445
			c0,0,0.522-0.739,0.688-0.966l0.023-0.033c0.326-0.45,0.662-0.915,0.962-1.395c0.509-0.812,1.015-1.704,1.551-2.724
			c0.635-1.193,1.01-2.502,1.32-3.74l0.058-0.22c0.029-0.108,0.059-0.221,0.077-0.334c0.013-0.084,0.005-0.164-0.014-0.335
			c-0.002-0.012-0.01-0.024-0.019-0.032l-0.104-0.09c-0.007-0.003-0.011-0.006-0.017-0.008l-0.055-0.019
			c-0.011-0.005-0.021-0.005-0.034,0l-0.116,0.053c-0.005,0.002-0.013,0.008-0.015,0.012l-0.039,0.045
			c-0.054,0.059-0.113,0.125-0.146,0.211c-0.113,0.318-0.215,0.652-0.304,0.947c-0.326,1.084-0.794,2.496-1.565,3.801
			c-0.199,0.334-0.394,0.676-0.581,1.007l-0.054,0.095c-0.329,0.576-0.669,1.173-1.031,1.738c-0.343,0.533-0.736,1.047-1.123,1.549
			l-0.441,0.581c-0.045,0.058-0.094,0.108-0.158,0.168V71.11c-0.008-0.183-0.013-0.342-0.013-0.502l0.003-1.083
			c0.005-0.7,0.01-1.422-0.017-2.135c-0.039-1.203-0.11-2.421-0.22-3.723c-0.035-0.434,0.058-0.81,0.299-1.218
			c0.581-0.985,1.072-2.018,1.465-3.072c0.352-0.925,0.741-2.027,0.956-3.178c0.045-0.234,0.084-0.473,0.123-0.702l0.009-0.064
			l-0.005-0.367c0-0.02-0.011-0.037-0.029-0.045c-0.065-0.029-0.123-0.042-0.179-0.042c-0.202,0-0.258,0.187-0.28,0.266
			c-0.004,0.011-0.277,0.934-0.346,1.148c-0.095,0.293-0.187,0.588-0.277,0.885l-0.009,0.026c-0.224,0.718-0.454,1.462-0.742,2.169
			c-0.229,0.563-0.528,1.113-0.816,1.646l-0.014,0.019c-0.097,0.184-0.202,0.372-0.273,0.566c-0.011-0.062-0.021-0.125-0.023-0.193
			l-0.01-0.197c-0.048-0.842-0.096-1.712-0.135-2.569l-0.103-2.443c-0.053-1.261-0.105-2.563-0.168-3.847
			c-0.054-1.105-0.119-2.228-0.182-3.312l-0.066-1.095c-0.003-0.084-0.015-0.169-0.028-0.259l-0.032-0.239
			c-0.002-0.015-0.01-0.025-0.021-0.033c-0.013-0.009-0.026-0.009-0.039-0.008l-0.095,0.023c-0.355,0.089-0.363,0.381-0.365,0.489
			c-0.011,0.321-0.019,0.7-0.009,1.081l0.024,0.771l0.003,0.013c0.081,2.732,0.168,5.559,0.275,8.335
			c0.024,0.656,0.084,1.324,0.142,1.968c0.028,0.329,0.058,0.654,0.084,0.983c0.014,0.147,0.025,0.304,0.017,0.463l-0.098-0.102
			c-0.211-0.218-0.427-0.443-0.62-0.688c-0.379-0.47-0.768-0.96-1.036-1.522c-0.561-1.177-1.131-2.354-1.712-3.555l-0.339-0.669
			c-0.007-0.017-0.026-0.026-0.044-0.026c-0.021-0.004-0.035,0.012-0.042,0.029l-0.074,0.166l-0.071,0.144
			c-0.047,0.087-0.086,0.163-0.065,0.251c0.04,0.2,0.103,0.401,0.187,0.594l0.289,0.673l0.009,0.018
			c0.302,0.705,0.614,1.434,0.953,2.138c0.687,1.416,1.394,2.477,2.235,3.336c0.287,0.293,0.434,0.62,0.491,1.091
			c0.092,0.777,0.092,1.564,0.09,2.327c-0.002,0.44-0.002,0.938,0.019,1.428c0.039,0.978,0.058,1.972,0.074,2.85l0.028,1.304
			c0,0.061,0,0.12-0.003,0.173c-1.504-1.935-2.598-3.5-3.539-5.061c-1.23-2.038-2.171-4.183-2.854-5.824l-0.039-0.094
			c-0.006-0.013-0.016-0.023-0.029-0.027c-0.014-0.005-0.029-0.004-0.039,0.005l-0.087,0.054c-0.345,0.213-0.245,0.494-0.192,0.642
			l0.103,0.296c0.124,0.36,0.25,0.733,0.418,1.081c0.497,1.038,1.036,2.108,1.599,3.183c0.901,1.725,2.026,3.485,3.542,5.541
			c0.1,0.136,0.201,0.27,0.307,0.401l0.016,0.024c0.169,0.215,0.34,0.439,0.491,0.67c0.104,0.155,0.229,0.383,0.232,0.587
			c0.016,0.937,0.004,1.889-0.003,2.809l-0.005,0.615c0,0.037-0.007,0.074-0.011,0.116l-0.281-0.24
			c-0.334-0.286-0.646-0.554-0.946-0.84c-0.561-0.537-1.11-1.075-1.669-1.625l-1.031-1.007c-0.079-0.076-0.168-0.134-0.264-0.195
			c-0.004-0.002-0.008-0.005-0.012-0.005l-0.227-0.064c-0.016-0.004-0.035,0.001-0.047,0.013l-0.135,0.138
			c-0.016,0.017-0.019,0.043-0.006,0.063l0.127,0.17c0.061,0.085,0.121,0.172,0.194,0.248l4.067,4.296
			c0.128,0.134,0.184,0.275,0.176,0.441l-0.104,2.025l-0.181,2.763c-0.037-0.01-0.071-0.021-0.097-0.037
			c-1.378-0.718-3.2-1.667-5.048-2.638c-0.213-0.114-0.427-0.233-0.642-0.356l-0.026-0.016c-0.258-0.146-0.525-0.297-0.797-0.434
			c-0.315-0.16-0.465-0.386-0.502-0.76c-0.121-1.182-0.263-2.342-0.42-3.451c-0.074-0.51-0.182-1.021-0.284-1.515l-0.129-0.634
			c-0.034-0.171-0.079-0.402-0.405-0.512c-0.013-0.003-0.029-0.003-0.042,0.004c-0.213,0.132-0.174,0.319-0.137,0.486l0.457,4.517
			c0.021,0.226,0.026,0.458,0.034,0.684l0.005,0.168l-0.594-0.386c-0.849-0.551-1.727-1.121-2.587-1.688
			c-0.25-0.166-0.497-0.342-0.747-0.521l-0.076-0.052c-0.168-0.121-0.339-0.241-0.51-0.358c-0.095-0.064-0.105-0.149-0.134-0.359
			l-0.1-0.625c-0.227-1.404-0.46-2.855-0.715-4.277c-0.063-0.357-0.181-0.706-0.294-1.044l-0.113-0.331
			c-0.026-0.084-0.073-0.153-0.17-0.292l-0.011-0.015c-0.008-0.011-0.016-0.016-0.029-0.019l-0.126-0.032
			c-0.008-0.003-0.016-0.003-0.023,0l-0.061,0.016c-0.013,0.003-0.023,0.012-0.031,0.024l-0.066,0.126
			c-0.002,0.006-0.002,0.013-0.005,0.02l-0.002,0.064c-0.005,0.086-0.008,0.182,0.016,0.279c0.258,0.997,0.402,2.032,0.542,3.037
			l0.005,0.032c0.087,0.625,0.179,1.273,0.297,1.906c0.036,0.208,0.047,0.418,0.058,0.662v0.012l0.008,0.113
			c-0.239-0.164-0.457-0.334-0.667-0.501c-0.211-0.167-0.387-0.304-0.573-0.435c-0.495-0.339-0.973-0.691-1.422-1.025
			c-0.481-0.355-0.965-0.723-1.436-1.08l-0.318-0.241c-0.375-0.285-0.746-0.564-1.106-0.852c-0.492-0.388-0.962-0.778-1.356-1.109
			c-0.41-0.344-0.839-0.694-1.433-1.167l-0.128-0.101c-0.014-0.012-0.032-0.014-0.047-0.007c-0.019,0.008-0.029,0.023-0.032,0.04
			l-0.013,0.163c-0.026,0.344,0.147,0.488,0.3,0.614l0.431,0.372c0.923,0.794,1.695,1.454,2.505,2.123
			c0.949,0.781,1.919,1.566,2.857,2.324l1.627,1.32l-0.51,0.033c-0.592,0.04-1.154,0.078-1.722,0.088l-0.389,0.004
			c-0.494,0-0.996-0.016-1.48-0.032l-0.565-0.019c-0.373-0.011-0.757-0.044-1.096-0.076c-0.437-0.04-0.886-0.079-1.344-0.079
			c-0.005,0-0.013,0.001-0.018,0.005l-0.079,0.036c-0.015,0.006-0.023,0.02-0.029,0.034l-0.042,0.218
			c-0.005,0.023,0.008,0.046,0.029,0.054l0.192,0.068c0.092,0.037,0.184,0.071,0.281,0.087c1.467,0.226,3.034,0.363,4.925,0.431
			c0.134,0.005,0.268,0.008,0.402,0.008c0.518,0,1.049-0.033,1.52-0.06l0.665-0.039c0.15,0,0.268,0.041,0.416,0.139
			c0.68,0.469,1.377,0.938,2.05,1.39l1.328,0.888l1.606,1.133c-0.021,0.024-0.04,0.042-0.058,0.052
			c-0.579,0.324-1.211,0.649-1.927,0.835c-1.293,0.335-2.631,0.464-3.928,0.587l-0.336,0.034c-0.308,0.029-0.339,0.032-0.612,0.184
			l-0.082,0.044c-0.01,0.006-0.019,0.018-0.021,0.03c-0.005,0.014-0.002,0.026,0.006,0.038l0.05,0.078
			c0.118,0.186,0.294,0.209,0.437,0.209c0.026,0,0.047-0.021,0.047-0.049l0.063,0.038c0.008,0.005,0.016,0.008,0.024,0.008
			c0.26,0.01,0.52,0.014,0.77,0.014c0.997,0,1.856-0.078,2.632-0.241c0.81-0.168,1.427-0.323,2.003-0.503
			c0.495-0.154,0.978-0.367,1.449-0.576l0.153-0.067c0.123-0.055,0.205-0.076,0.281-0.076c0.074,0,0.149,0.021,0.234,0.068
			c1.064,0.591,2.182,1.189,3.322,1.779c0.684,0.353,1.369,0.689,2.032,1.012l0.786,0.386c-0.019,0.009-0.034,0.017-0.053,0.024
			l-0.791,0.326c-0.899,0.371-1.922,0.792-2.939,1.193c-0.429,0.169-0.873,0.291-1.291,0.402c-0.105,0.028-0.26,0.019-0.375-0.023
			c-0.484-0.17-0.977-0.352-1.407-0.511l-0.045-0.017c-0.476-0.174-0.967-0.355-1.451-0.526c-0.486-0.174-0.991-0.321-1.479-0.465
			c-0.153-0.042-0.321-0.047-0.519-0.013l-0.187,0.033c-0.019,0.004-0.034,0.017-0.037,0.036c-0.005,0.019,0,0.037,0.016,0.05
			l0.145,0.118c0.447,0.374,0.967,0.579,1.475,0.776l0.042,0.019c0.139,0.055,0.276,0.108,0.41,0.166
			c0.452,0.195,0.92,0.381,1.372,0.562l0.382,0.155c-0.003,0.001-0.008,0.002-0.012,0.004l-0.391,0.135
			c-0.389,0.134-0.791,0.274-1.191,0.397c-0.347,0.108-0.707,0.212-1.025,0.302l-0.087,0.026c-0.297,0.084-0.602,0.172-0.899,0.264
			c-0.813,0.251-1.638,0.519-2.408,0.771c-0.101,0.033-0.187,0.083-0.279,0.135l-0.107,0.062c-0.011,0.006-0.019,0.015-0.021,0.026
			l-0.045,0.126c0,0.007-0.002,0.012-0.002,0.017l0.002,0.055c0,0.01,0.005,0.021,0.013,0.03l0.079,0.085
			c0.005,0.005,0.01,0.009,0.019,0.012l0.055,0.02c0.058,0.023,0.129,0.05,0.21,0.05c0.1,0,0.189-0.024,0.329-0.062l5.799-1.525
			l0.219-0.05c-0.014,0.026-0.024,0.046-0.037,0.062c-0.647,0.834-1.144,1.468-1.612,2.052c-0.139,0.174-0.29,0.346-0.437,0.516
			c-0.129,0.15-0.265,0.306-0.423,0.497c-0.108,0.132-0.292,0.349-0.042,0.668l0.055,0.071c0.008,0.011,0.021,0.018,0.035,0.019
			c0.007,0.006,0.023-0.002,0.034-0.01l0.221-0.188c0.118-0.099,0.229-0.19,0.331-0.298l0.239-0.255
			c0.479-0.513,0.973-1.042,1.44-1.58c0.452-0.522,0.884-1.084,1.262-1.58c0.107-0.142,0.237-0.234,0.414-0.297l0.593-0.213
			c0.983-0.353,1.998-0.715,2.992-1.094c0.503-0.193,1.005-0.413,1.487-0.627l0.684-0.297c0.027-0.012,0.056-0.022,0.108-0.041
			c0.056,0.665,0.076,1.341,0.097,1.993v0.029c0.033,1.065,0.043,3.045,0.224,4.157l0.032,0.184c0.003,0.019,0.016,0.034,0.034,0.04
			c0.019,0.002,0.037-0.003,0.049-0.016l0.119-0.141l0.089-0.093c0.065-0.063,0.127-0.124,0.146-0.21l0.033-0.161
			c0.059-0.257,0.116-0.526,0.111-0.794c-0.009-0.718-0.011-2.327-0.035-3.031l-0.041-1.275c-0.003-0.089,0-0.176,0.005-0.297
			v-0.002l0.034,0.014c0.115,0.042,0.218,0.078,0.315,0.125l3.73,1.839l0.163,0.065c0.568,0.2,0.568,0.2,0.707,0.472
			c0.051,0.099,0.127,0.249,0.253,0.457c0.567,0.944,1.157,1.893,1.675,2.731l0.728,1.177c0.045,0.072,0.129,0.206,0.292,0.206
			c0.004,0,0.006,0,0.008,0l0.205-0.033c0.024-0.004,0.043-0.025,0.039-0.05l-0.004-0.092c-0.024-0.381-0.192-0.708-0.374-1
			c-0.194-0.323-0.399-0.646-0.597-0.959l-0.563-0.896c-0.19-0.305-0.692-1.13-0.846-1.384c0.053,0.009,0.113,0.033,0.213,0.072
			l0.558,0.197c0.411,0.145,0.839,0.296,1.243,0.467c1.352,0.565,2.774,0.982,4.149,1.387l1.183,0.35
			c0.01,0.002,0.026,0.002,0.037-0.006c0.013-0.008,0.021-0.018,0.023-0.031l0.019-0.095c0.068-0.35-0.174-0.434-0.315-0.485
			c-0.014-0.005-1.515-0.569-2.043-0.771l-3.431-1.346c-0.14-0.054-0.746-0.267-0.771-0.276c-0.058-0.021-0.114-0.046-0.186-0.076
			c0.252-0.092,0.494-0.151,0.736-0.209c0.157-0.038,0.336-0.083,0.505-0.135c0.187-0.055,0.37-0.108,0.559-0.161
			c0.306-0.087,0.621-0.176,0.927-0.281c0.184-0.063,0.378-0.11,0.564-0.155l0.016-0.004c0.295-0.071,0.597-0.143,0.884-0.28
			c0.011-0.005,0.019-0.016,0.023-0.026l0.047-0.131c0-0.006,0.004-0.013,0.004-0.019l-0.004-0.056c0-0.014-0.005-0.025-0.015-0.036
			l-0.092-0.084c-0.008-0.005-0.015-0.01-0.024-0.01l-0.068-0.016c-0.045-0.008-0.097-0.019-0.187-0.019
			c-0.023,0-0.05,0-0.087,0.002c-0.287,0.04-0.584,0.082-0.873,0.155c-0.729,0.188-1.433,0.38-2.216,0.592l-0.736,0.201
			c-0.579,0.22-1.109,0.207-1.759-0.051c-1.499-0.602-2.95-1.351-4.306-2.067c-0.037-0.019-0.064-0.038-0.091-0.062l0.765-0.407
			c0.478-0.251,0.971-0.512,1.45-0.781c0.94-0.529,1.795-1.014,2.716-1.596c0.491-0.31,0.693-0.438,0.956-0.438
			c0.199,0,0.471,0.075,0.896,0.199l0.913,0.275c0.715,0.215,1.451,0.439,2.185,0.614c1.43,0.34,2.612,0.498,3.718,0.498
			c0.265,0,0.528-0.009,0.78-0.027c0.538-0.037,0.955-0.139,1.354-0.333l0.113-0.054c0.014-0.006,0.021-0.021,0.023-0.035
			c0.005-0.016-0.002-0.033-0.012-0.044l-0.09-0.086c-0.113-0.107-0.237-0.154-0.39-0.154c-0.053,0-0.103,0.006-0.181,0.016
			c-0.379,0.045-0.776,0.066-1.195,0.066c-0.758,0-1.558-0.075-2.515-0.236c-1.544-0.264-3.055-0.739-4.52-1.199l-0.139-0.043
			c-0.085-0.025-0.167-0.064-0.253-0.105c0.042-0.03,0.094-0.065,0.121-0.083l1.527-0.904c1.17-0.691,2.381-1.407,3.549-2.146
			c0.389-0.247,0.741-0.356,1.142-0.356c0.133,0,0.273,0.012,0.432,0.035c0.835,0.127,1.668,0.192,2.48,0.192
			c1.67,0,3.3-0.273,4.849-0.812c0.239-0.083,0.466-0.2,0.687-0.313l0.184-0.094c0.068-0.035,0.113-0.086,0.189-0.171l0.011-0.01
			c0.005-0.008,0.01-0.019,0.01-0.029l0.011-0.122c0-0.006,0-0.012-0.002-0.018L209.163,74.559z M196.934,85.26L196.934,85.26
			L196.934,85.26L196.934,85.26z"/>
		<path fill="#FFFFFF" d="M258.858,94.702c-0.006-0.015-0.017-0.026-0.032-0.03l-0.137-0.045c-0.014-0.002-0.023-0.002-0.034,0.002
			l-0.089,0.04c-0.093,0.042-0.179,0.079-0.258,0.124l-0.87,0.476c-1.112,0.607-2.041,1.116-2.998,1.653
			c-1.027,0.579-2.073,1.173-3.081,1.749l-2.392,1.359c-0.736,0.418-1.488,0.833-2.222,1.238l-0.211,0.116
			c-0.039,0.021-0.081,0.041-0.12,0.059c0.095-0.167,0.188-0.335,0.28-0.501c0.3-0.539,0.612-1.093,0.979-1.603
			c0.455-0.629,0.973-1.231,1.475-1.815l0.592-0.689c0.157-0.19,0.326-0.378,0.488-0.562l0.297-0.339
			c0.051-0.055,0.132-0.147,0.116-0.273c-0.015-0.113-0.103-0.183-0.292-0.236c-0.015-0.005-0.031,0-0.044,0.01l-0.269,0.239
			l-0.021,0.016c-0.16,0.145-0.327,0.292-0.488,0.442c-0.847,0.781-1.551,1.662-2.19,2.496c-0.683,0.901-1.299,1.868-1.824,2.877
			c-0.216,0.421-0.486,0.698-0.872,0.899c-1.168,0.604-2.24,1.188-3.271,1.788c-0.609,0.355-1.209,0.735-1.785,1.103
			c-0.315,0.201-0.631,0.401-0.948,0.597c-0.155,0.097-0.315,0.189-0.5,0.296c0.016-0.082,0.032-0.155,0.058-0.221l0.247-0.667
			l0.008-0.017c0.218-0.59,0.444-1.198,0.718-1.773c0.295-0.623,0.626-1.241,0.95-1.84c0.178-0.329,0.38-0.703,0.572-1.078
			c0.694-1.34,1.641-2.493,2.391-3.346c0.19-0.218,0.42-0.48,0.638-0.758c0.058-0.071,0.081-0.15,0.132-0.318
			c0.002-0.012,0.002-0.023-0.003-0.036l-0.06-0.126c-0.006-0.006-0.009-0.012-0.014-0.014l-0.045-0.04
			c-0.011-0.009-0.026-0.013-0.034-0.013l-0.129,0.006c-0.005,0.001-0.011,0.001-0.018,0.004l-0.051,0.023
			c-0.068,0.031-0.147,0.068-0.21,0.126c-0.105,0.092-0.2,0.195-0.297,0.3l-0.101,0.108c-0.88,0.915-1.79,1.924-2.469,3.102
			c-0.584,1.004-1.07,1.91-1.485,2.766c-0.26,0.531-0.481,1.081-0.696,1.613c-0.103,0.249-0.432,1.04-0.437,1.048l-0.016,0.042
			c-0.224,0.521-0.452,1.062-0.691,1.586c-0.042,0.091-0.134,0.188-0.264,0.272c-0.77,0.511-1.562,1.029-2.261,1.486l-1.046,0.69
			c-0.003,0.002-0.006,0.005-0.011,0.01l-0.014,0.019l0.056-0.381c0.058-0.395,0.116-0.802,0.199-1.198
			c0.137-0.643,0.29-1.294,0.438-1.923l0.26-1.121c0.019-0.083-0.003-0.155-0.056-0.338l-0.052-0.126
			c-0.006-0.014-0.019-0.025-0.034-0.029c-0.016-0.002-0.032,0-0.042,0.01l-0.113,0.1c-0.26,0.231-0.278,0.26-0.396,0.6
			c-0.537,1.545-0.823,3.191-1.047,4.614c-0.042,0.269-0.127,0.42-0.299,0.544c-0.755,0.524-3.581,2.517-3.6,2.532l-0.012,0.005
			c-0.01-0.09-0.028-0.255-0.039-0.336c-0.157-1.165-0.341-2.707-0.357-4.299c-0.005-0.281,0-0.568,0.005-0.847l0.007-0.61
			c0-0.126,0.039-0.218,0.139-0.317c0.325-0.319,0.71-0.701,1.085-1.102c1.176-1.255,2.06-2.373,2.777-3.514
			c0.039-0.063,0.055-0.129,0.089-0.258l0.058-0.184c0.006-0.017,0-0.037-0.013-0.05c-0.014-0.013-0.032-0.016-0.05-0.01
			l-0.166,0.06c-0.194,0.068-0.303,0.192-0.381,0.284l-0.64,0.752c-0.378,0.451-0.772,0.915-1.172,1.364
			c-0.492,0.557-1.002,1.097-1.573,1.693c-0.047,0.052-0.109,0.1-0.184,0.149l-0.007-0.223c-0.006-0.163-0.012-0.31-0.019-0.459
			c-0.135-1.916-0.098-3.868-0.064-5.756l0.007-0.192c0.005-0.234,0.07-0.344,0.243-0.422c0.185-0.085,0.361-0.198,0.607-0.356
			c0.174-0.11,0.348-0.227,0.519-0.342c0.331-0.222,0.67-0.451,1.022-0.644c0.884-0.486,1.648-1.13,2.361-1.746
			c0.075-0.066,0.134-0.143,0.249-0.297l0.019-0.025c0.009-0.011,0.011-0.025,0.009-0.038l-0.027-0.129
			c0-0.009-0.002-0.016-0.008-0.022l-0.044-0.054c-0.009-0.011-0.021-0.016-0.032-0.019l-0.104-0.012
			c-0.009-0.001-0.016-0.001-0.021,0.001l-0.051,0.016c-0.058,0.016-0.121,0.037-0.176,0.076c-0.197,0.134-0.457,0.312-0.705,0.5
			c-1.03,0.781-2.175,1.433-3.255,2.019c-0.16,0.085-0.333,0.166-0.528,0.245c-0.034,0.013-0.076,0.021-0.139,0.029
			c0.007-0.168,0.033-0.649,0.047-0.807l0.326-3.804c0.01-0.147,0.014-0.298,0.016-0.444v-0.024
			c0.003-0.195,0.008-0.397,0.037-0.592c0.146-0.959,0.307-1.931,0.462-2.871l0.188-1.125c0.028-0.162,0.058-0.329,0.07-0.497
			c0.006-0.091-0.04-0.166-0.115-0.295c-0.003-0.005-0.006-0.01-0.011-0.013l-0.058-0.05c-0.012-0.01-0.023-0.012-0.035-0.013
			l-0.194,0.009c-0.019,0.001-0.037,0.014-0.042,0.035l-0.104,0.359c-0.081,0.277-0.166,0.562-0.231,0.848
			c-0.1,0.434-0.179,0.87-0.271,1.375l-0.096,0.518c-0.201,1.102-0.412,2.24-0.426,3.385c-0.015,1.06-0.144,2.125-0.268,3.156
			l-0.066,0.528c-1.89-2.253-3.06-4.621-3.583-7.237c-0.003-0.012-0.008-0.024-0.019-0.03l-0.103-0.068
			c-0.014-0.008-0.023-0.009-0.039-0.007l-0.087,0.021c-0.011,0.002-0.018,0.008-0.026,0.016l-0.065,0.074
			c-0.005,0.007-0.008,0.012-0.011,0.018l-0.013,0.048c-0.019,0.058-0.042,0.129-0.034,0.205l0.019,0.201
			c0.018,0.25,0.039,0.508,0.095,0.752c0.547,2.382,1.68,4.583,3.368,6.544c0.409,0.473,0.567,0.895,0.562,1.501
			c-0.005,1.427,0.034,2.883,0.068,4.168l0.042,1.754c0.003,0.045,0,0.093-0.005,0.148c-0.085-0.057-0.163-0.108-0.306-0.229
			c-1.175-1.004-2.389-2.04-3.44-3.219c-0.976-1.094-1.651-2.07-2.124-3.073c-0.064-0.136-0.15-0.321-0.41-0.388l-0.125-0.031
			c-0.015-0.005-0.03,0-0.044,0.011c-0.01,0.01-0.016,0.025-0.016,0.042l0.016,0.124c0.047,0.437,0.181,0.844,0.437,1.322
			c0.62,1.173,1.507,2.306,2.786,3.562c0.553,0.542,1.131,1.049,1.693,1.537l0.705,0.617c0.786,0.699,0.786,0.699,0.777,1.796
			c-0.002,0.985,0.04,1.963,0.093,3.049c0.023,0.557,0.067,1.12,0.108,1.664l0.057,0.848c-0.033-0.015-0.065-0.03-0.098-0.047
			c-1.327-0.773-2.736-1.605-4.038-2.554c-0.567-0.413-0.859-0.863-1.003-1.557l-0.237-0.773c-0.229-0.761-0.423-1.396-0.634-2.053
			c-0.084-0.278-0.21-0.557-0.341-0.852c-0.037-0.079-0.095-0.138-0.146-0.191c-0.003-0.004-0.008-0.006-0.013-0.009l-0.171-0.089
			c-0.016-0.008-0.034-0.006-0.044,0l-0.146,0.08c-0.016,0.009-0.026,0.029-0.026,0.049l0.008,0.057
			c0.037,0.315,0.137,0.614,0.234,0.908c0.062,0.185,0.129,0.376,0.171,0.567c0.067,0.293,0.15,0.577,0.245,0.892l0.028,0.103
			c0.047,0.164,0.095,0.33,0.139,0.496c0.045,0.167,0.098,0.325,0.153,0.495c0.078,0.234,0.157,0.475,0.215,0.739
			c-0.062-0.041-0.113-0.076-0.162-0.114l-0.311-0.247c-0.11-0.088-0.222-0.175-0.334-0.259l-2.958-2.195l-1.77-1.341
			c-0.062-0.05-0.15-0.118-0.269-0.118c-0.094,0-0.186,0.042-0.283,0.129l-0.071,0.064c-0.01,0.009-0.016,0.022-0.016,0.037
			c0,0.013,0.006,0.027,0.016,0.036l0.954,0.841c1.065,0.944,2.164,1.917,3.35,2.755c0.374,0.263,0.736,0.552,1.089,0.833
			l0.486,0.382c0.047,0.033,0.089,0.064,0.121,0.102c-0.292,0.005-1.254,0.018-1.625,0.02l-2.188-0.001
			c-0.344,0.005-0.712,0.032-1.097,0.303c-0.012,0.009-0.021,0.026-0.019,0.042c0.024,0.311,0.276,0.311,0.371,0.311
			c0.003,0,1.394-0.008,1.394-0.008c1.052-0.006,2.135-0.011,3.205-0.028c0.229-0.004,0.392-0.017,0.53-0.03
			c0.069-0.005,0.125-0.01,0.172-0.01c0.137,0,0.199,0.047,0.659,0.413c0.026,0.017,2.721,1.683,3.615,2.239
			c0.095,0.057,0.179,0.123,0.273,0.197l0.029,0.022l-0.048,0.033c-0.076,0.051-0.137,0.093-0.202,0.132l-0.901,0.523
			c-0.676,0.39-1.376,0.795-2.057,1.208c-0.229,0.138-0.42,0.325-0.609,0.511l-0.124,0.119c-0.06,0.061-0.078,0.141-0.1,0.233
			c-0.008,0.038-0.019,0.079-0.031,0.125l-0.056,0.179c-0.005,0.018,0,0.037,0.014,0.05c0.012,0.01,0.03,0.015,0.053,0.009
			l0.17-0.072c1.036-0.437,1.98-0.987,2.89-1.52c0.578-0.338,1.176-0.686,1.785-0.999c0.008,0.04,0.016,0.073,0.021,0.111
			l0.127,0.843c0.07,0.489,0.145,0.994,0.244,1.486c0.205,1.042,0.434,2.094,0.657,3.111l0.14,0.623
			c0.039,0.182,0.028,0.337-0.034,0.507c-0.253,0.673-0.479,1.283-0.67,1.906c-0.206,0.673-0.385,1.354-0.561,2.011l-0.103,0.387
			c-0.037,0.142-0.056,0.29-0.074,0.431l-0.031,0.203c0,0.01,0.003,0.023,0.011,0.031l0.061,0.097
			c0.007,0.013,0.021,0.019,0.037,0.021l0.095,0.011c0.333,0,0.415-0.255,0.476-0.439c0.06-0.181,0.115-0.368,0.173-0.552
			l0.005-0.021c0.066-0.213,0.135-0.434,0.211-0.649c0.294-0.852,0.598-1.683,0.878-2.453c0.011-0.021,0.021-0.042,0.037-0.065
			l0.071,0.208l1.803,5.784l0.005,0.016c0.027,0.082,0.051,0.163,0.102,0.242c0.042,0.065,0.1,0.113,0.155,0.152
			c0.01,0.011,0.022,0.016,0.033,0.011h0.006v0.003c0,0.01,0.005,0.023,0.015,0.031l0.051,0.044
			c0.007,0.008,0.019,0.014,0.031,0.014c0.011,0,0.019-0.003,0.026-0.008l0.056-0.037c0.01-0.005,0.019-0.016,0.021-0.029
			l0.021-0.084l0.065-0.011c0.024-0.003,0.042-0.023,0.042-0.05l-0.006-0.128c-0.005-0.097-0.007-0.197-0.034-0.3
			c-0.191-0.775-0.401-1.609-0.625-2.45c-0.084-0.321-0.179-0.646-0.268-0.959l-0.014-0.042c-0.103-0.363-0.197-0.691-0.284-1.02
			c-0.105-0.392-0.2-0.797-0.29-1.186l-0.1-0.434c0-0.005-0.002-0.011-0.002-0.016l0.271,0.197c0.415,0.302,0.844,0.618,1.27,0.913
			c0.137,0.092,0.271,0.191,0.41,0.294c0.432,0.318,0.878,0.649,1.425,0.828l0.177,0.058c0.018,0.005,0.036,0,0.05-0.013
			s0.017-0.032,0.01-0.05l-0.067-0.171c-0.076-0.194-0.176-0.333-0.343-0.484c-0.361-0.321-0.735-0.654-1.124-0.959
			c-0.382-0.305-0.765-0.6-1.221-0.952l-0.165-0.129c-0.35-0.271-0.699-0.544-1.049-0.82c-0.098-0.076-0.188-0.2-0.221-0.305
			c-0.134-0.439-0.261-0.868-0.345-1.31c-0.181-0.986-0.353-1.99-0.521-2.965l-0.172-1.004c-0.005-0.019-0.005-0.037-0.007-0.056
			l0.831,0.516c0.604,0.375,1.228,0.762,1.848,1.13c1.058,0.625,2.158,1.254,3.275,1.875c0.189,0.105,0.234,0.218,0.282,0.536
			c0.071,0.5,0.15,1.068,0.292,1.602c0.146,0.57,0.345,1.177,0.635,1.966c0.348,0.936,0.843,1.854,1.654,3.068
			c0.074,0.121,0.185,0.305,0.435,0.308l0.094,0.002l0,0c0.014,0,0.027-0.005,0.034-0.013c0.011-0.011,0.014-0.024,0.014-0.037
			l-0.003-0.092c-0.013-0.305-0.026-0.336-0.191-0.665l-0.14-0.281c-0.576-1.154-1.172-2.351-1.575-3.618
			c-0.22-0.702-0.28-1.412-0.314-2.074c0-0.011,0-0.018,0-0.029c0.002-0.023,0.002-0.05-0.003-0.081l0.079,0.013l3.083,1.375
			c0.766,0.342,1.578,0.708,2.39,1.06c0.18,0.077,0.282,0.166,0.368,0.321l0.301,0.547l0.01,0.021
			c0.297,0.544,0.604,1.107,0.959,1.63c1.052,1.554,1.999,2.806,2.979,3.941c0.061,0.068,0.134,0.126,0.215,0.187l0.106,0.084
			c0.007,0.005,0.015,0.008,0.025,0.011l0.105,0.005h0.002c0.014,0,0.027-0.005,0.034-0.013l0.142-0.14
			c0.017-0.016,0.022-0.04,0.009-0.061l-0.037-0.058c-0.238-0.384-0.515-0.744-0.783-1.102l-0.021-0.026
			c-0.211-0.276-0.429-0.565-0.623-0.857l-0.303-0.453c-0.347-0.512-0.705-1.046-1.027-1.588c-0.284-0.468-0.54-0.943-0.811-1.448
			l-0.273-0.505l1.614,0.552c1.263,0.436,2.565,0.883,3.854,1.312c1.007,0.339,2.023,0.655,3.152,1.004l0.562,0.176
			c0.073,0.024,0.157,0.053,0.26,0.053c0.129,0,0.252-0.047,0.377-0.139l0.131-0.1c0.013-0.011,0.021-0.026,0.016-0.044
			c0-0.019-0.013-0.035-0.028-0.04l-0.153-0.053c-0.518-0.181-1.128-0.392-1.748-0.594c-0.594-0.192-1.125-0.368-1.659-0.557
			c-0.513-0.185-1.012-0.374-1.522-0.57l-0.162-0.063c-0.679-0.252-1.197-0.452-1.678-0.642c-0.639-0.247-1.153-0.458-1.623-0.66
			c-0.215-0.092-0.427-0.168-0.656-0.25l-0.026-0.01c-0.249-0.089-0.508-0.182-0.768-0.294l0.134-0.076
			c0.202-0.113,0.378-0.21,0.565-0.284c0.609-0.239,1.217-0.513,1.807-0.776l0.021-0.01c0.918-0.41,1.864-0.833,2.837-1.141
			c0.084-0.026,0.152-0.073,0.3-0.17l0.031-0.021c0.019-0.013,0.027-0.034,0.019-0.056l-0.084-0.254
			c-0.005-0.015-0.016-0.026-0.032-0.03c-0.019-0.007-0.03-0.004-0.044,0.008l-0.066,0.056l-0.065-0.061
			c-0.01-0.01-0.026-0.015-0.037-0.013l-0.137,0.014l-0.347,0.085c-0.347,0.082-0.707,0.166-1.041,0.305
			c-1.322,0.531-2.657,1.094-3.948,1.638l-0.727,0.308c-0.076,0.034-0.134,0.061-0.297,0.04c-0.231-0.103-0.466-0.2-0.684-0.29
			l-0.1-0.042c-0.231-0.097-0.473-0.197-0.707-0.302c-0.847-0.387-1.707-0.789-2.538-1.173l-0.861-0.452l0.089-0.051
			c0.205-0.123,0.399-0.235,0.607-0.338l2.18-1.078l1.946-0.954c0.094-0.032,0.29-0.097,0.241-0.434
			c-0.003-0.013-0.011-0.025-0.021-0.033c-0.083-0.051-0.171-0.078-0.266-0.078c-0.121,0-0.231,0.041-0.336,0.08l-0.612,0.23
			c-0.472,0.173-0.958,0.354-1.431,0.565c-1.007,0.444-2.037,0.926-3.146,1.472c-0.348,0.171-0.605,0.163-0.913-0.02
			c-0.262-0.159-0.533-0.307-0.812-0.458l-0.033-0.019c-0.203-0.109-0.414-0.222-0.613-0.339c-1.599-0.927-3.174-1.851-4.916-2.875
			c-0.028-0.016-0.056-0.04-0.118-0.099l0.044-0.02l3.899-2.727c0.134-0.098,0.284-0.126,0.465-0.088l5.797,1.167
			c0.101,0.021,0.198,0.029,0.316,0.036c0,0.001,0.008-0.002,0.013-0.002l0.233-0.057c0.023-0.006,0.04-0.028,0.037-0.052
			l-0.023-0.217c-0.002-0.019-0.014-0.031-0.029-0.04l-0.126-0.058c-0.104-0.05-0.199-0.092-0.299-0.118l-1.508-0.363
			c-0.709-0.17-1.44-0.345-2.16-0.526c-0.397-0.103-0.791-0.226-1.206-0.355l-0.358-0.11c0.034-0.029,0.063-0.053,0.095-0.074
			l0.586-0.375c0.755-0.481,1.53-0.978,2.309-1.449c0.135-0.078,0.339-0.118,0.624-0.118c0.304,0.008,0.614,0.042,0.893,0.071
			l0.466,0.045c1.417,0.105,2.68,0.156,3.861,0.156c0.955,0,1.844-0.033,2.713-0.1c1.219-0.094,2.412-0.207,3.547-0.335
			c0.392-0.042,0.778-0.134,1.149-0.224l0.292-0.068c0.155-0.035,0.446-0.097,0.446-0.5v-0.101c0-0.015-0.005-0.028-0.018-0.038
			c-0.008-0.008-0.023-0.01-0.037-0.01l-0.103,0.018c-1.756,0.292-4.077,0.631-6.449,0.671l-0.62,0.005
			c-1.651,0-3.416-0.103-5.55-0.318c0.044-0.032,0.095-0.062,0.146-0.094l1.021-0.611c0.834-0.5,1.696-1.017,2.556-1.506
			c0.407-0.234,0.812-0.489,1.207-0.737c0.649-0.41,1.322-0.833,2.034-1.168c0.424-0.204,0.776-0.25,1.179-0.16
			c0.707,0.153,1.443,0.227,2.25,0.227c0.549,0,1.126-0.034,1.766-0.105c0.773-0.084,1.55-0.205,2.299-0.323l0.766-0.117
			c0.204-0.031,0.406-0.085,0.601-0.159c0.088-0.032,0.132-0.108,0.18-0.195l0.079-0.132l0.103-0.152
			c0.011-0.016,0.011-0.036,0-0.051c-0.008-0.015-0.023-0.024-0.04-0.024h-0.005l-0.747,0.068c-0.028,0.002-3.005,0.334-3.917,0.44
			c-0.173,0.02-0.351,0.029-0.541,0.029c-0.438,0-0.878-0.05-1.307-0.1c-0.301-0.036-0.604-0.099-0.899-0.16l-0.145-0.029
			c0.129-0.09,0.263-0.161,0.402-0.232l0.854-0.438l0.026-0.016c0.578-0.292,1.172-0.595,1.742-0.922
			c2.001-1.149,4.03-2.332,5.99-3.478l1.897-1.104c0.287-0.166,0.565-0.35,0.859-0.544l0.053-0.037
			C258.731,95.209,258.968,95.044,258.858,94.702z"/>
		<path fill="#FFFFFF" d="M157.235,104.891c-0.095-0.087-0.187-0.129-0.281-0.129c-0.119,0-0.205,0.066-0.297,0.139
			c-0.014,0.009-1.296,0.986-1.741,1.32l-2.96,2.195c-0.124,0.092-0.247,0.192-0.365,0.287l-0.279,0.218
			c-0.05,0.038-0.1,0.074-0.163,0.116c0.058-0.264,0.137-0.503,0.218-0.743c0.055-0.167,0.108-0.326,0.149-0.491
			c0.056-0.206,0.113-0.408,0.171-0.599c0.084-0.291,0.173-0.591,0.242-0.892c0.044-0.196,0.11-0.388,0.174-0.578
			c0.097-0.286,0.195-0.583,0.231-0.897c0.003-0.012-0.002-0.025-0.01-0.035l-0.087-0.108c-0.002-0.005-0.008-0.011-0.013-0.014
			l-0.05-0.029c-0.013-0.004-0.026-0.008-0.04-0.002l-0.124,0.04c-0.008,0.002-0.016,0.006-0.021,0.013l-0.047,0.047
			c-0.05,0.054-0.108,0.116-0.179,0.269c-0.111,0.25-0.226,0.509-0.308,0.773c-0.21,0.664-0.41,1.312-0.628,2.032l-0.268,0.893
			c-0.121,0.604-0.421,1.055-0.978,1.46c-1.304,0.951-2.71,1.783-4.041,2.555c-0.034,0.02-0.065,0.034-0.097,0.042l0.055-0.781
			c0.042-0.565,0.087-1.15,0.113-1.727c0.052-1.078,0.094-2.059,0.092-3.145c-0.008-1.001-0.008-1.001,0.778-1.7l0.718-0.628
			c0.558-0.488,1.136-0.991,1.68-1.526c1.28-1.257,2.167-2.389,2.787-3.562c0.255-0.478,0.392-0.886,0.439-1.322l0.013-0.124
			c0.002-0.017-0.005-0.031-0.016-0.042c-0.014-0.011-0.032-0.016-0.045-0.011l-0.121,0.031c-0.258,0.066-0.345,0.248-0.421,0.408
			c-0.468,0.991-1.141,1.961-2.116,3.054c-1.054,1.18-2.25,2.203-3.525,3.291c-0.063,0.055-0.137,0.102-0.221,0.158
			c-0.002-0.056-0.005-0.103-0.005-0.15l0.042-1.757c0.037-1.355,0.074-2.757,0.066-4.163c-0.003-0.604,0.158-1.026,0.565-1.501
			c1.688-1.96,2.821-4.162,3.368-6.544c0.055-0.242,0.076-0.491,0.095-0.732l0.021-0.222c0.005-0.074-0.016-0.139-0.052-0.263
			c-0.003-0.01-0.008-0.019-0.019-0.024l-0.095-0.07c-0.006-0.004-0.011-0.006-0.016-0.007l-0.139-0.04
			c-0.016-0.003-0.026,0-0.04,0.005c-0.01,0.008-0.019,0.02-0.021,0.033l-0.019,0.091c-0.521,2.617-1.693,4.985-3.583,7.237
			l-0.068-0.54c-0.123-1.026-0.25-2.088-0.265-3.145c-0.013-1.147-0.221-2.283-0.426-3.382l-0.092-0.502
			c-0.076-0.446-0.163-0.92-0.271-1.394c-0.06-0.253-0.134-0.507-0.205-0.754l-0.113-0.393c-0.003-0.013-0.011-0.023-0.024-0.029
			l-0.124-0.065c-0.007-0.003-0.013-0.005-0.021-0.005l-0.063-0.002c-0.01,0.002-0.021,0.001-0.031,0.008l-0.09,0.064
			c-0.002,0.004-0.007,0.009-0.013,0.015l-0.026,0.042c-0.039,0.065-0.089,0.146-0.081,0.239c0.013,0.169,0.042,0.34,0.068,0.504
			l0.205,1.224c0.139,0.849,0.3,1.81,0.444,2.766c0.029,0.196,0.031,0.401,0.037,0.598V92.3c0,0.147,0.003,0.297,0.016,0.447
			l0.323,3.805c0.019,0.205,0.029,0.415,0.04,0.63l0.011,0.176c-0.061-0.008-0.103-0.016-0.137-0.029
			c-0.189-0.076-0.368-0.158-0.531-0.245c-1.075-0.585-2.216-1.233-3.254-2.019c-0.2-0.152-0.423-0.31-0.7-0.5
			c-0.058-0.039-0.118-0.058-0.231-0.092l-0.016-0.005c-0.008-0.003-0.016-0.003-0.018-0.003l-0.077,0.005
			c-0.013,0-0.023,0.007-0.031,0.016l-0.129,0.139c-0.019,0.019-0.019,0.045-0.003,0.063l0.124,0.161
			c0.058,0.075,0.116,0.152,0.19,0.218c0.715,0.618,1.485,1.262,2.361,1.746c0.347,0.192,0.684,0.417,1.02,0.642
			c0.174,0.116,0.347,0.233,0.602,0.395c0.168,0.109,0.342,0.22,0.528,0.306c0.176,0.079,0.24,0.191,0.242,0.422l0.002,0.014
			c0.037,1.937,0.079,3.941-0.058,5.935c-0.013,0.186-0.018,0.371-0.023,0.576l-0.006,0.106c-0.073-0.052-0.137-0.097-0.184-0.149
			l-0.103-0.106c-0.484-0.511-0.986-1.04-1.472-1.587c-0.395-0.448-0.771-0.892-1.188-1.387l-0.62-0.729
			c-0.092-0.108-0.198-0.218-0.382-0.284c-0.01-0.005-0.018-0.005-0.029-0.002l-0.129,0.032c-0.01,0.002-0.023,0.01-0.029,0.021
			c-0.008,0.01-0.008,0.024-0.005,0.037l0.036,0.158c0.016,0.058,0.032,0.129,0.074,0.199c0.726,1.15,1.606,2.266,2.776,3.512
			c0.318,0.338,0.673,0.7,1.088,1.102c0.097,0.096,0.137,0.188,0.137,0.32l0.008,0.597c0.003,0.281,0.008,0.571,0.006,0.857
			c-0.016,1.262-0.126,2.587-0.36,4.301l-0.04,0.333l-3.604-2.536c-0.179-0.124-0.26-0.272-0.305-0.544
			c-0.224-1.421-0.507-3.066-1.046-4.614c-0.119-0.339-0.137-0.368-0.421-0.62c-0.008-0.009-0.018-0.014-0.037-0.012l-0.129,0.015
			c-0.021,0.001-0.037,0.014-0.042,0.034l-0.04,0.132c-0.021,0.074-0.045,0.151-0.023,0.232l0.276,1.199l0.005,0.018
			c0.14,0.6,0.287,1.217,0.416,1.829c0.084,0.401,0.143,0.817,0.203,1.226l0.095,0.373l-0.476-0.322
			c-0.024-0.014-2.222-1.454-2.9-1.903c-0.128-0.087-0.224-0.183-0.263-0.274c-0.245-0.531-0.476-1.078-0.699-1.606l-0.008-0.021
			c0,0-0.337-0.805-0.441-1.061l-0.006-0.012c-0.213-0.527-0.434-1.07-0.683-1.588c-0.418-0.858-0.905-1.764-1.483-2.766
			c-0.684-1.175-1.594-2.185-2.472-3.101l-0.116-0.123c-0.089-0.098-0.181-0.197-0.281-0.287c-0.063-0.055-0.134-0.089-0.274-0.155
			l-0.021-0.01c-0.01-0.005-0.023-0.008-0.037-0.002l-0.134,0.041c-0.006,0.001-0.014,0.007-0.019,0.011l-0.045,0.041
			c-0.007,0.008-0.013,0.019-0.016,0.031l-0.01,0.129c0,0.005,0,0.01,0.002,0.017l0.016,0.054c0.021,0.073,0.044,0.158,0.102,0.231
			c0.203,0.257,0.418,0.506,0.639,0.758c0.746,0.853,1.696,2.003,2.392,3.346c0.182,0.354,0.373,0.709,0.56,1.054l0.005,0.013
			c0.323,0.602,0.66,1.225,0.954,1.851c0.268,0.568,0.492,1.17,0.71,1.751l0.263,0.706c0.026,0.067,0.042,0.138,0.06,0.222
			l-0.005-0.003c-0.189-0.108-0.344-0.197-0.497-0.293c-0.315-0.196-0.628-0.395-0.944-0.596c-0.581-0.368-1.183-0.75-1.788-1.103
			c-1.009-0.586-2.079-1.171-3.27-1.789c-0.387-0.2-0.658-0.477-0.875-0.901c-0.526-1.009-1.141-1.977-1.825-2.876
			c-0.637-0.834-1.343-1.714-2.188-2.496c-0.171-0.158-0.349-0.314-0.51-0.455l-0.384-0.252c-0.016-0.011-0.037-0.011-0.053,0
			c-0.105,0.071-0.16,0.148-0.171,0.236c-0.016,0.126,0.065,0.218,0.116,0.272c0.005,0.008,0.641,0.729,0.792,0.903l0.586,0.689
			c0.5,0.583,1.018,1.186,1.475,1.817c0.36,0.494,0.668,1.043,0.965,1.577l0.008,0.011c0.102,0.184,0.208,0.371,0.284,0.513
			c-0.039-0.017-0.081-0.037-0.121-0.058l-0.184-0.103c-0.736-0.407-1.499-0.828-2.245-1.251l-2.19-1.247
			c-1.075-0.612-2.188-1.246-3.284-1.861c-1.009-0.568-2.04-1.133-3.042-1.68l-0.823-0.451c-0.084-0.046-0.168-0.082-0.366-0.171
			l-0.089-0.041c-0.013-0.002-0.026-0.005-0.04,0c-0.013,0.007-0.023,0.017-0.026,0.03l-0.031,0.091
			c-0.11,0.344,0.129,0.507,0.221,0.57l0.031,0.021c0.284,0.189,0.578,0.384,0.878,0.559l1.854,1.08
			c1.975,1.153,4.017,2.345,6.036,3.503c0.565,0.325,1.154,0.626,1.727,0.917l0.894,0.459c0.139,0.072,0.273,0.143,0.402,0.232
			l-0.129,0.026c-0.297,0.062-0.602,0.126-0.92,0.163l-0.013,0.002c-0.421,0.047-0.857,0.097-1.288,0.097
			c-0.189,0-0.368-0.009-0.542-0.029c-0.915-0.106-3.889-0.438-3.92-0.442l-0.747-0.067c-0.021,0.001-0.037,0.009-0.044,0.024
			c-0.011,0.017-0.011,0.035,0,0.051l0.103,0.149l0.079,0.134c0.053,0.087,0.095,0.163,0.182,0.195
			c0.195,0.074,0.4,0.127,0.607,0.159l0.747,0.116c0.754,0.118,1.535,0.241,2.311,0.325c0.639,0.071,1.217,0.105,1.767,0.105
			c0.81,0,1.543-0.074,2.248-0.227c0.408-0.089,0.757-0.041,1.186,0.16c0.705,0.333,1.377,0.756,2.029,1.166l0.026,0.019
			c0.384,0.242,0.784,0.49,1.183,0.721c0.831,0.473,1.623,0.947,2.571,1.517l1.002,0.602c0.055,0.031,0.102,0.062,0.147,0.093
			c-2.137,0.216-3.904,0.317-5.55,0.317l-0.621-0.005c-2.371-0.04-4.69-0.379-6.446-0.671l-0.103-0.018
			c-0.016-0.003-0.029,0.002-0.04,0.01c-0.01,0.01-0.016,0.023-0.016,0.038v0.101c0,0.403,0.287,0.465,0.441,0.5l0.29,0.068
			c0.357,0.083,0.759,0.18,1.154,0.224c1.136,0.128,2.33,0.241,3.547,0.335c0.862,0.067,1.774,0.1,2.713,0.1
			c1.183,0,2.445-0.051,3.865-0.156l0.465-0.046c0.29-0.03,0.589-0.062,0.934-0.069c0.25,0,0.452,0.042,0.578,0.118
			c0.762,0.46,1.525,0.946,2.264,1.418l0.636,0.406c0.029,0.021,0.058,0.044,0.092,0.074l-0.376,0.116
			c-0.41,0.128-0.796,0.25-1.191,0.35c-0.731,0.184-1.477,0.363-2.2,0.536l-1.462,0.353c-0.11,0.026-0.21,0.076-0.297,0.117
			c-0.005,0.001-0.008,0.004-0.013,0.007l-0.182,0.16c-0.019,0.016-0.021,0.042-0.008,0.063l0.121,0.184
			c0.008,0.016,0.023,0.024,0.042,0.021l0.139-0.009c0.092-0.005,0.206-0.012,0.313-0.035l5.799-1.167
			c0.184-0.035,0.332-0.009,0.466,0.088l1.845,1.289l2.056,1.497c-0.026,0.024-0.05,0.045-0.073,0.059
			c-1.48,0.868-3.205,1.877-4.919,2.875c-0.189,0.11-0.389,0.217-0.578,0.322l-0.126,0.068c-0.25,0.134-0.507,0.275-0.754,0.425
			c-0.31,0.186-0.568,0.19-0.91,0.02c-1.112-0.546-2.143-1.028-3.147-1.472c-0.46-0.204-0.938-0.381-1.398-0.553l-0.644-0.242
			c-0.1-0.038-0.213-0.08-0.337-0.08c-0.1,0-0.189,0.026-0.315,0.158c-0.008,0.008-0.013,0.02-0.013,0.031
			c-0.003,0.254,0.176,0.318,0.338,0.375l4.07,2.012c0.213,0.108,0.418,0.229,0.618,0.348l0.126,0.069l-1.085,0.504
			c-0.773,0.359-1.575,0.733-2.363,1.093c-0.269,0.121-0.534,0.231-0.807,0.344l-0.056,0.023c-0.21,0.084-0.426,0.174-0.733,0.29
			c-0.058-0.002-0.128-0.034-0.273-0.1l-0.668-0.282c-1.283-0.541-2.607-1.102-3.922-1.627c-0.336-0.139-0.697-0.225-1.052-0.307
			l-0.323-0.08c-0.045-0.013-0.095-0.018-0.155-0.018c-0.027,0-0.05,0.021-0.05,0.048v0.017l-0.134-0.055
			c-0.019-0.008-0.037-0.003-0.053,0.011l-0.095,0.09c-0.005,0.007-0.01,0.013-0.013,0.022l-0.019,0.061
			c-0.006,0.013-0.003,0.028,0.005,0.04l0.079,0.126c0.006,0.005,0.008,0.011,0.014,0.013l0.052,0.037
			c0.068,0.047,0.145,0.102,0.24,0.131c0.97,0.308,1.918,0.731,2.833,1.141l0.024,0.01c0.589,0.263,1.196,0.537,1.806,0.776
			c0.187,0.074,0.363,0.171,0.565,0.287l0.131,0.074c-0.26,0.113-0.518,0.205-0.767,0.294l-0.035,0.013
			c-0.226,0.082-0.437,0.158-0.649,0.248c-0.476,0.205-0.991,0.415-1.623,0.66c-0.57,0.224-1.143,0.442-1.677,0.642l-0.194,0.076
			c-0.483,0.184-0.98,0.376-1.488,0.558c-0.542,0.192-1.094,0.373-1.659,0.557c-0.607,0.197-1.199,0.402-1.749,0.594l-0.155,0.053
			c-0.016,0.005-0.029,0.021-0.032,0.04s0.005,0.034,0.021,0.044l0.129,0.1c0.126,0.092,0.25,0.139,0.378,0.139
			c0.1,0,0.187-0.029,0.294-0.066l0.581-0.179c1.018-0.315,2.069-0.644,3.097-0.989c1.257-0.418,2.487-0.841,3.852-1.309
			l1.617-0.555l-0.266,0.492c-0.273,0.507-0.531,0.988-0.814,1.461c-0.337,0.555-0.702,1.099-1.057,1.627l-0.276,0.413
			c-0.197,0.294-0.416,0.584-0.626,0.862l-0.031,0.04c-0.263,0.347-0.534,0.707-0.771,1.083c-0.005,0.005-0.008,0.013-0.008,0.024
			l-0.002,0.092c0,0.013,0.005,0.026,0.016,0.037l0.152,0.15c0.016,0.016,0.042,0.016,0.063,0.003l0.163-0.129
			c0.071-0.055,0.153-0.115,0.218-0.191c0.968-1.12,1.914-2.371,2.981-3.941c0.366-0.539,0.681-1.117,0.989-1.685l0.281-0.513
			c0.084-0.152,0.189-0.244,0.363-0.321c0.802-0.347,1.606-0.707,2.427-1.075l0.704-0.313l2.408-1.028
			c0.008,0.029,0.016,0.058,0.013,0.076c-0.032,0.665-0.092,1.375-0.315,2.077c-0.399,1.265-1.002,2.469-1.583,3.633l-0.152,0.305
			c-0.14,0.279-0.155,0.31-0.171,0.623l-0.005,0.095c0,0.013,0.005,0.026,0.015,0.034c0.008,0.011,0.021,0.016,0.035,0.016l0,0
			l0.095-0.002c0.252-0.005,0.36-0.184,0.473-0.374c0.77-1.141,1.267-2.069,1.614-3.002c0.284-0.765,0.486-1.388,0.639-1.966
			c0.129-0.494,0.205-1.007,0.276-1.512l0.028-0.187c0.029-0.212,0.077-0.333,0.266-0.439c1.102-0.61,2.203-1.241,3.272-1.875
			c0.626-0.369,1.236-0.748,1.915-1.17l0.767-0.475c-0.002,0.02-0.002,0.038-0.007,0.057l-0.163,0.949
			c-0.15,0.878-0.337,1.971-0.528,3.016c-0.084,0.449-0.219,0.894-0.345,1.309c-0.037,0.111-0.121,0.229-0.221,0.308
			c-0.373,0.297-0.757,0.594-1.128,0.881l-0.097,0.076c-0.389,0.3-0.804,0.621-1.209,0.944c-0.41,0.326-0.799,0.673-1.178,1.007
			c-0.118,0.108-0.213,0.25-0.289,0.437l-0.068,0.171c-0.008,0.016-0.003,0.037,0.011,0.05c0.01,0.013,0.031,0.016,0.05,0.013
			l0.176-0.058c0.552-0.182,0.999-0.513,1.43-0.831l0.036-0.027c0.122-0.092,0.245-0.181,0.369-0.265
			c0.41-0.284,0.807-0.576,1.23-0.884l0.311-0.226c0,0.005-0.002,0.011-0.002,0.016l-0.105,0.447
			c-0.087,0.386-0.179,0.786-0.284,1.173c-0.089,0.344-0.192,0.694-0.29,1.03c-0.092,0.324-0.189,0.66-0.276,0.989
			c-0.189,0.71-0.381,1.464-0.625,2.453c-0.024,0.1-0.029,0.2-0.032,0.297l-0.005,0.131c0,0.006,0,0.014,0.002,0.019l0.021,0.071
			c0.005,0.011,0.014,0.021,0.024,0.026l0.047,0.027c0.013,0.005,0.023,0.008,0.037,0.005c0,0.005,0.002,0.01,0.005,0.013
			c0.011,0.016,0.023,0.023,0.04,0.023c0.005,0,0.008,0,0.01-0.002l0.116-0.021c0.008-0.003,0.016-0.005,0.021-0.01l0.05-0.037
			c0.05-0.039,0.108-0.084,0.15-0.152c0.052-0.087,0.081-0.179,0.121-0.308l1.785-5.729l0.074-0.21
			c0.016,0.023,0.026,0.044,0.034,0.063c0.263,0.726,0.576,1.585,0.881,2.458c0.076,0.216,0.144,0.439,0.21,0.658l0.019,0.061
			c0.052,0.168,0.105,0.341,0.176,0.546c0.045,0.145,0.124,0.389,0.526,0.389c0.002,0,0.105-0.01,0.105-0.01
			c0.013,0,0.026-0.008,0.034-0.019c0.008-0.01,0.01-0.024,0.01-0.037l-0.044-0.297c-0.019-0.132-0.039-0.285-0.076-0.426
			l-0.113-0.426c-0.187-0.707-0.357-1.343-0.552-1.972c-0.2-0.657-0.45-1.319-0.668-1.906c-0.063-0.168-0.073-0.326-0.032-0.507
			l0.16-0.736c0.216-0.981,0.437-1.993,0.634-2.999c0.103-0.521,0.182-1.056,0.258-1.572l0.113-0.753l0.023-0.116
			c0.597,0.307,1.183,0.649,1.749,0.981l0.026,0.014c0.917,0.535,1.866,1.09,2.895,1.523l0.173,0.071
			c0.016,0.007,0.037,0.002,0.05-0.009c0.013-0.012,0.018-0.033,0.013-0.05l-0.052-0.174l-0.032-0.124
			c-0.018-0.089-0.036-0.173-0.102-0.236l-0.124-0.119c-0.184-0.184-0.376-0.373-0.607-0.511c-0.66-0.401-1.34-0.795-1.998-1.177
			l-0.959-0.555c-0.047-0.029-0.176-0.115-0.25-0.166l0.006-0.004c0.104-0.083,0.197-0.154,0.294-0.217l3.523-2.177l0.161-0.113
			c0.399-0.319,0.458-0.36,0.594-0.36c0.047,0,0.1,0.005,0.179,0.012c0.134,0.012,0.294,0.025,0.526,0.029
			c1.064,0.017,2.15,0.022,3.202,0.028l1.41,0.008c0.052,0,0.157,0,0.231-0.083c0.062-0.067,0.092-0.175,0.081-0.318
			c-0.002-0.017-0.01-0.032-0.026-0.038c-0.333-0.182-0.699-0.21-1.046-0.216l-0.582-0.003l-1.385,0.004l-1.843-0.02
			c0.04-0.045,0.098-0.087,0.174-0.143l0.444-0.352c0.347-0.276,0.708-0.562,1.076-0.823c1.207-0.853,2.324-1.845,3.405-2.803
			l0.896-0.794c0.01-0.009,0.016-0.022,0.016-0.036c0-0.014-0.005-0.027-0.016-0.036L157.235,104.891z"/>
	</g>
</g>
<g>
	<path fill="#231F20" d="M38.5,252.045v-25.47h6.527c7.537,0,13.761,4.407,13.761,12.752c0,7.974-5.653,12.718-14.03,12.718H38.5z
		 M44.758,249.185c6.022,0,10.598-2.994,10.598-9.959c0-6.291-4.508-9.757-10.228-9.757H41.73v19.716H44.758z"/>
	<path fill="#231F20" d="M77.432,252.55c-7.671,0-13.693-5.922-13.693-13.223c0-7.335,6.022-13.257,13.693-13.257
		c7.537,0,13.593,5.652,13.593,13.357C91.025,246.695,84.801,252.55,77.432,252.55z M77.432,228.998
		c-5.72,0-10.295,4.374-10.295,10.194c0,5.518,4.475,10.464,10.06,10.464c5.854,0,10.396-4.475,10.396-10.262
		C87.593,233.372,82.95,228.998,77.432,228.998z"/>
	<path fill="#231F20" d="M121.75,252.045l-1.615-15.141c-0.034-0.303-0.034-1.01-0.034-1.278c-0.067,0.202-0.37,0.74-0.572,1.144
		l-8.883,16.251l-8.916-16.217c-0.235-0.438-0.438-0.875-0.572-1.212c0.067,0.337,0.067,0.842,0.034,1.312l-1.548,15.141h-3.432
		l3.028-26.177l11.002,19.717c0.101,0.135,0.404,0.808,0.438,1.077c0.067-0.27,0.37-0.942,0.438-1.077l10.968-19.683l3.062,26.143
		H121.75z"/>
	<path fill="#231F20" d="M131.883,252.045v-25.47h3.23v25.47H131.883z"/>
	<path fill="#231F20" d="M146.251,233.742l0.034,18.303h-3.23l0.034-26.143l19.246,19.38l-0.034-18.707h3.23l-0.034,26.378
		L146.251,233.742z"/>
	<path fill="#231F20" d="M173.476,252.045v-25.47h3.23v25.47H173.476z"/>
	<path fill="#231F20" d="M196.795,252.55c-7.672,0-13.694-5.922-13.694-13.223c0-7.335,6.022-13.257,13.694-13.257
		c7.536,0,13.593,5.652,13.593,13.357C210.388,246.695,204.163,252.55,196.795,252.55z M196.795,228.998
		c-5.72,0-10.296,4.374-10.296,10.194c0,5.518,4.475,10.464,10.061,10.464c5.854,0,10.396-4.475,10.396-10.262
		C206.956,233.372,202.312,228.998,196.795,228.998z"/>
	<path fill="#231F20" d="M219.948,233.742l0.034,18.303h-3.23l0.034-26.143l19.245,19.38l-0.034-18.707h3.23l-0.034,26.378
		L219.948,233.742z"/>
	<path fill="#231F20" d="M277.859,249.286c-2.321,2.119-5.249,3.264-8.781,3.264c-7.907,0-13.762-5.989-13.762-13.223
		c0-7.268,5.652-13.257,13.525-13.257c4.408,0,7.47,1.985,8.917,3.432l-1.783,2.255c-1.615-1.615-3.938-2.759-7.402-2.759
		c-5.619,0-9.824,4.34-9.824,10.497c0,5.72,4.71,10.161,10.362,10.161c3.466,0,5.922-1.245,7.268-2.49L277.859,249.286z"/>
	<path fill="#231F20" d="M283.954,252.045v-25.47h3.229v25.47H283.954z"/>
	<path fill="#231F20" d="M300.038,252.045v-22.576h-7.436v-2.86h18.102v2.86h-7.436v22.576H300.038z"/>
	<path fill="#231F20" d="M321.439,252.045V241.11l-8.815-14.535h3.634l6.662,11.439c0.101,0.202,0.168,0.37,0.202,0.841
		c0.033-0.471,0.135-0.639,0.235-0.841l6.729-11.439h3.566l-8.983,14.535v10.935H321.439z"/>
	<path fill="#231F20" d="M73.195,287.043v-23.437h5.046c4.521,0,8.112,1.238,8.112,6.006c0,2.198-1.951,4.211-3.685,4.799
		c2.322,0.402,5.635,2.354,5.635,5.883c0,4.18-2.972,6.749-8.762,6.749H73.195z M78.056,273.699c3.189,0,5.17-1.424,5.17-3.994
		c0-2.538-1.889-3.437-4.427-3.437h-2.632v7.431H78.056z M79.976,284.411c3.529,0,5.17-1.672,5.17-4.087
		c0-2.353-2.043-3.963-5.139-3.963h-3.839v8.05H79.976z"/>
	<path fill="#231F20" d="M107.375,287.043l-9.288-9.227h-0.898v9.227h-2.972v-23.437h4.675c4.024,0,9.226,1.207,9.226,6.935
		c0,3.777-2.663,6.563-6.75,7.121l10.186,9.381H107.375z M98.861,275.186c4.025,0,6.161-1.951,6.161-4.613
		c0-2.941-2.074-4.304-5.542-4.304h-2.291v8.917H98.861z"/>
	<path fill="#231F20" d="M114.99,287.012v-23.375h12.787v2.632h-9.814v6.936h7.895v2.662h-7.895v8.545l10.805-0.03v2.631H114.99z"/>
	<path fill="#231F20" d="M147.405,270.417l-7.399,17.616l-8.669-24.427h3.25l5.604,16.068c0.124,0.34,0.155,0.681,0.186,1.146
		c0.031-0.465,0.093-0.806,0.217-1.146l6.78-16.688l6.997,16.688c0.124,0.31,0.186,0.681,0.217,1.146
		c0.031-0.465,0.062-0.836,0.186-1.146l5.449-16.068h3.189l-8.483,24.458L147.405,270.417z"/>
	<path fill="#231F20" d="M167.838,287.043v-23.437h2.972v23.437H167.838z"/>
	<path fill="#231F20" d="M181.058,270.201l0.03,16.842h-2.972l0.031-24.056l17.709,17.833l-0.031-17.214h2.973l-0.031,24.272
		L181.058,270.201z"/>
	<path fill="#231F20" d="M218.921,278.064v-2.693h9.381c-0.062,8.483-5.511,12.137-11.177,12.137
		c-6.903,0-12.477-5.418-12.477-12.105c0-6.843,5.325-12.261,12.508-12.261c5.542,0,8.669,3.034,8.823,3.22l-1.548,2.198
		c-0.154-0.186-2.972-2.725-7.337-2.725c-5.759,0-9.288,4.211-9.288,9.629c0,4.83,3.9,9.381,9.535,9.381
		c4.025,0,7.462-2.539,7.833-6.78H218.921z"/>
	<path fill="#231F20" d="M261.954,284.504c-2.136,1.951-4.83,3.004-8.08,3.004c-7.276,0-12.663-5.512-12.663-12.168
		c0-6.688,5.201-12.198,12.446-12.198c4.056,0,6.873,1.827,8.204,3.158l-1.641,2.074c-1.486-1.486-3.622-2.539-6.812-2.539
		c-5.17,0-9.04,3.994-9.04,9.66c0,5.263,4.334,9.35,9.535,9.35c3.189,0,5.449-1.146,6.688-2.291L261.954,284.504z"/>
	<path fill="#231F20" d="M277.805,287.508c-7.059,0-12.601-5.449-12.601-12.168c0-6.749,5.542-12.198,12.601-12.198
		c6.936,0,12.508,5.201,12.508,12.291C290.312,282.12,284.585,287.508,277.805,287.508z M277.805,265.835
		c-5.263,0-9.474,4.025-9.474,9.381c0,5.078,4.118,9.629,9.257,9.629c5.388,0,9.567-4.117,9.567-9.442
		C287.155,269.86,282.883,265.835,277.805,265.835z"/>
	<path fill="#231F20" d="M294.522,287.414c-1.053,0-1.919-0.929-1.919-1.888c0-1.084,0.866-1.951,1.919-1.951
		c1.084,0,1.92,0.867,1.92,1.951C296.442,286.485,295.606,287.414,294.522,287.414z"/>
</g>
<text transform="matrix(1 0 0 1 113.5967 319.832)" font-family="'DINCanfor-Book'" font-size="12">DOORS OPEN MARCH 2014</text>
</svg>
