<?xml version="1.0" encoding="utf-8"?>
<!-- Generator: Adobe Illustrator 16.0.1, SVG Export Plug-In . SVG Version: 6.00 Build 0)  -->
<!DOCTYPE svg PUBLIC "-//W3C//DTD SVG 1.1//EN" "http://www.w3.org/Graphics/SVG/1.1/DTD/svg11.dtd">
<svg version="1.1" xmlns="http://www.w3.org/2000/svg" xmlns:xlink="http://www.w3.org/1999/xlink" x="0px" y="0px"
	 width="266.89px" height="267.04px" viewBox="0 0 266.89 267.04" style="enable-background:new 0 0 266.89 267.04;"
	 xml:space="preserve">
<style type="text/css">
<![CDATA[
	.st0{fill:#FFFFFF;}
	.st1{fill:#3B5998;}
]]>
</style>
<g id="Background">
	<g id="Frame">
		<rect x="-123.55" y="367.01" class="st0" width="1024" height="0.44"/>
	</g>
	<g id="Text">
	</g>
</g>
<g id="White">
</g>
<g id="Blue">
	<path id="Blue_1_" class="st1" d="M252.16,266.89c8.13,0,14.73-6.6,14.73-14.73V14.73c0-8.14-6.6-14.73-14.73-14.73H14.73
		C6.59,0,0,6.59,0,14.73v237.43c0,8.13,6.59,14.73,14.73,14.73H252.16z"/>
	<path id="f" class="st0" d="M184.15,266.89V163.54h34.69l5.19-40.28h-39.89V97.54c0-11.66,3.24-19.61,19.96-19.61l21.33-0.01V41.9
		c-3.69-0.49-16.35-1.59-31.08-1.59c-30.75,0-51.81,18.77-51.81,53.24v29.71h-34.78v40.28h34.78v103.36H184.15z"/>
	<g>
	</g>
	<g>
	</g>
	<g>
	</g>
	<g>
	</g>
	<g>
	</g>
	<g>
	</g>
</g>
</svg>
