<?xml version="1.0" encoding="utf-8"?>
<!-- Generator: Adobe Illustrator 16.0.1, SVG Export Plug-In . SVG Version: 6.00 Build 0)  -->
<!DOCTYPE svg PUBLIC "-//W3C//DTD SVG 1.1//EN" "http://www.w3.org/Graphics/SVG/1.1/DTD/svg11.dtd">
<svg version="1.1" id="Layer_1" xmlns="http://www.w3.org/2000/svg" xmlns:xlink="http://www.w3.org/1999/xlink" x="0px" y="0px"
	 width="262px" height="85.75px" viewBox="0 0 262 85.75" enable-background="new 0 0 262 85.75" xml:space="preserve">
<g>
	<g>
		
			<linearGradient id="SVGID_1_" gradientUnits="userSpaceOnUse" x1="47.0698" y1="60.6865" x2="47.0698" y2="-24.998" gradientTransform="matrix(1 0 0 -1 84 60.75)">
			<stop  offset="0" style="stop-color:#CCCCCC"/>
			<stop  offset="1" style="stop-color:#4D4D4D"/>
		</linearGradient>
		<path fill="#808080" stroke="url(#SVGID_1_)" stroke-width="2" stroke-miterlimit="10" d="M5.826,1.064h250.486
			c2.603,0,4.73,2.136,4.73,4.731v74.223c0,2.594-2.137,4.73-4.73,4.73H5.826c-2.595,0-4.73-2.129-4.73-4.73V5.795
			C1.096,3.193,3.225,1.064,5.826,1.064L5.826,1.064z"/>
		<path fill="#EDEDED" d="M171.963,53.133c-1.234,0-2.121,0.405-3.021,0.811v9.316c0.863,0.081,1.353,0.081,2.172,0.081
			c2.965,0,3.371-1.354,3.371-3.247v-4.447C174.484,54.255,174.02,53.133,171.963,53.133 M152.301,52.623
			c-2.056,0-2.521,1.131-2.521,2.521v0.782h5.041v-0.782C154.82,53.754,154.355,52.623,152.301,52.623 M114.217,62.314
			c0,1.108,0.516,1.678,1.667,1.678c1.238,0,1.967-0.399,2.862-0.812v-2.213h-2.697C114.775,60.967,114.217,61.204,114.217,62.314
			 M191.086,53.133c-2.055,0-2.766,1.122-2.766,2.514v5.101c0,1.396,0.711,2.521,2.766,2.521c2.057,0,2.771-1.125,2.771-2.521
			v-5.101C193.857,54.255,193.143,53.133,191.086,53.133 M104.131,68.027h-6.045V53.414h-3.025v-5.042h3.025v-3.024
			c0-4.108,1.702-6.556,6.549-6.556h4.036v5.04h-2.521c-1.883,0-2.011,0.704-2.011,2.02l-0.009,2.521h4.571l-0.533,5.034h-4.038
			L104.131,68.027L104.131,68.027z M124.801,68.062h-5.042l-0.214-1.271c-2.307,1.271-4.361,1.479-5.716,1.479
			c-3.694,0-5.66-2.461-5.66-5.875c0-4.021,2.291-5.459,6.401-5.459h4.184v-0.871c0-2.056-0.236-2.659-3.4-2.659h-5.173l0.509-5.034
			h5.649c6.94,0,8.462,2.188,8.462,7.732V68.062L124.801,68.062z M141.943,53.773c-3.142-0.531-4.035-0.647-5.551-0.647
			c-2.705,0-3.527,0.599-3.527,2.89v4.354c0,2.299,0.822,2.897,3.527,2.897c1.516,0,2.409-0.119,5.551-0.66v4.916
			c-2.75,0.612-4.539,0.774-6.053,0.774c-6.493,0-9.071-3.407-9.071-8.336v-3.526c0-4.933,2.578-8.353,9.071-8.353
			c1.514,0,3.303,0.163,6.053,0.784V53.773L141.943,53.773z M160.868,59.963h-11.089v0.407c0,2.299,0.82,2.897,3.525,2.897
			c2.439,0,3.926-0.119,7.061-0.66v4.916c-3.023,0.612-4.592,0.774-7.555,0.774c-6.498,0-9.078-3.407-9.078-8.336v-4.036
			c0-4.31,1.914-7.843,8.567-7.843c6.66,0,8.567,3.487,8.567,7.843L160.868,59.963L160.868,59.963L160.868,59.963z M180.529,60.061
			c0,4.758-1.358,8.232-9.615,8.232c-2.979,0-4.73-0.266-8.021-0.768V40.308l6.047-1.005v9.512c1.309-0.479,2.994-0.729,4.539-0.729
			c6.047,0,7.051,2.711,7.051,7.06V60.061L180.529,60.061z M199.912,60.161c0,4.103-1.7,8.089-8.805,8.089
			c-7.104,0-8.84-3.986-8.84-8.089v-3.968c0-4.11,1.736-8.096,8.84-8.096c7.104,0,8.805,3.985,8.805,8.096V60.161L199.912,60.161z
			 M219.279,60.161c0,4.103-1.7,8.089-8.805,8.089c-7.104,0-8.841-3.986-8.841-8.089v-3.968c0-4.11,1.737-8.096,8.841-8.096
			c7.104,0,8.805,3.985,8.805,8.096V60.161L219.279,60.161z M239.156,68.027H232.6l-5.543-9.239v9.239h-6.039V40.308l6.039-1.005
			v17.844l5.543-8.773h6.558l-6.054,9.572L239.156,68.027L239.156,68.027z M210.453,53.133c-2.049,0-2.766,1.122-2.766,2.514v5.101
			c0,1.396,0.717,2.521,2.766,2.521c2.055,0,2.779-1.125,2.779-2.521v-5.101C213.232,54.255,212.508,53.133,210.453,53.133
			L210.453,53.133z"/>
		<path fill="#EDEDED" d="M23.346,17.511h45.563c1.396,0,2.543,1.146,2.543,2.543v45.488c0,1.397-1.147,2.545-2.543,2.545H23.346
			c-1.396,0-2.543-1.147-2.543-2.545V20.054C20.803,18.657,21.95,17.511,23.346,17.511L23.346,17.511z"/>
		<path fill="#627DB7" d="M24.342,57.146"/>
		<path fill="#808080" d="M57.45,64.864h-7.89V46.205h-5.219v-7.22h5.335v-6.978c0-3.792,2.986-7.34,7.88-7.34h6.898v6.926h-4.688
			c-2.136,0-2.179,0.259-2.179,2.062l-0.017,5.33h6.884l-0.772,7.22H57.45V64.864L57.45,64.864z"/>
		<path fill="#EDEDED" d="M185.527,33.751V22.028h3.104v0.591c0.355-0.104,0.695-0.192,1.021-0.266
			c0.599-0.126,1.146-0.214,1.634-0.259c0.487-0.044,0.909-0.066,1.271-0.066c0.605,0,1.115,0.096,1.537,0.273
			c0.43,0.177,0.776,0.421,1.035,0.732c0.266,0.31,0.467,0.68,0.584,1.108c0.125,0.437,0.186,0.902,0.186,1.405v8.205h-3.431v-8.36
			c0-0.244-0.065-0.421-0.215-0.54c-0.14-0.111-0.332-0.17-0.562-0.17c-0.385,0-0.836,0.052-1.338,0.163
			c-0.504,0.111-0.97,0.273-1.397,0.488v8.419H185.527L185.527,33.751z"/>
		<path fill="#EDEDED" d="M180.42,27.675c0-0.754-0.037-1.08-0.111-1.545c-0.072-0.458-0.191-0.821-0.369-1.08
			c-0.17-0.251-0.398-0.421-0.688-0.51c-0.288-0.082-0.65-0.125-1.079-0.125c-0.399,0-0.739,0.059-1.021,0.177
			c-0.281,0.125-0.51,0.325-0.694,0.613c-0.178,0.281-0.312,0.658-0.385,1.131c-0.081,0.465-0.118,0.761-0.118,1.449
			c0,0.754,0.037,1.36,0.104,1.826c0.074,0.458,0.199,0.813,0.369,1.064s0.399,0.414,0.682,0.495
			c0.279,0.074,0.636,0.111,1.063,0.111c0.406,0,0.746-0.051,1.034-0.17c0.289-0.111,0.525-0.311,0.703-0.584
			c0.177-0.281,0.311-0.65,0.392-1.109C180.375,28.954,180.42,28.377,180.42,27.675L180.42,27.675z M172.568,27.786
			c0-1.257,0.104-2.003,0.312-2.816c0.207-0.812,0.54-1.449,0.99-1.922c0.45-0.473,1.035-0.798,1.737-0.983
			c0.701-0.185,1.56-0.281,2.564-0.281c1.079,0,1.98,0.096,2.698,0.288c0.717,0.192,1.293,0.532,1.722,1.005
			c0.43,0.48,0.739,1.116,0.932,1.9c0.186,0.791,0.281,1.5,0.281,2.698c0,1.227-0.111,2.247-0.318,3.053
			c-0.206,0.813-0.538,1.456-0.989,1.937c-0.451,0.473-1.035,0.813-1.745,1.005c-0.709,0.192-1.574,0.289-2.579,0.289
			c-1.079,0-1.974-0.096-2.69-0.281c-0.725-0.185-1.293-0.51-1.729-0.983c-0.429-0.466-0.731-1.102-0.916-1.885
			C172.658,30.019,172.568,29.006,172.568,27.786L172.568,27.786z"/>
		<path fill="#EDEDED" d="M164.157,25.021c-0.576-0.185-1.175-0.325-1.812-0.429c-0.636-0.096-1.205-0.148-1.723-0.148
			c-0.857,0-1.796-0.029-1.671,0.961c0.022,0.17,0.082,0.318,0.185,0.436c0.098,0.119,0.237,0.229,0.414,0.318
			c0.186,0.096,0.438,0.185,0.77,0.266c0.688,0.185,1.324,0.348,1.906,0.488c1.774,0.437,2.848,1.39,2.848,3.075
			c0,0.85-0.135,1.538-0.393,2.062c-0.259,0.525-0.613,0.931-1.08,1.227c-0.457,0.288-1.013,0.48-1.654,0.584
			c-0.65,0.096-1.367,0.148-2.158,0.148c-0.703,0-1.383-0.037-2.025-0.104c-0.65-0.074-1.279-0.178-1.9-0.325l0.281-2.676
			c0.562,0.155,1.146,0.266,1.744,0.348c0.606,0.081,1.197,0.118,1.768,0.118c0.273,0,0.547-0.015,0.82-0.029
			c0.273-0.022,0.518-0.074,0.731-0.155c0.222-0.074,0.399-0.192,0.532-0.348c0.133-0.156,0.207-0.377,0.207-0.658
			c0-0.2-0.045-0.37-0.118-0.503c-0.082-0.133-0.222-0.251-0.422-0.34c-0.207-0.096-0.479-0.177-0.835-0.259
			c-0.348-0.074-0.791-0.141-1.323-0.244c-0.938-0.185-2.58-0.717-3.046-1.656c-0.65-1.293-0.68-3.43,0.459-4.457
			c0.828-0.739,2.166-0.917,3.962-0.917c0.562,0,1.175,0.044,1.849,0.14c0.68,0.089,1.44,0.281,1.967,0.458L164.157,25.021
			L164.157,25.021z"/>
		<path fill="#EDEDED" d="M154.001,22.028v11.724h-3.104v-0.488c-0.097,0.029-0.186,0.059-0.28,0.081
			c-0.562,0.141-1.103,0.244-1.619,0.312c-0.517,0.067-0.998,0.096-1.44,0.096c-0.703,0-1.293-0.082-1.768-0.259
			c-0.473-0.17-0.857-0.414-1.152-0.732c-0.296-0.318-0.503-0.688-0.629-1.124c-0.117-0.429-0.185-0.895-0.185-1.397v-8.212h3.43
			v8.36c0,0.244,0.081,0.421,0.235,0.532c0.164,0.104,0.341,0.155,0.541,0.155c0.406,0,0.826-0.044,1.271-0.148
			c0.45-0.104,0.864-0.244,1.249-0.429v-8.471L154.001,22.028L154.001,22.028z"/>
		<path fill="#EDEDED" d="M135.417,33.751h-3.106v-0.34c-0.783,0.229-1.678,0.34-2.676,0.34c-0.961,0-1.737-0.141-2.326-0.429
			c-0.594-0.289-1.052-0.695-1.37-1.228c-0.325-0.532-0.545-1.175-0.657-1.937c-0.116-0.754-0.18-1.293-0.18-2.225
			c0-1.08,0.07-1.479,0.201-2.284c0.126-0.798,0.362-1.471,0.695-2.011c0.342-0.54,0.791-0.946,1.36-1.212
			c0.57-0.266,1.291-0.399,2.164-0.399c0.547,0,1.02,0.037,1.415,0.111c0.396,0.074,0.76,0.17,1.094,0.303v-4.369l3.386-0.562
			C135.417,22.922,135.417,28.34,135.417,33.751L135.417,33.751z M129.896,31.076c0.427,0,0.841-0.082,1.24-0.244
			c0.391-0.163,0.688-0.384,0.896-0.658v-5.056c-0.505-0.289-1.044-0.437-1.62-0.437c-0.42,0-0.745,0.067-0.989,0.207
			c-0.243,0.133-0.438,0.355-0.578,0.643c-0.131,0.296-0.222,0.68-0.268,1.153c-0.043,0.48-0.064,0.51-0.064,1.205
			c0,1.22,0.081,1.804,0.251,2.358C128.925,30.802,129.302,31.076,129.896,31.076L129.896,31.076z"/>
		<path fill="#EDEDED" d="M113.011,33.751V22.028h3.103v0.591c0.356-0.104,0.698-0.192,1.023-0.266
			c0.597-0.126,1.144-0.214,1.634-0.259c0.488-0.044,0.907-0.066,1.271-0.066c0.597,0,1.116,0.096,1.535,0.273
			c0.431,0.177,0.768,0.421,1.035,0.732c0.269,0.31,0.466,0.68,0.586,1.108c0.124,0.437,0.183,0.902,0.183,1.405v8.205h-3.428v-8.36
			c0-0.244-0.074-0.421-0.214-0.54c-0.152-0.111-0.333-0.17-0.562-0.17c-0.384,0-0.837,0.052-1.338,0.163
			c-0.504,0.111-0.97,0.273-1.398,0.488v8.419H113.011L113.011,33.751z"/>
		<path fill="#EDEDED" d="M107.424,22.028h3.428v11.724h-3.428V22.028L107.424,22.028z"/>
		<path fill="#EDEDED" d="M95.061,33.751V18.775c0-0.651,0.551-1.264,1.199-1.264h9.441v3.053h-6.01
			c-1.001,0-0.911,0.037-0.911,1.02v2.772h6.49l-0.311,2.891h-6.18v6.505L95.061,33.751L95.061,33.751z"/>
		<path fill="#EDEDED" d="M107.569,17.511h3.142c0.074,0,0.141,0.066,0.141,0.141v2.565c0,0.074-0.066,0.14-0.141,0.14h-3.142
			c-0.081,0-0.146-0.066-0.146-0.14v-2.565C107.424,17.578,107.488,17.511,107.569,17.511L107.569,17.511z"/>
	</g>
</g>
</svg>
