<?xml version="1.0" encoding="utf-8"?>
<!-- Generator: Adobe Illustrator 16.0.1, SVG Export Plug-In . SVG Version: 6.00 Build 0)  -->
<!DOCTYPE svg PUBLIC "-//W3C//DTD SVG 1.1//EN" "http://www.w3.org/Graphics/SVG/1.1/DTD/svg11.dtd">
<svg version="1.1" id="Layer_1" xmlns="http://www.w3.org/2000/svg" xmlns:xlink="http://www.w3.org/1999/xlink" x="0px" y="0px"
	 width="16px" height="16px" viewBox="0 0 16 16" enable-background="new 0 0 16 16" xml:space="preserve">
<g>
	<g>
		<g>
			<linearGradient id="SVGID_1_" gradientUnits="userSpaceOnUse" x1="7.9995" y1="0.207" x2="7.9995" y2="15.7198">
				<stop  offset="0" style="stop-color:#DAD7CF"/>
				<stop  offset="1" style="stop-color:#D3C2A0"/>
			</linearGradient>
			<path fill="url(#SVGID_1_)" d="M2.667,15.873c-1.401,0-2.542-1.14-2.542-2.541V2.666c0-1.401,1.141-2.541,2.542-2.541h10.667
				c1.4,0,2.541,1.14,2.541,2.541v10.666c0,1.401-1.141,2.541-2.541,2.541H2.667z"/>
			<g>
				<path fill="#A1816D" d="M13.334,0.25c1.332,0,2.416,1.084,2.416,2.416v10.666c0,1.332-1.084,2.416-2.416,2.416H2.667
					c-1.333,0-2.417-1.084-2.417-2.416V2.666c0-1.332,1.084-2.416,2.417-2.416H13.334 M13.334,0H2.667C1.2,0,0,1.199,0,2.666v10.666
					c0,1.467,1.2,2.666,2.667,2.666h10.667c1.467,0,2.666-1.199,2.666-2.666V2.666C16,1.199,14.801,0,13.334,0L13.334,0z"/>
			</g>
		</g>
		<g opacity="0.35">
			<g>
				<linearGradient id="SVGID_2_" gradientUnits="userSpaceOnUse" x1="8" y1="15.125" x2="8" y2="7.1253">
					<stop  offset="0" style="stop-color:#FFFFFF"/>
					<stop  offset="1" style="stop-color:#000000"/>
				</linearGradient>
				<path fill="url(#SVGID_2_)" d="M13.334,1H2.667C1.748,1,1,1.748,1,2.666v10.666C1,14.252,1.748,15,2.667,15h10.667
					C14.252,15,15,14.252,15,13.332V2.666C15,1.748,14.252,1,13.334,1z M14,13.332C14,13.701,13.701,14,13.334,14H2.667
					C2.299,14,2,13.701,2,13.332V2.666C2,2.299,2.299,2,2.667,2h10.667C13.701,2,14,2.299,14,2.666V13.332z"/>
			</g>
		</g>
		<linearGradient id="SVGID_3_" gradientUnits="userSpaceOnUse" x1="8" y1="6" x2="8" y2="0">
			<stop  offset="0" style="stop-color:#796055"/>
			<stop  offset="0.4342" style="stop-color:#614C43"/>
			<stop  offset="1" style="stop-color:#3D2D28"/>
		</linearGradient>
		<path fill="url(#SVGID_3_)" d="M16,6V2.667C16,1.23,14.77,0,13.334,0H2.667C1.23,0,0,1.23,0,2.667V6H16z"/>
		<linearGradient id="SVGID_4_" gradientUnits="userSpaceOnUse" x1="7.9995" y1="6.0054" x2="7.9995" y2="6.9904">
			<stop  offset="0" style="stop-color:#C9BDB1"/>
			<stop  offset="1" style="stop-color:#AD9987"/>
		</linearGradient>
		<rect x="1" y="6" fill="url(#SVGID_4_)" width="14" height="1"/>
		<g>
			<g>
				<linearGradient id="SVGID_5_" gradientUnits="userSpaceOnUse" x1="7.9995" y1="0.0835" x2="7.9995" y2="15.8445">
					<stop  offset="0" style="stop-color:#C9BDB1"/>
					<stop  offset="1" style="stop-color:#AD9987"/>
				</linearGradient>
				<path fill="url(#SVGID_5_)" d="M13.334,0H2.667C1.2,0,0,1.199,0,2.666v10.666C0,14.801,1.2,16,2.667,16h10.667
					C14.801,16,16,14.801,16,13.332V2.666C16,1.199,14.801,0,13.334,0z M15,13.332C15,14.252,14.252,15,13.334,15H2.667
					C1.748,15,1,14.252,1,13.332V2.666C1,1.748,1.748,1,2.667,1h10.667C14.252,1,15,1.748,15,2.666V13.332z"/>
			</g>
		</g>
		<g opacity="0.7">
			<linearGradient id="SVGID_6_" gradientUnits="userSpaceOnUse" x1="7.9995" y1="1.0137" x2="7.9995" y2="3.6417">
				<stop  offset="0" style="stop-color:#FFFFFF"/>
				<stop  offset="1" style="stop-color:#000000"/>
			</linearGradient>
			<path fill="url(#SVGID_6_)" d="M13.334,1H2.667C1.748,1,1,1.748,1,2.666v1.002C1,2.748,1.748,2,2.667,2h10.667
				C14.252,2,15,2.748,15,3.668V2.666C15,1.748,14.252,1,13.334,1z"/>
		</g>
		<linearGradient id="SVGID_7_" gradientUnits="userSpaceOnUse" x1="7.9995" y1="5.0054" x2="7.9995" y2="5.9904">
			<stop  offset="0" style="stop-color:#C9BDB1"/>
			<stop  offset="1" style="stop-color:#AD9987"/>
		</linearGradient>
		<rect x="1" y="5" fill="url(#SVGID_7_)" width="14" height="1"/>
	</g>
	<g>
		<linearGradient id="SVGID_8_" gradientUnits="userSpaceOnUse" x1="12.5" y1="5" x2="12.5" y2="2">
			<stop  offset="0" style="stop-color:#796055"/>
			<stop  offset="0.4342" style="stop-color:#614C43"/>
			<stop  offset="1" style="stop-color:#3D2D28"/>
		</linearGradient>
		<path fill="url(#SVGID_8_)" d="M14,4c0,0.55-0.45,1-1,1h-1c-0.55,0-1-0.45-1-1V3c0-0.55,0.45-1,1-1h1c0.55,0,1,0.45,1,1V4z"/>
	</g>
	<circle fill="#B3B2B3" cx="8" cy="9" r="4"/>
	<g>
		<defs>
			<filter id="Adobe_OpacityMaskFilter" filterUnits="userSpaceOnUse" x="2" y="0" width="1" height="6">
				<feFlood  style="flood-color:white;flood-opacity:1" result="back"/>
				<feBlend  in="SourceGraphic" in2="back" mode="normal"/>
			</filter>
		</defs>
		<mask maskUnits="userSpaceOnUse" x="2" y="0" width="1" height="6" id="SVGID_9_">
			<g filter="url(#Adobe_OpacityMaskFilter)">
				<defs>
					<filter id="Adobe_OpacityMaskFilter_1_" filterUnits="userSpaceOnUse" x="2" y="0" width="1" height="6">
						<feFlood  style="flood-color:white;flood-opacity:1" result="back"/>
						<feBlend  in="SourceGraphic" in2="back" mode="normal"/>
					</filter>
				</defs>
				<mask maskUnits="userSpaceOnUse" x="2" y="0" width="1" height="6" id="SVGID_9_">
					<g filter="url(#Adobe_OpacityMaskFilter_1_)">
					</g>
				</mask>
				<linearGradient id="SVGID_10_" gradientUnits="userSpaceOnUse" x1="2.5" y1="0" x2="2.5" y2="6">
					<stop  offset="0" style="stop-color:#000000"/>
					<stop  offset="1" style="stop-color:#FFFFFF"/>
				</linearGradient>
				<rect x="2" mask="url(#SVGID_9_)" fill="url(#SVGID_10_)" width="1" height="6"/>
			</g>
		</mask>
		<linearGradient id="SVGID_11_" gradientUnits="userSpaceOnUse" x1="2.5" y1="0" x2="2.5" y2="6">
			<stop  offset="0" style="stop-color:#F37E5E"/>
			<stop  offset="1" style="stop-color:#CE222B"/>
		</linearGradient>
		<rect x="2" fill="url(#SVGID_11_)" width="1" height="6"/>
		<defs>
			<filter id="Adobe_OpacityMaskFilter_2_" filterUnits="userSpaceOnUse" x="3" y="0" width="1" height="6">
				<feFlood  style="flood-color:white;flood-opacity:1" result="back"/>
				<feBlend  in="SourceGraphic" in2="back" mode="normal"/>
			</filter>
		</defs>
		<mask maskUnits="userSpaceOnUse" x="3" y="0" width="1" height="6" id="SVGID_12_">
			<g filter="url(#Adobe_OpacityMaskFilter_2_)">
				<defs>
					<filter id="Adobe_OpacityMaskFilter_3_" filterUnits="userSpaceOnUse" x="3" y="0" width="1" height="6">
						<feFlood  style="flood-color:white;flood-opacity:1" result="back"/>
						<feBlend  in="SourceGraphic" in2="back" mode="normal"/>
					</filter>
				</defs>
				<mask maskUnits="userSpaceOnUse" x="3" y="0" width="1" height="6" id="SVGID_12_">
					<g filter="url(#Adobe_OpacityMaskFilter_3_)">
					</g>
				</mask>
				<linearGradient id="SVGID_13_" gradientUnits="userSpaceOnUse" x1="3.5" y1="0" x2="3.5" y2="6">
					<stop  offset="0" style="stop-color:#000000"/>
					<stop  offset="1" style="stop-color:#FFFFFF"/>
				</linearGradient>
				<rect x="3" mask="url(#SVGID_12_)" fill="url(#SVGID_13_)" width="1" height="6"/>
			</g>
		</mask>
		<linearGradient id="SVGID_14_" gradientUnits="userSpaceOnUse" x1="3.5" y1="0" x2="3.5" y2="6">
			<stop  offset="0" style="stop-color:#FDE6A2"/>
			<stop  offset="1" style="stop-color:#F7AB1B"/>
		</linearGradient>
		<rect x="3" fill="url(#SVGID_14_)" width="1" height="6"/>
		<defs>
			<filter id="Adobe_OpacityMaskFilter_4_" filterUnits="userSpaceOnUse" x="4" y="0" width="1" height="6">
				<feFlood  style="flood-color:white;flood-opacity:1" result="back"/>
				<feBlend  in="SourceGraphic" in2="back" mode="normal"/>
			</filter>
		</defs>
		<mask maskUnits="userSpaceOnUse" x="4" y="0" width="1" height="6" id="SVGID_15_">
			<g filter="url(#Adobe_OpacityMaskFilter_4_)">
				<defs>
					<filter id="Adobe_OpacityMaskFilter_5_" filterUnits="userSpaceOnUse" x="4" y="0" width="1" height="6">
						<feFlood  style="flood-color:white;flood-opacity:1" result="back"/>
						<feBlend  in="SourceGraphic" in2="back" mode="normal"/>
					</filter>
				</defs>
				<mask maskUnits="userSpaceOnUse" x="4" y="0" width="1" height="6" id="SVGID_15_">
					<g filter="url(#Adobe_OpacityMaskFilter_5_)">
					</g>
				</mask>
				<linearGradient id="SVGID_16_" gradientUnits="userSpaceOnUse" x1="4.5" y1="0" x2="4.5" y2="6">
					<stop  offset="0" style="stop-color:#000000"/>
					<stop  offset="1" style="stop-color:#FFFFFF"/>
				</linearGradient>
				<rect x="4" mask="url(#SVGID_15_)" fill="url(#SVGID_16_)" width="1" height="6"/>
			</g>
		</mask>
		<linearGradient id="SVGID_17_" gradientUnits="userSpaceOnUse" x1="4.5" y1="0" x2="4.5" y2="6">
			<stop  offset="0" style="stop-color:#D2E4A5"/>
			<stop  offset="1" style="stop-color:#76B743"/>
		</linearGradient>
		<rect x="4" fill="url(#SVGID_17_)" width="1" height="6"/>
		<defs>
			<filter id="Adobe_OpacityMaskFilter_6_" filterUnits="userSpaceOnUse" x="5" y="0" width="1" height="6">
				<feFlood  style="flood-color:white;flood-opacity:1" result="back"/>
				<feBlend  in="SourceGraphic" in2="back" mode="normal"/>
			</filter>
		</defs>
		<mask maskUnits="userSpaceOnUse" x="5" y="0" width="1" height="6" id="SVGID_18_">
			<g filter="url(#Adobe_OpacityMaskFilter_6_)">
				<defs>
					<filter id="Adobe_OpacityMaskFilter_7_" filterUnits="userSpaceOnUse" x="5" y="0" width="1" height="6">
						<feFlood  style="flood-color:white;flood-opacity:1" result="back"/>
						<feBlend  in="SourceGraphic" in2="back" mode="normal"/>
					</filter>
				</defs>
				<mask maskUnits="userSpaceOnUse" x="5" y="0" width="1" height="6" id="SVGID_18_">
					<g filter="url(#Adobe_OpacityMaskFilter_7_)">
					</g>
				</mask>
				<linearGradient id="SVGID_19_" gradientUnits="userSpaceOnUse" x1="5.5" y1="0" x2="5.5" y2="6">
					<stop  offset="0" style="stop-color:#000000"/>
					<stop  offset="1" style="stop-color:#FFFFFF"/>
				</linearGradient>
				<rect x="5" mask="url(#SVGID_18_)" fill="url(#SVGID_19_)" width="1" height="6"/>
			</g>
		</mask>
		<linearGradient id="SVGID_20_" gradientUnits="userSpaceOnUse" x1="5.5" y1="0" x2="5.5" y2="6">
			<stop  offset="0" style="stop-color:#4A9AD4"/>
			<stop  offset="1" style="stop-color:#346CB4"/>
		</linearGradient>
		<rect x="5" fill="url(#SVGID_20_)" width="1" height="6"/>
	</g>
	<g>
		<g>
			<linearGradient id="SVGID_21_" gradientUnits="userSpaceOnUse" x1="4" y1="4" x2="4" y2="6">
				<stop  offset="0" style="stop-color:#624D45"/>
				<stop  offset="1" style="stop-color:#3D2D28"/>
			</linearGradient>
			<path fill="url(#SVGID_21_)" d="M6,5c0,0.55-0.45,1-1,1H3C2.45,6,2,5.55,2,5l0,0c0-0.55,0.45-1,1-1h2C5.55,4,6,4.45,6,5L6,5z"/>
		</g>
		<linearGradient id="SVGID_22_" gradientUnits="userSpaceOnUse" x1="4" y1="5" x2="4" y2="8">
			<stop  offset="0" style="stop-color:#624D45"/>
			<stop  offset="1" style="stop-color:#3D2D28"/>
		</linearGradient>
		<path fill="url(#SVGID_22_)" d="M6,7c0,0.55-0.45,1-1,1H3C2.45,8,2,7.55,2,7V6c0-0.55,0.45-1,1-1h2c0.55,0,1,0.45,1,1V7z"/>
	</g>
	<g>
		<circle fill="#E7E0D6" cx="8" cy="8" r="4"/>
		
			<radialGradient id="SVGID_23_" cx="174.1104" cy="87.4512" r="6.9995" gradientTransform="matrix(0.4286 0 0 0.4286 -66.6233 -29.4811)" gradientUnits="userSpaceOnUse">
			<stop  offset="0.0485" style="stop-color:#58767B"/>
			<stop  offset="0.7911" style="stop-color:#0E1314"/>
			<stop  offset="0.9333" style="stop-color:#000000"/>
		</radialGradient>
		<circle fill="url(#SVGID_23_)" cx="8" cy="8" r="3"/>
		<path opacity="0.5" fill="#B3B2B3" d="M8,6.5C7.172,6.5,6.5,7.172,6.5,8S7.172,9.5,8,9.5S9.5,8.828,9.5,8S8.828,6.5,8,6.5z M8,9
			C7.448,9,7,8.552,7,8s0.448-1,1-1s1,0.448,1,1S8.552,9,8,9z"/>
	</g>
	<g>
		<g>
			
				<radialGradient id="SVGID_24_" cx="320.9277" cy="158.4199" r="3.5" gradientTransform="matrix(0.2857 0 0 0.2857 -83.6891 -37.2606)" gradientUnits="userSpaceOnUse">
				<stop  offset="0" style="stop-color:#806A80"/>
				<stop  offset="1" style="stop-color:#000000"/>
			</radialGradient>
			<circle fill="url(#SVGID_24_)" cx="8" cy="8" r="1"/>
			
				<linearGradient id="SVGID_25_" gradientUnits="userSpaceOnUse" x1="320.1387" y1="155.0078" x2="321.7138" y2="161.8303" gradientTransform="matrix(0.2857 0 0 0.2857 -83.6891 -37.2606)">
				<stop  offset="0" style="stop-color:#B1C5CF"/>
				<stop  offset="0.5393" style="stop-color:#7894A3"/>
				<stop  offset="1" style="stop-color:#456676"/>
			</linearGradient>
			<circle fill="url(#SVGID_25_)" cx="8" cy="8" r="1"/>
		</g>
		<linearGradient id="SVGID_26_" gradientUnits="userSpaceOnUse" x1="6.666" y1="5.5303" x2="7.2568" y2="6.5536">
			<stop  offset="0" style="stop-color:#7894A3"/>
			<stop  offset="1" style="stop-color:#432F4F"/>
		</linearGradient>
		<path opacity="0.6" fill="url(#SVGID_26_)" d="M6.439,6.961L5.66,6.439c0.161-0.24,0.358-0.453,0.584-0.635L6.83,6.537
			C6.68,6.657,6.548,6.8,6.439,6.961z M8,6.125V5.188c-0.452,0-0.878,0.109-1.256,0.299l0.418,0.838
			C7.415,6.197,7.699,6.125,8,6.125z"/>
		<linearGradient id="SVGID_27_" gradientUnits="userSpaceOnUse" x1="8.3184" y1="8.2173" x2="9.5508" y2="10.3519">
			<stop  offset="0" style="stop-color:#0F2E1D"/>
			<stop  offset="1" style="stop-color:#432F4F"/>
		</linearGradient>
		<path opacity="0.6" fill="url(#SVGID_27_)" d="M6.902,10.59C7.24,10.732,7.611,10.812,8,10.812c1.554,0,2.812-1.259,2.812-2.812
			c0-0.111-0.008-0.221-0.021-0.327c-0.176-0.028-0.355-0.048-0.541-0.048C8.525,7.625,7.105,8.92,6.902,10.59z"/>
	</g>
	
		<radialGradient id="SVGID_28_" cx="142" cy="59" r="2.5" gradientTransform="matrix(0.5 0 0 0.5 -58.5 -26)" gradientUnits="userSpaceOnUse">
		<stop  offset="0" style="stop-color:#050505"/>
		<stop  offset="1" style="stop-color:#000000"/>
	</radialGradient>
	<circle fill="url(#SVGID_28_)" cx="12.5" cy="3.5" r="1.25"/>
	<path fill="#343433" d="M12.964,3.32l0.467-0.18c-0.101-0.262-0.307-0.469-0.567-0.57l-0.182,0.467
		C12.812,3.088,12.913,3.19,12.964,3.32z"/>
</g>
</svg>
