<?xml version="1.0" encoding="utf-8"?>
<!-- Generator: Adobe Illustrator 16.0.1, SVG Export Plug-In . SVG Version: 6.00 Build 0)  -->
<!DOCTYPE svg PUBLIC "-//W3C//DTD SVG 1.1//EN" "http://www.w3.org/Graphics/SVG/1.1/DTD/svg11.dtd">
<svg version="1.1" id="Kickstarter_logo" xmlns="http://www.w3.org/2000/svg" xmlns:xlink="http://www.w3.org/1999/xlink" x="0px"
	 y="0px" width="467.42px" height="54.6px" viewBox="0 0 467.42 54.6" enable-background="new 0 0 467.42 54.6"
	 xml:space="preserve">
<g id="Logo">
	<path id="Grey" d="M17.08,18.93l9.64-13.96c1.82-2.63,4.17-3.95,7.06-3.95c2.35,0,4.39,0.84,6.11,2.5c1.72,1.67,2.58,3.67,2.58,6
		c0,1.721-0.46,3.24-1.37,4.55L32.41,26.7l10.62,13.47c1.06,1.34,1.59,2.91,1.59,4.71c0,2.38-0.83,4.42-2.5,6.13
		s-3.69,2.56-6.07,2.56c-2.61,0-4.59-0.85-5.96-2.54L17.08,34.8v8.96c0,2.56-0.44,4.54-1.33,5.96c-1.62,2.58-3.97,3.87-7.06,3.87
		c-2.81,0-4.98-0.95-6.53-2.85C0.72,48.99,0,46.67,0,43.79v-33.2C0,7.86,0.73,5.6,2.2,3.83C3.74,1.96,5.87,1.02,8.58,1.02
		c2.58,0,4.73,0.94,6.45,2.811c0.96,1.04,1.57,2.09,1.82,3.149c0.15,0.66,0.23,1.88,0.23,3.681V18.93z M64.94,11.61V43.75
		c0,2.779-0.72,5.069-2.16,6.87c-1.54,1.97-3.68,2.96-6.41,2.96c-2.5,0-4.62-0.92-6.34-2.771c-1.44-1.54-2.16-3.899-2.16-7.06V11.61
		c0-3.59,0.72-6.199,2.16-7.819c1.64-1.851,3.76-2.771,6.34-2.771s4.69,0.91,6.34,2.73C64.2,5.43,64.94,8.04,64.94,11.61z M95.67,0
		c6.3-0.03,12.09,2.09,17.38,6.34c4.15,3.34,6.22,6.79,6.22,10.36c0,3.04-1.27,5.39-3.79,7.06c-1.44,0.96-3.01,1.44-4.71,1.44
		c-1.39,0-2.72-0.33-3.98-0.99c-0.53-0.28-1.85-1.561-3.95-3.83c-1.95-2.12-4.39-3.19-7.32-3.19c-2.83,0-5.21,0.98-7.11,2.94
		c-1.91,1.96-2.87,4.36-2.87,7.189c0,2.811,0.95,5.19,2.87,7.15c1.91,1.96,4.27,2.94,7.08,2.94c2.33,0,4.49-0.78,6.49-2.351
		c1.24-1.189,2.47-2.38,3.68-3.569c1.32-1.141,2.98-1.711,5.01-1.711c2.33,0,4.35,0.82,6.05,2.45c1.71,1.63,2.56,3.61,2.56,5.94
		c0,3.16-1.86,6.359-5.58,9.6c-5.21,4.55-11.23,6.83-18.06,6.83c-4.22,0-8.21-0.899-11.95-2.689c-4.73-2.28-8.49-5.62-11.29-10.04
		c-2.8-4.41-4.19-9.24-4.19-14.48c0-7.84,2.91-14.52,8.73-20.03C82.06,2.5,88.31,0.05,95.67,0z M139.5,18.93l9.64-13.96
		c1.82-2.63,4.17-3.95,7.06-3.95c2.35,0,4.39,0.84,6.11,2.5c1.72,1.67,2.58,3.67,2.58,6c0,1.721-0.46,3.24-1.37,4.55L154.83,26.7
		l10.62,13.47c1.06,1.34,1.59,2.91,1.59,4.71c0,2.38-0.83,4.42-2.5,6.13s-3.69,2.56-6.07,2.56c-2.61,0-4.59-0.85-5.96-2.54
		L139.5,34.8v8.96c0,2.56-0.44,4.54-1.33,5.96c-1.62,2.58-3.97,3.87-7.06,3.87c-2.81,0-4.98-0.95-6.53-2.85
		c-1.44-1.75-2.16-4.061-2.16-6.94V10.6c0-2.729,0.73-4.979,2.2-6.75c1.54-1.87,3.67-2.81,6.38-2.81c2.58,0,4.73,0.939,6.45,2.81
		c0.96,1.04,1.57,2.09,1.82,3.15c0.15,0.66,0.23,1.88,0.23,3.68V18.93z"/>
	<path id="Green" fill="#7BC142" d="M177.74,33.62c1.9,0,3.92,0.83,6.07,2.5c2.68,2.1,4.52,3.149,5.5,3.149
		c1.47,0,2.2-0.76,2.2-2.279c0-0.83-0.43-1.54-1.29-2.131c-0.46-0.3-3.01-1.279-7.67-2.92c-7.61-2.68-11.42-7.64-11.42-14.88
		c0-5.46,2.01-9.78,6.03-12.939C180.68,1.38,185.04,0,190.22,0c4.48,0,8.37,1.069,11.69,3.21c3.31,2.14,4.97,4.89,4.97,8.25
		c0,2.02-0.63,3.71-1.88,5.069c-1.25,1.351-2.88,2.03-4.88,2.03c-2.1,0-4.43-1-6.98-3c-1.59-1.24-2.79-1.859-3.6-1.859
		c-1.39,0-2.09,0.68-2.09,2.05c0,1.29,1.72,2.47,5.16,3.529c4.76,1.49,8.44,3.311,11.04,5.461c3.47,2.88,5.2,6.93,5.2,12.14
		c0,5.67-1.95,10.09-5.84,13.28c-3.62,2.96-8.32,4.439-14.12,4.439c-5.79,0-10.59-1.54-14.38-4.63c-3.04-2.45-4.55-5.32-4.55-8.61
		c0-2.199,0.75-4.029,2.24-5.5C173.69,34.39,175.54,33.65,177.74,33.62z M223.42,17.3h-4.52c-2.5,0-4.58-0.68-6.22-2.05
		c-1.75-1.471-2.62-3.431-2.62-5.88c0-1.471,0.41-2.88,1.23-4.23c0.82-1.35,1.88-2.31,3.19-2.88c1.3-0.57,4.4-0.85,9.28-0.85h17.23
		c4.22,0,6.96,0.25,8.2,0.76c1.369,0.56,2.47,1.51,3.319,2.859c0.851,1.351,1.271,2.78,1.271,4.271c0,2.35-0.94,4.4-2.811,6.15
		c-1.34,1.239-3.529,1.859-6.56,1.859h-3.91v25.8c0,2.811-0.479,4.98-1.44,6.53c-1.619,2.58-3.959,3.87-7.02,3.87
		c-3.06,0-5.41-1.18-7.06-3.53c-1.04-1.47-1.56-3.689-1.56-6.68V17.3z M264.94,46.48c-0.811,1.92-1.641,3.351-2.5,4.29
		c-1.721,1.87-3.811,2.811-6.26,2.811c-3.011,0-5.351-1.21-7.021-3.641c-0.99-1.439-1.479-3.06-1.479-4.859
		c0-1.49,0.35-3,1.06-4.521l16.2-34.49c1.569-3.359,4.189-5.05,7.85-5.05c3.72,0,6.391,1.73,8.01,5.2l16.36,34.76
		c0.659,1.391,0.989,2.771,0.989,4.141c0,2.02-0.659,3.819-1.969,5.39c-1.721,2.05-3.921,3.07-6.601,3.07
		c-2.2,0-4.04-0.681-5.5-2.051c-1.09-1.01-2.17-2.689-3.261-5.05H264.94L264.94,46.48z M335.88,33.24l4.021,6.449
		c1.109,1.801,1.67,3.641,1.67,5.54c0,2.4-0.83,4.4-2.49,5.98s-3.69,2.37-6.09,2.37c-3.09,0-5.431-1.32-7.021-3.95l-7.13-11.69
		v7.021c0,2.399-0.79,4.439-2.37,6.109c-1.58,1.671-3.569,2.5-5.979,2.5c-2.931,0-5.16-1.05-6.681-3.149
		c-1.369-1.851-2.049-4.271-2.049-7.29v-31.9c0-6.55,3.529-9.83,10.589-9.83H323.2c3.57,0,6.88,1.03,9.939,3.091
		c3.061,2.06,5.301,4.739,6.721,8.029c1.06,2.48,1.59,4.971,1.59,7.471C341.46,24.68,339.6,29.09,335.88,33.24z M356.17,17.3h-4.52
		c-2.5,0-4.58-0.68-6.221-2.05c-1.75-1.471-2.62-3.431-2.62-5.88c0-1.471,0.41-2.88,1.23-4.23c0.82-1.35,1.88-2.31,3.19-2.88
		c1.31-0.57,4.39-0.85,9.279-0.85h17.23c4.22,0,6.96,0.25,8.2,0.76c1.37,0.56,2.47,1.51,3.319,2.859
		c0.851,1.351,1.271,2.78,1.271,4.271c0,2.35-0.94,4.4-2.811,6.15c-1.34,1.239-3.529,1.859-6.56,1.859h-3.91v25.8
		c0,2.811-0.479,4.98-1.439,6.53c-1.62,2.58-3.961,3.87-7.021,3.87s-5.41-1.18-7.06-3.53c-1.04-1.47-1.551-3.689-1.551-6.68v-26
		H356.17z M406.79,37.19h7.76c3.21,0,5.59,0.66,7.16,1.971c1.84,1.569,2.771,3.59,2.771,6.069c0,2.53-0.921,4.58-2.771,6.15
		c-1.44,1.21-3.81,1.82-7.09,1.82H401.3c-3.14,0-5.29-0.24-6.45-0.721c-2.279-0.939-3.779-2.47-4.52-4.59
		c-0.46-1.37-0.68-3.6-0.68-6.72V13.02c0-2.35,0.08-3.93,0.229-4.74c0.28-1.64,0.95-3.039,2.01-4.17
		c1.21-1.29,2.761-2.109,4.631-2.47c0.88-0.149,2.68-0.229,5.39-0.229h10.21c2.78,0,4.4,0.029,4.86,0.08
		c1.819,0.18,3.31,0.71,4.479,1.59c2.07,1.569,3.11,3.62,3.11,6.149c0,2.73-0.91,4.82-2.73,6.261c-1.62,1.289-3.82,1.939-6.63,1.939
		h-8.41v3.53h6.7c1.97,0,3.59,0.52,4.88,1.56c1.36,1.11,2.04,2.641,2.04,4.59c0,4.12-2.51,6.19-7.53,6.19h-6.09v3.89H406.79z
		 M461.73,33.24l4.02,6.449c1.11,1.801,1.67,3.641,1.67,5.54c0,2.4-0.83,4.4-2.49,5.98s-3.689,2.37-6.09,2.37
		c-3.09,0-5.43-1.32-7.02-3.95l-7.13-11.69v7.021c0,2.399-0.79,4.439-2.37,6.109c-1.58,1.671-3.57,2.5-5.98,2.5
		c-2.939,0-5.16-1.05-6.68-3.149c-1.37-1.851-2.05-4.271-2.05-7.29v-31.9c0-6.55,3.529-9.83,10.59-9.83h10.85
		c3.57,0,6.88,1.03,9.94,3.091c3.06,2.06,5.3,4.739,6.72,8.029c1.061,2.48,1.59,4.971,1.59,7.471
		C467.31,24.68,465.45,29.09,461.73,33.24z"/>
</g>
</svg>
