<?xml version="1.0" encoding="utf-8"?>
<!-- Generator: Adobe Illustrator 16.0.1, SVG Export Plug-In . SVG Version: 6.00 Build 0)  -->
<!DOCTYPE svg PUBLIC "-//W3C//DTD SVG 1.1//EN" "http://www.w3.org/Graphics/SVG/1.1/DTD/svg11.dtd">
<svg version="1.1" id="Layer_1" xmlns="http://www.w3.org/2000/svg" xmlns:xlink="http://www.w3.org/1999/xlink" x="0px" y="0px"
	 width="273.38px" height="222.38px" viewBox="0 0 273.38 222.38" style="enable-background:new 0 0 273.38 222.38;"
	 xml:space="preserve">
<style type="text/css">
<![CDATA[
	.st0{fill:#5FA9DD;}
]]>
</style>
<path class="st0" d="M273.44,26.46c-10.06,4.46-20.87,7.48-32.21,8.83c11.58-6.94,20.47-17.93,24.66-31.03
	c-10.84,6.43-22.84,11.1-35.62,13.61c-10.23-10.9-24.81-17.71-40.94-17.71c-30.98,0-56.09,25.11-56.09,56.09
	c0,4.4,0.5,8.68,1.45,12.78c-46.62-2.34-87.94-24.67-115.61-58.6c-4.83,8.28-7.59,17.92-7.59,28.2c0,19.46,9.9,36.63,24.95,46.69
	c-9.19-0.29-17.84-2.81-25.41-7.02c0,0.23,0,0.47,0,0.71c0,27.18,19.33,49.85,44.99,55c-4.71,1.28-9.66,1.97-14.78,1.97
	c-3.61,0-7.13-0.35-10.55-1.01c7.14,22.28,27.85,38.5,52.4,38.95c-19.2,15.04-43.38,24.01-69.66,24.01c-4.53,0-8.99-0.27-13.38-0.78
	c24.82,15.91,54.3,25.2,85.98,25.2c103.17,0,159.58-85.47,159.58-159.59c0-2.43-0.05-4.85-0.16-7.26
	C256.42,47.59,265.93,37.71,273.44,26.46z"/>
<g>
</g>
<g>
</g>
<g>
</g>
<g>
</g>
<g>
</g>
<g>
</g>
</svg>
